<?xml version="1.0" standalone="no"?>
<!DOCTYPE svg PUBLIC "-//W3C//DTD SVG 1.1//EN" "http://www.w3.org/Graphics/SVG/1.1/DTD/svg11.dtd" >
<svg>
<metadata>
Created by FontForge 20090914 at Thu Apr 28 17:35:43 2016
 By www-data
Copyright (c) 2010 by Brian J. Bonislawsky DBA Astigmatic (AOETI). All rights reserved. Available under the Apache 2.0 licence.http://www.apache.org/licenses/LICENSE-2.0.html
</metadata>
<defs>
<font id="Aclonica-Regular" horiz-adv-x="1404" >
  <font-face 
    font-family="Aclonica"
    font-weight="400"
    font-stretch="normal"
    units-per-em="2048"
    panose-1="2 6 5 3 0 0 0 2 0 4"
    ascent="1638"
    descent="-410"
    x-height="1155"
    cap-height="1440"
    bbox="-97 -606.999 2304 2141"
    underline-thickness="20"
    underline-position="-113"
    unicode-range="U+0020-U+FB02"
  />
<missing-glyph horiz-adv-x="580" 
 />
    <glyph glyph-name="fi" unicode="fi" horiz-adv-x="1616" 
d="M1183 1660c-28.667 -10 -52.1641 -23.6689 -70.4971 -41.002s-32.833 -36.333 -43.5 -57s-18.334 -42.167 -23.001 -64.5s-7.66699 -43.5 -9 -63.5s-1.5 -38 -0.5 -54s1.83301 -28 2.5 -36c-1.33301 17.333 -4 36.333 -8 57s-10 41.667 -18 63s-18 42 -30 62
s-26.833 37.667 -44.5 53s-38.334 27.666 -62.001 36.999s-50.834 14 -81.501 14c-47.333 0 -85.333 -11 -114 -33s-50.667 -53.5 -66 -94.5s-25.666 -90.667 -30.999 -149s-8 -124.166 -8 -197.499h350v-134h-350v-1022h-339v1022h-210v134h210
c0 212 45.667 370.5 137 475.5s230.666 157.5 417.999 157.5c56 0 105.5 -5.16699 148.5 -15.5s80.333 -22.666 112 -36.999s58.167 -28.666 79.5 -42.999zM1489 1434c0 -25.333 -4.83301 -49.333 -14.5 -72s-22.834 -42.334 -39.501 -59.001
s-36.334 -29.834 -59.001 -39.501s-46.667 -14.5 -72 -14.5s-49.166 4.83301 -71.499 14.5s-41.833 22.834 -58.5 39.501s-29.834 36.334 -39.501 59.001s-14.5 46.667 -14.5 72s4.83301 49.166 14.5 71.499s22.834 41.833 39.501 58.5s36.167 29.834 58.5 39.501
s46.166 14.5 71.499 14.5s49.333 -4.83301 72 -14.5s42.334 -22.834 59.001 -39.501s29.834 -36.167 39.501 -58.5s14.5 -46.166 14.5 -71.499zM1474 -0.00195312h-339v1154h339v-1154z" />
    <glyph glyph-name="fl" unicode="fl" horiz-adv-x="1596" 
d="M1117 0h338v1687h-130l-208 -351v-1336zM1220 1660l-190.999 -316.002c-2 25.333 -6.66699 54.5 -14 87.5s-19.5 64.167 -36.5 93.5s-40.333 54.166 -70 74.499s-67.5 30.5 -113.5 30.5c-47.333 0 -85.333 -11 -114 -33s-50.667 -53.5 -66 -94.5
s-25.666 -90.667 -30.999 -149s-8 -124.166 -8 -197.499h350v-134h-350v-1022h-339v1022h-210v134h210c0 212 45.667 370.5 137 475.5s230.666 157.5 417.999 157.5c56 0 106.167 -3.83301 150.5 -11.5s83.666 -17.667 117.999 -30s64.5 -26.166 90.5 -41.499
s49 -30.666 69 -45.999z" />
    <glyph glyph-name=".notdef" horiz-adv-x="580" 
 />
    <glyph glyph-name="space" unicode=" " horiz-adv-x="580" 
 />
    <glyph glyph-name="exclam" unicode="!" horiz-adv-x="667" 
d="M548 1540l-112 -1145h-205l-111 1145h428zM516 150c0 -25.333 -4.83301 -49.166 -14.5 -71.499s-22.667 -41.666 -39 -57.999s-35.666 -29.333 -57.999 -39s-45.833 -14.5 -70.5 -14.5c-25.333 0 -49.166 4.83301 -71.499 14.5s-41.666 22.667 -57.999 39
s-29.333 35.666 -39 57.999s-14.5 46.166 -14.5 71.499c0 24.667 4.83301 48.167 14.5 70.5s22.667 41.666 39 57.999s35.666 29.333 57.999 39s46.166 14.5 71.499 14.5c24.667 0 48.167 -4.83301 70.5 -14.5s41.666 -22.667 57.999 -39s29.333 -35.666 39 -57.999
s14.5 -45.833 14.5 -70.5z" />
    <glyph glyph-name="quotedbl" unicode="&#x22;" horiz-adv-x="1029" 
d="M924 1440l-62 -502h-243l-62 502h367zM473 1440l-61 -502h-244l-61 502h366z" />
    <glyph glyph-name="numbersign" unicode="#" horiz-adv-x="1151" 
d="M1083 987l-51 -186h-128l-58 -197h133l-54 -184h-134l-86 -289h-235l86 289h-127l-86 -289h-236l88 289h-126l54 184h126l60 197h-133l51 186h137l87 295h234l-88 -295h129l88 295h233l-87 -295h123zM669 801h-127l-59 -197h128z" />
    <glyph glyph-name="dollar" unicode="$" horiz-adv-x="956" 
d="M540 586l-0.00195312 -235.002c16.667 2 33.334 5.33301 50.001 10s31.5 11.334 44.5 20.001s23.5 19.667 31.5 33s12 30 12 50c0 17.333 -4 32.5 -12 45.5s-18.5 24.333 -31.5 34s-27.667 17.834 -44 24.501s-33.166 12.667 -50.499 18zM419.998 856.998v231.999
c-16 -2 -31.667 -5.5 -47 -10.5s-29 -11.667 -41 -20s-21.667 -19.166 -29 -32.499s-11 -29.333 -11 -48c0 -18 3.66699 -33.5 11 -46.5s17 -24.333 29 -34s25.667 -17.667 41 -24s31 -11.833 47 -16.5zM539.998 -33.0029l-120.001 0.00488281v276
c-28.667 2 -56.167 5.83301 -82.5 11.5s-53 14.167 -80 25.5s-55.5 25.333 -85.5 42s-63.333 37 -100 61l125 169c10 -25.333 22.5 -49.166 37.5 -71.499s31.833 -42.333 50.5 -60s39.334 -32.5 62.001 -44.5s47 -20 73 -24v266c-37.333 10.667 -75.5 22.834 -114.5 36.501
s-74.833 31 -107.5 52s-59.334 47.167 -80.001 78.5s-31 70.333 -31 117c0 53.333 8.83301 98.333 26.5 135s41.834 66.667 72.501 90s66 40.666 106 51.999s82.667 18.666 128 21.999v269h120v-271c24 -1.33301 48.5 -4.33301 73.5 -9s50.667 -12.334 77 -23.001
s54 -24.667 83 -42s60.167 -39.333 93.5 -66l-125 -169c-18 53.333 -43.167 98.166 -75.5 134.499s-74.5 58.166 -126.5 65.499v-264c37.333 -10.667 76.166 -22.834 116.499 -36.501s77.166 -31.167 110.499 -52.5s60.833 -47.833 82.5 -79.5s32.5 -70.834 32.5 -117.501
c0 -54.667 -9.33301 -100.5 -28 -137.5s-43.667 -67 -75 -90s-67.666 -40 -108.999 -51s-84.666 -17.833 -129.999 -20.5v-274z" />
    <glyph glyph-name="percent" unicode="%" horiz-adv-x="1570" 
d="M1502 368c0 -59.333 -9.83398 -110.167 -29.501 -152.5s-45 -77.333 -76 -105s-65.833 -48 -104.5 -61s-76.667 -19.5 -114 -19.5c-38 0 -76.167 7 -114.5 21s-72.666 35 -102.999 63s-55 63.167 -74 105.5s-28.5 91.833 -28.5 148.5c0 59.333 9.66699 110.333 29 153
s44.166 77.667 74.499 105s64.5 47.5 102.5 60.5s76 19.5 114 19.5c40.667 0 80.334 -6.5 119.001 -19.5s73.167 -33.167 103.5 -60.5s54.833 -62.333 73.5 -105s28 -93.667 28 -153zM1285 1390l-788 -1340h-208l778 1340h218zM711.999 1062
c0 -59.333 -9.83398 -110.333 -29.501 -153s-45 -77.667 -76 -105s-65.833 -47.5 -104.5 -60.5s-76.667 -19.5 -114 -19.5c-38 0 -76.167 7 -114.5 21s-72.666 35 -102.999 63s-55 63.167 -74 105.5s-28.5 91.833 -28.5 148.5c0 59.333 9.66699 110.333 29 153
s44.166 77.667 74.499 105s64.5 47.5 102.5 60.5s76 19.5 114 19.5c40.667 0 80.334 -6.5 119.001 -19.5s73.167 -33.167 103.5 -60.5s54.833 -62.333 73.5 -105s28 -93.667 28 -153zM1311 367.999c0 30 -2.16797 59.499 -6.50098 88.499s-11.666 55.167 -21.999 78.5
s-24 42.166 -41 56.499s-38.167 21.5 -63.5 21.5c-23.333 0 -43.166 -7.16699 -59.499 -21.5s-29.666 -33 -39.999 -56s-17.833 -49.167 -22.5 -78.5s-7 -59 -7 -89c0 -29.333 2.33301 -58.666 7 -87.999s12.167 -55.5 22.5 -78.5s23.666 -41.667 39.999 -56
s36.166 -21.5 59.499 -21.5c22 0 41.333 7.33301 58 22s30.5 33.834 41.5 57.501s19.333 50 25 79s8.5 57.5 8.5 85.5zM520.997 1062c0 30 -2.16797 59.498 -6.50098 88.498s-11.666 55 -21.999 78s-24 41.667 -41 56s-38.167 21.5 -63.5 21.5
c-23.333 0 -43.166 -7.16699 -59.499 -21.5s-29.666 -33 -39.999 -56s-17.833 -49 -22.5 -78s-7 -58.5 -7 -88.5c0 -29.333 2.33301 -58.666 7 -87.999s12.167 -55.666 22.5 -78.999s23.666 -42.166 39.999 -56.499s36.166 -21.5 59.499 -21.5c22 0 41.333 7.5 58 22.5
s30.5 34.167 41.5 57.5s19.333 49.666 25 78.999s8.5 58 8.5 86z" />
    <glyph glyph-name="ampersand" unicode="&#x26;" horiz-adv-x="1612" 
d="M1586 503c-24 -50 -51.8301 -97.9961 -83.4971 -143.996s-67.167 -89 -106.5 -129l130 -123l-227 -163l-116 123c-60.667 -32.667 -123.667 -56.834 -189 -72.501s-132.333 -23.5 -201 -23.5c-50.667 0 -103.5 2.16699 -158.5 6.5s-109.333 12.333 -163 24
s-104.667 28.167 -153 49.5s-90.666 48.666 -126.999 81.999s-65.333 73.666 -87 120.999s-32.5 103.333 -32.5 168c0 50.667 9.5 97.667 28.5 141s44.667 81.833 77 115.5s69.666 62 111.999 85s87.166 39.5 134.499 49.5c-23.333 16 -46.166 35.5 -68.499 58.5
s-42.333 48 -60 75s-32 55.167 -43 84.5s-16.5 58.666 -16.5 87.999c0 64 13.5 118 40.5 162s62.167 79.5 105.5 106.5s92.166 46.5 146.499 58.5s108.833 18 163.5 18c54 0 108.667 -6 164 -18s105.166 -31.667 149.499 -59s80.5 -62.833 108.5 -106.5s42 -97.5 42 -161.5
c0 -46 -9 -87.5 -27 -124.5s-41.667 -70.333 -71 -100s-62.333 -56.167 -99 -79.5s-73.334 -44.333 -110.001 -63l335 -319c14.667 38 26 77.167 34 117.5s12 80.833 12 121.5zM843.003 1097c0 23.333 -3.16895 45.666 -9.50195 66.999s-15.666 40 -27.999 56
s-28 28.833 -47 38.5s-41.167 14.5 -66.5 14.5c-27.333 0 -50.166 -4.5 -68.499 -13.5s-33.333 -21.5 -45 -37.5s-20 -34.667 -25 -56s-7.5 -44.333 -7.5 -69c0 -18.667 4.83301 -38 14.5 -58s21.667 -39.333 36 -58s29.5 -36.334 45.5 -53.001s30.667 -31 44 -43
c20 10.667 39.5 23.334 58.5 38.001s35.667 30.834 50 48.501s26 37 35 58s13.5 43.5 13.5 67.5zM1033 218.004l-439.001 442c-46 -25.333 -78.833 -58.666 -98.5 -99.999s-29.5 -87.333 -29.5 -138c0 -45.333 9.16699 -85.5 27.5 -120.5s42.833 -64.5 73.5 -88.5
s65.5 -42.167 104.5 -54.5s79.5 -18.5 121.5 -18.5c44 0 86.333 6.16699 127 18.5s78.334 32.166 113.001 59.499z" />
    <glyph glyph-name="quotesingle" unicode="'" horiz-adv-x="580" 
d="M473 1440l-61 -502h-244l-61 502h366z" />
    <glyph glyph-name="parenleft" unicode="(" horiz-adv-x="718" 
d="M657 -178l-185 0.00488281c-60 64.667 -113.833 131.667 -161.5 201s-87.834 141.5 -120.501 216.5s-57.667 153.333 -75 235s-26 167.167 -26 256.5c0 96 8.66699 184.333 26 265s42.5 157.667 75.5 231s73.167 144.5 120.5 213.5s101 139.833 161 212.5h185
c-22.667 -40.667 -43.667 -85.334 -63 -134.001s-37.333 -99.334 -54 -152.001s-31.5 -106.834 -44.5 -162.501s-24 -110.834 -33 -165.501s-15.833 -108.167 -20.5 -160.5s-7 -101.5 -7 -147.5c0 -162 16.833 -318.833 50.5 -470.5s90.834 -297.834 171.501 -438.501z" />
    <glyph glyph-name="parenright" unicode=")" horiz-adv-x="717" 
d="M628 731c0 -89.333 -8.66699 -174.836 -26 -256.503s-42.333 -160 -75 -235s-72.667 -147.167 -120 -216.5s-101.333 -136.333 -162 -201h-184c80 140 136.833 286.167 170.5 438.5s50.5 309.166 50.5 470.499c0 46 -2.33301 95.167 -7 147.5s-11.5 105.833 -20.5 160.5
s-20 109.834 -33 165.501s-27.667 109.834 -44 162.501s-34.333 103.334 -54 152.001s-40.5 93.334 -62.5 134.001h184c60 -72.667 113.667 -143.5 161 -212.5s87.5 -140.167 120.5 -213.5s58.167 -150.333 75.5 -231s26 -169 26 -265z" />
    <glyph glyph-name="asterisk" unicode="*" horiz-adv-x="809" 
d="M727 1130l-197 -46l133 -146l-155 -119l-104 173l-103 -173l-156 119l136 146l-197 46l59 183l184 -83l-20 204h195l-20 -202l181 81z" />
    <glyph glyph-name="plus" unicode="+" horiz-adv-x="1005" 
d="M920 629h-269v-308h-297v308h-269v184h269v293h297v-293h269v-184z" />
    <glyph glyph-name="comma" unicode="," horiz-adv-x="578" 
d="M469 150c0 -30.667 -4.00195 -61.999 -12.002 -93.999s-19.167 -63.167 -33.5 -93.5s-31.166 -59 -50.499 -86s-40.333 -50.833 -63 -71.5l-144 76c14 10.667 28.167 24.667 42.5 42s22.833 34.666 25.5 51.999c-19.333 6 -36.833 14.667 -52.5 26
s-29.167 24.833 -40.5 40.5s-20.166 32.667 -26.499 51s-9.5 37.5 -9.5 57.5c0 24.667 4.83301 48.167 14.5 70.5s22.667 41.666 39 57.999s35.5 29.333 57.5 39s45.667 14.5 71 14.5s49 -4.83301 71 -14.5s41.333 -22.667 58 -39s29.667 -35.666 39 -57.999
s14 -45.833 14 -70.5z" />
    <glyph glyph-name="hyphen" unicode="-" horiz-adv-x="954" 
d="M813 629h-672v184h672v-184z" />
    <glyph glyph-name="period" unicode="." horiz-adv-x="574" 
d="M469 150c0 -25.333 -4.66699 -49.166 -14 -71.499s-22.333 -41.666 -39 -57.999s-36 -29.333 -58 -39s-45.667 -14.5 -71 -14.5s-49 4.83301 -71 14.5s-41.333 22.667 -58 39s-29.667 35.666 -39 57.999s-14 46.166 -14 71.499c0 24.667 4.66699 48.167 14 70.5
s22.333 41.666 39 57.999s36 29.333 58 39s45.667 14.5 71 14.5s49 -4.83301 71 -14.5s41.333 -22.667 58 -39s29.667 -35.666 39 -57.999s14 -45.833 14 -70.5z" />
    <glyph glyph-name="slash" unicode="/" horiz-adv-x="979" 
d="M929 1440l-538 -1440h-338l538 1440h338z" />
    <glyph glyph-name="zero" unicode="0" horiz-adv-x="1625" 
d="M1528 722c0 -88 -9.99902 -167.5 -29.999 -238.5s-47.5 -134.333 -82.5 -190s-75.833 -103.834 -122.5 -144.501s-96.667 -74.167 -150 -100.5s-108.666 -45.833 -165.999 -58.5s-114 -19 -170 -19c-56.667 0 -113.667 6.83301 -171 20.5s-112.333 34.334 -165 62.001
s-101.834 62.167 -147.501 103.5s-85.334 89.833 -119.001 145.5s-60.167 118.5 -79.5 188.5s-29 147 -29 231c0 88.667 9.83301 168.667 29.5 240s46.5 135 80.5 191s74 104.167 120 144.5s95.333 73.5 148 99.5s107.334 45.333 164.001 58s113 19 169 19
c60 0 119.667 -6.33301 179 -19s115.666 -32 168.999 -58s102.833 -59.167 148.5 -99.5s85 -88.5 118 -144.5s59 -119.667 78 -191s28.5 -151.333 28.5 -240zM1134 722c0 44 -2.16992 89.001 -6.50293 135.001s-11.333 90.667 -21 134s-22.667 84 -39 122
s-36.666 71.167 -60.999 99.5s-53 50.666 -86 66.999s-70.833 24.5 -113.5 24.5c-39.333 0 -74.5 -8.16699 -105.5 -24.5s-58.333 -38.5 -82 -66.5s-43.667 -61 -60 -99s-29.666 -78.5 -39.999 -121.5s-17.833 -87.667 -22.5 -134s-7 -91.833 -7 -136.5
c0 -44 2.33301 -89 7 -135s12.167 -90.5 22.5 -133.5s23.666 -83.5 39.999 -121.5s36.333 -71.167 60 -99.5s51 -50.833 82 -67.5s66.167 -25 105.5 -25c37.333 0 71.5 8.5 102.5 25.5s58.667 40 83 69s45.333 62.667 63 101s32.334 79 44.001 122
s20.334 87.167 26.001 132.5s8.5 89.333 8.5 132z" />
    <glyph glyph-name="one" unicode="1" horiz-adv-x="942" 
d="M878 0h-781v183h192v1074h-192v183h589v-1257h192v-183z" />
    <glyph glyph-name="two" unicode="2" horiz-adv-x="1532" 
d="M1426 1007c0 -59.333 -7.99512 -110.499 -23.9951 -153.499s-37.667 -79.833 -65 -110.5s-59.5 -56.5 -96.5 -77.5s-76.5 -39.5 -118.5 -55.5s-85.5 -30.333 -130.5 -43s-89.5 -26 -133.5 -40s-86.333 -30 -127 -48s-77.334 -40.167 -110.001 -66.5s-60.667 -58 -84 -95
s-39.333 -81.5 -48 -133.5h937v-184h-1364c14.667 92 35.667 171.5 63 238.5s59 124.5 95 172.5s75.167 88.167 117.5 120.5s85.833 59.666 130.5 81.999s89.667 41 135 56l131 43.5c42 14 81.167 28.833 117.5 44.5s68 35.167 95 58.5s48.167 51.833 63.5 85.5
s23 75.5 23 125.5c0 45.333 -7.66699 85 -23 119s-36.333 62.333 -63 85s-58.167 39.667 -94.5 51s-75.166 17 -116.499 17c-43.333 0 -83.5 -8 -120.5 -24s-70.333 -38.5 -100 -67.5s-55.334 -63.833 -77.001 -104.5s-38.167 -86 -49.5 -136l-307 170
c27.333 56 66.166 104.667 116.499 146s106.166 75.833 167.499 103.5s125.166 48.334 191.499 62.001s129.166 20.5 188.499 20.5c57.333 0 114 -2.33301 170 -7s109.167 -13.334 159.5 -26.001s96.833 -30 139.5 -52s79.667 -50.167 111 -84.5s55.833 -75.5 73.5 -123.5
s26.5 -104.333 26.5 -169z" />
    <glyph glyph-name="three" unicode="3" horiz-adv-x="1518" 
d="M712 -29c-59.333 0 -123.673 6.8291 -193.006 20.4961s-136.666 34.334 -201.999 62.001s-124.666 62.167 -177.999 103.5s-93.666 90 -120.999 146l357 169c0 -46 9.5 -89.167 28.5 -129.5s44.167 -75.5 75.5 -105.5s67.166 -53.667 107.499 -71s82.166 -26 125.499 -26
c41.333 0 81.666 6.16699 120.999 18.5s74.166 30.5 104.499 54.5s54.833 53.5 73.5 88.5s28 75.167 28 120.5c0 50 -8.5 92.833 -25.5 128.5s-40.333 64.834 -70 87.501s-64.334 39.334 -104.001 50.001s-82.167 16 -127.5 16h-195v170h195c31.333 0 61.833 4 91.5 12
s56 20.333 79 37s41.5 37.5 55.5 62.5s21 54.167 21 87.5c0 37.333 -6.33301 68.666 -19 93.999s-30.167 45.833 -52.5 61.5s-48.5 27 -78.5 34s-62.333 10.5 -97 10.5c-33.333 0 -65.666 -4.33301 -96.999 -13s-59 -21.667 -83 -39s-43.333 -39.166 -58 -65.499
s-22 -57.166 -22 -92.499l-285 209c28 34.667 64 64.334 108 89.001s91.167 44.5 141.5 59.5s101.333 26 153 33s99.167 10.5 142.5 10.5c40 0 82.5 -2.16699 127.5 -6.5s89.5 -11.833 133.5 -22.5s86.333 -25 127 -43s76.334 -40.667 107.001 -68s55.167 -60 73.5 -98
s27.5 -82.333 27.5 -133c0 -30.667 -6.66699 -60.5 -20 -89.5s-30.666 -55.833 -51.999 -80.5s-45.666 -46.5 -72.999 -65.5s-55 -33.833 -83 -44.5c46.667 -10 91.334 -26.5 134.001 -49.5s80.167 -51.333 112.5 -85s58 -72.167 77 -115.5s28.5 -90.333 28.5 -141
c0 -64.667 -10.833 -120.834 -32.5 -168.501s-50.667 -88.167 -87 -121.5s-78.666 -60.5 -126.999 -81.5s-99.166 -37.333 -152.499 -49s-107.666 -19.667 -162.999 -24s-108 -6.5 -158 -6.5z" />
    <glyph glyph-name="four" unicode="4" horiz-adv-x="1439" 
d="M1346 328l-100.004 -0.000976562v-328h-397v328h-823c18 76.667 41.333 155 70 235s61.167 159 97.5 237s75.833 154.333 118.5 229s87.334 145 134.001 211h277c-57.333 -95.333 -105.166 -186.666 -143.499 -273.999s-69.166 -165 -92.499 -233
c-27.333 -79.333 -48.666 -153.333 -63.999 -222h426v929h397v-929h100v-183z" />
    <glyph glyph-name="five" unicode="5" horiz-adv-x="1526" 
d="M1458 442c0 -64.667 -10.833 -121.334 -32.5 -170.001s-50.667 -90.334 -87 -125.001s-78.666 -63.334 -126.999 -86.001s-99.166 -40.667 -152.499 -54s-107.666 -22.666 -162.999 -27.999s-108 -8 -158 -8c-59.333 0 -123.666 6.83301 -192.999 20.5
s-136.666 34.334 -201.999 62.001s-124.666 62.167 -177.999 103.5s-93.666 90 -120.999 146l357 169c0 -46 9.5 -89.167 28.5 -129.5s44.167 -75.5 75.5 -105.5s67.166 -53.667 107.499 -71s82.166 -26 125.499 -26c41.333 0 81.666 7.16699 120.999 21.5
s74.166 34.833 104.499 61.5s54.833 58.5 73.5 95.5s28 78.167 28 123.5c0 50 -8.5 94 -25.5 132s-40.333 69.5 -70 94.5s-64.334 43.833 -104.001 56.5s-82.167 19 -127.5 19c-105.333 0 -196.333 -4.16699 -273 -12.5s-140 -17.5 -190 -27.5
c-58.667 -12 -107.667 -25.333 -147 -40l150 776h1061v-184h-734l-71 -351c29.333 2.66699 60.833 4.83398 94.5 6.50098s70.167 2.5 109.5 2.5c88.667 0 168.167 -7 238.5 -21s132.166 -32.833 185.499 -56.5s98.666 -51.167 135.999 -82.5s67.833 -64.5 91.5 -99.5
s41 -70.667 52 -107s16.5 -71.5 16.5 -105.5z" />
    <glyph glyph-name="six" unicode="6" horiz-adv-x="1615" 
d="M1528 472c0 -90 -19.3369 -166.668 -58.0039 -230.001s-91 -115 -157 -155s-142.667 -69.333 -230 -88s-179.333 -28 -276 -28c-52 0 -105.667 5 -161 15s-109.333 26.167 -162 48.5s-102.5 51.333 -149.5 87s-88.167 79.5 -123.5 131.5s-63.333 112.667 -84 182
s-31 148.333 -31 237c0 82.667 8.83301 159.834 26.5 231.501s42.667 137.167 75 196.5s71.333 112.166 117 158.499s96.5 85.5 152.5 117.5s116.5 56.333 181.5 73s132.833 25 203.5 25c68 0 130.833 -3.83301 188.5 -11.5s112 -20.834 163 -39.501s99.5 -43.5 145.5 -74.5
s91.667 -69.5 137 -115.5l-171 -202c-14 36.667 -32.833 71.5 -56.5 104.5s-51.167 62 -82.5 87s-66.166 44.833 -104.499 59.5s-79.833 22 -124.5 22c-62.667 0 -121.5 -10.167 -176.5 -30.5s-103.667 -51 -146 -92s-77 -92.667 -104 -155s-43.833 -135.833 -50.5 -220.5
c28.667 34 60.334 61.833 95.001 83.5s70.334 38.834 107.001 51.501s73.334 21.334 110.001 26.001s71.667 7 105 7c90 0 174 -9.83301 252 -29.5s145.833 -50 203.5 -91s103 -93 136 -156s49.5 -138.167 49.5 -225.5zM1134 471.999
c0 56.667 -8.83594 105.836 -26.5029 147.503s-41.5 76.167 -71.5 103.5s-64.833 47.666 -104.5 60.999s-81.167 20 -124.5 20c-42 0 -82 -7 -120 -21s-71.667 -34.833 -101 -62.5s-52.666 -62.334 -69.999 -104.001s-26 -89.834 -26 -144.501
c0 -48.667 8.83301 -93.334 26.5 -134.001s41.334 -75.667 71.001 -105s63.5 -52.166 101.5 -68.499s77.333 -24.5 118 -24.5s80.667 7.5 120 22.5s74.333 36.667 105 65s55.334 63 74.001 104s28 87.833 28 140.5z" />
    <glyph glyph-name="seven" unicode="7" horiz-adv-x="1233" 
d="M605 0h-417l622 1256h-784v184h1181v-184z" />
    <glyph glyph-name="eight" unicode="8" horiz-adv-x="1603" 
d="M1123 422c0 50 -8.49609 92.8291 -25.4961 128.496s-40.333 64.834 -70 87.501s-64.334 39.334 -104.001 50.001s-82.167 16 -127.5 16c-44 0 -85.333 -5.83301 -124 -17.5s-72.167 -29.167 -100.5 -52.5s-50.833 -52.666 -67.5 -87.999s-25 -76.666 -25 -123.999
c0 -46 8.5 -86.5 25.5 -121.5s39.833 -64.5 68.5 -88.5s62.167 -42 100.5 -54s79.166 -18 122.499 -18c41.333 0 81.666 6.16699 120.999 18.5s74.166 30.5 104.499 54.5s54.833 53.5 73.5 88.5s28 75.167 28 120.5zM447.004 813.996
c-31.333 11.333 -61.3369 26.502 -90.0039 45.502s-54.167 40.5 -76.5 64.5s-40.166 50.333 -53.499 79s-20 58.667 -20 90c0 48.667 9 91.834 27 129.501s42.333 70.167 73 97.5s66 50.166 106 68.499s81.833 33.166 125.5 44.499s87.667 19.333 132 24s86.166 7 125.499 7
c40 0 82.5 -2.16699 127.5 -6.5s89.5 -11.833 133.5 -22.5s86.333 -25 127 -43s76.334 -40.667 107.001 -68s55.167 -60 73.5 -98s27.5 -82.333 27.5 -133c0 -30.667 -6.66699 -60.5 -20 -89.5s-30.666 -55.833 -51.999 -80.5s-45.666 -46.5 -72.999 -65.5
s-55 -33.833 -83 -44.5c46.667 -10 91.334 -26.5 134.001 -49.5s80.334 -51.333 113.001 -85s58.5 -72.167 77.5 -115.5s28.5 -90.333 28.5 -141c0 -64.667 -10.833 -120.834 -32.5 -168.501s-50.834 -88.167 -87.501 -121.5s-79.167 -60.5 -127.5 -81.5
s-99.166 -37.333 -152.499 -49s-107.666 -19.667 -162.999 -24s-108 -6.5 -158 -6.5c-48 0 -98.833 2.66699 -152.5 8s-106.834 14.666 -159.501 27.999s-103.167 31 -151.5 53s-90.833 49.667 -127.5 83s-65.834 73 -87.501 119s-32.5 99.333 -32.5 160
c0 51.333 10 99 30 143s46.667 83 80 117s71.833 62.333 115.5 85s89.167 38.334 136.5 47.001zM796 1273c-33.333 0 -64.501 -3.83301 -93.501 -11.5s-54.333 -19.5 -76 -35.5s-38.667 -36.667 -51 -62s-18.5 -55.666 -18.5 -90.999c0 -34 6.33301 -63.5 19 -88.5
s29.834 -45.667 51.501 -62s47 -28.5 76 -36.5s59.833 -12 92.5 -12c31.333 0 61.833 4 91.5 12s56 20.333 79 37s41.5 37.5 55.5 62.5s21 54.167 21 87.5c0 37.333 -6.33301 68.666 -19 93.999s-30.167 45.833 -52.5 61.5s-48.5 27 -78.5 34s-62.333 10.5 -97 10.5z" />
    <glyph glyph-name="nine" unicode="9" horiz-adv-x="1616" 
d="M1520 772c0 -124 -19.499 -235.333 -58.499 -334s-92.5 -182.667 -160.5 -252s-148 -122.5 -240 -159.5s-191 -55.5 -297 -55.5c-68 0 -130.833 3.83301 -188.5 11.5s-112 20.834 -163 39.501s-99.667 43.334 -146 74.001s-92.166 69 -137.499 115l172 203
c14 -36.667 32.833 -71.5 56.5 -104.5s51.167 -62 82.5 -87s66.166 -45 104.499 -60s79.833 -22.5 124.5 -22.5c62.667 0 121.5 10.167 176.5 30.5s103.667 51.166 146 92.499s77 93.166 104 155.499s43.833 135.833 50.5 220.5c-28.667 -34 -60.334 -62 -95.001 -84
s-70.334 -39.167 -107.001 -51.5s-73.5 -20.833 -110.5 -25.5s-71.833 -7 -104.5 -7c-90 0 -174.167 9.66699 -252.5 29s-146.166 49.5 -203.499 90.5s-102.5 93 -135.5 156s-49.5 138.167 -49.5 225.5c0 90 19.333 166.833 58 230.5s91 115.5 157 155.5
s142.667 69.333 230 88s179.333 28 276 28c52 0 105.667 -5 161 -15s109.333 -26.167 162 -48.5s102.5 -51.5 149.5 -87.5s88.167 -80 123.5 -132s63.333 -112.667 84 -182s31 -148.333 31 -237zM1126 972c0 48.667 -8.99902 93.3359 -26.999 134.003
s-41.667 75.667 -71 105s-63.166 52.166 -101.499 68.499s-77.5 24.5 -117.5 24.5c-41.333 0 -81.5 -7.5 -120.5 -22.5s-73.833 -36.667 -104.5 -65s-55.334 -63 -74.001 -104s-28 -87.833 -28 -140.5c0 -56 8.83301 -104.833 26.5 -146.5s41.5 -76.334 71.5 -104.001
s64.833 -48.167 104.5 -61.5s81.167 -20 124.5 -20c42 0 82 7 120 21s71.667 34.833 101 62.5s52.666 62.167 69.999 103.5s26 89.666 26 144.999z" />
    <glyph glyph-name="colon" unicode=":" horiz-adv-x="646" 
d="M505 844c0 -25.333 -4.83301 -49 -14.5 -71s-22.667 -41.333 -39 -58s-35.666 -29.667 -57.999 -39s-45.833 -14 -70.5 -14c-25.333 0 -49 4.66699 -71 14s-41.167 22.333 -57.5 39s-29.333 36 -39 58s-14.5 45.667 -14.5 71c0 24.667 4.83301 48.167 14.5 70.5
s22.667 41.666 39 57.999s35.5 29.333 57.5 39s45.667 14.5 71 14.5c24.667 0 48.167 -4.83301 70.5 -14.5s41.666 -22.667 57.999 -39s29.333 -35.666 39 -57.999s14.5 -45.833 14.5 -70.5zM505 150c0 -25.333 -4.83301 -49.166 -14.5 -71.499s-22.667 -41.666 -39 -57.999
s-35.666 -29.333 -57.999 -39s-45.833 -14.5 -70.5 -14.5c-25.333 0 -49 4.83301 -71 14.5s-41.167 22.667 -57.5 39s-29.333 35.666 -39 57.999s-14.5 46.166 -14.5 71.499c0 24.667 4.83301 48.167 14.5 70.5s22.667 41.666 39 57.999s35.5 29.333 57.5 39
s45.667 14.5 71 14.5c24.667 0 48.167 -4.83301 70.5 -14.5s41.666 -22.667 57.999 -39s29.333 -35.666 39 -57.999s14.5 -45.833 14.5 -70.5z" />
    <glyph glyph-name="semicolon" unicode=";" horiz-adv-x="646" 
d="M505 844c0 -25.333 -4.83301 -49 -14.5 -71s-22.667 -41.333 -39 -58s-35.666 -29.667 -57.999 -39s-45.833 -14 -70.5 -14c-25.333 0 -49 4.66699 -71 14s-41.167 22.333 -57.5 39s-29.333 36 -39 58s-14.5 45.667 -14.5 71c0 24.667 4.83301 48.167 14.5 70.5
s22.667 41.666 39 57.999s35.5 29.333 57.5 39s45.667 14.5 71 14.5c24.667 0 48.167 -4.83301 70.5 -14.5s41.666 -22.667 57.999 -39s29.333 -35.666 39 -57.999s14.5 -45.833 14.5 -70.5zM505 150c0 -30.667 -4.00195 -61.999 -12.002 -93.999
s-19.167 -63.167 -33.5 -93.5s-31.166 -59 -50.499 -86s-40.333 -50.833 -63 -71.5l-144 76c14 10.667 28.167 24.667 42.5 42s22.833 34.666 25.5 51.999c-19.333 6 -36.833 14.667 -52.5 26s-29.167 24.833 -40.5 40.5s-20.166 32.667 -26.499 51s-9.5 37.5 -9.5 57.5
c0 24.667 4.83301 48.167 14.5 70.5s22.667 41.666 39 57.999s35.5 29.333 57.5 39s45.667 14.5 71 14.5s49 -4.83301 71 -14.5s41.333 -22.667 58 -39s29.667 -35.666 39 -57.999s14 -45.833 14 -70.5z" />
    <glyph glyph-name="less" unicode="&#x3c;" horiz-adv-x="916" 
d="M780 1172v-209l-478 -260v-13l478 -274v-196l-714 407v140z" />
    <glyph glyph-name="equal" unicode="=" horiz-adv-x="1115" 
d="M975 799h-835v184h835v-184zM975 469h-835v184h835v-184z" />
    <glyph glyph-name="greater" unicode="&#x3e;" horiz-adv-x="916" 
d="M850 627l-714 -407v196l478 274v13l-478 260v209l714 -405v-140z" />
    <glyph glyph-name="question" unicode="?" horiz-adv-x="1248" 
d="M654 397l-204.998 -0.000976562c0 57.333 7.66699 106.5 23 147.5s34.5 77.833 57.5 110.5s48 63.334 75 92.001s52.167 58.834 75.5 90.501s42.666 67.167 57.999 106.5s23 86.333 23 141c0 44 -3.83301 83.167 -11.5 117.5s-19.667 63.166 -36 86.499
s-37.666 41.166 -63.999 53.499s-58.166 18.5 -95.499 18.5c-35.333 0 -66.833 -8.66699 -94.5 -26s-51.334 -39.166 -71.001 -65.499s-34.667 -55.666 -45 -87.999s-15.5 -63.5 -15.5 -93.5l-275 200c26 48.667 58 89.334 96 122.001s79.667 59 125 79
s93.5 34.167 144.5 42.5s102.5 12.5 154.5 12.5c46.667 0 93.667 -5 141 -15s93 -24.833 137 -44.5s85.167 -43.834 123.5 -72.501s71.666 -61.834 99.999 -99.501s50.666 -79.667 66.999 -126s24.5 -96.5 24.5 -150.5c0 -50.667 -7.33301 -94.5 -22 -131.5
s-34 -69.333 -58 -97s-51.333 -52 -82 -73s-62 -40.5 -94 -58.5l-94 -53c-30.667 -17.333 -58 -36.5 -82 -57.5s-43.333 -45 -58 -72s-22 -59.167 -22 -96.5zM737.002 149.999c0 -24.667 -4.83301 -48.167 -14.5 -70.5s-22.834 -41.833 -39.501 -58.5
s-36.167 -29.834 -58.5 -39.501s-45.833 -14.5 -70.5 -14.5s-48 4.83301 -70 14.5s-41.333 22.834 -58 39.501s-29.834 36.167 -39.501 58.5s-14.5 45.833 -14.5 70.5s4.83301 48 14.5 70s22.834 41.333 39.501 58s36 29.834 58 39.501s45.333 14.5 70 14.5
s48.167 -4.83301 70.5 -14.5s41.833 -22.834 58.5 -39.501s29.834 -36 39.501 -58s14.5 -45.333 14.5 -70z" />
    <glyph glyph-name="at" unicode="@" horiz-adv-x="1803" 
d="M1100 523c0 32 -2.49707 66.6689 -7.49707 104.002s-14.667 71.833 -29 103.5s-34.333 58 -60 79s-59.167 31.5 -100.5 31.5c-40.667 0 -73.667 -10.667 -99 -32s-45.166 -48 -59.499 -80s-24 -66.5 -29 -103.5s-7.5 -71.167 -7.5 -102.5c0 -21.333 1 -43.833 3 -67.5
s5.66699 -47.167 11 -70.5s12.666 -45.833 21.999 -67.5s21.333 -40.834 36 -57.501s32 -29.834 52 -39.501s43.667 -14.5 71 -14.5c37.333 0 68.666 11.167 93.999 33.5s45.666 49.666 60.999 81.999s26.166 66.833 32.499 103.5s9.5 69.334 9.5 98.001zM1624 581.002
c0 99.333 -18.833 192.502 -56.5 279.502s-89 163 -154 228s-141 116.333 -228 154s-180.167 56.5 -279.5 56.5s-192.5 -18.833 -279.5 -56.5s-163 -89 -228 -154s-116.333 -141 -154 -228s-56.5 -180.167 -56.5 -279.5s18.833 -192.5 56.5 -279.5s89 -163 154 -228
s141 -116.333 228 -154s180.167 -56.5 279.5 -56.5c20.667 0 42.667 1.66699 66 5s45.833 7.66602 67.5 12.999s41.5 11.166 59.5 17.499s32.667 12.5 44 18.5l45 -113c-46 -18 -91.5 -31.667 -136.5 -41s-93.5 -14 -145.5 -14c-76 0 -149.333 9.83301 -220 29.5
s-136.667 47.5 -198 83.5s-117.166 79.167 -167.499 129.5s-93.5 106.166 -129.5 167.499s-63.833 127.333 -83.5 198s-29.5 144 -29.5 220s9.83301 149.333 29.5 220s47.5 136.667 83.5 198s79.167 117.166 129.5 167.499s106.166 93.5 167.499 129.5
s127.333 63.833 198 83.5s144 29.5 220 29.5s149.333 -9.83301 220 -29.5s136.667 -47.5 198 -83.5s117.166 -79.167 167.499 -129.5s93.5 -106.166 129.5 -167.499s63.833 -127.333 83.5 -198s29.5 -144 29.5 -220c0 -61.333 -7.33301 -121 -22 -179
s-37.667 -109.667 -69 -155s-71.5 -81.833 -120.5 -109.5s-108.167 -41.5 -177.5 -41.5c-20 0 -41.167 3.5 -63.5 10.5s-43.5 17.333 -63.5 31s-38 30.167 -54 49.5s-27.333 41.333 -34 66c-13.333 -28 -30.166 -52.167 -50.499 -72.5s-42.333 -37 -66 -50
s-48.5 -22.5 -74.5 -28.5s-51 -9 -75 -9c-63.333 0 -119.833 11.333 -169.5 34s-91.834 53.5 -126.501 92.5s-61.167 85 -79.5 138s-27.5 109.5 -27.5 169.5c0 60.667 9.16699 117.334 27.5 170.001s44.833 98.667 79.5 138s76.834 70.333 126.501 93s106.167 34 169.5 34
c32 0 62.667 -4.83301 92 -14.5s56 -23.167 80 -40.5s45.167 -38.5 63.5 -63.5s32.833 -52.5 43.5 -82.5l109 181h93v-564c0 -34 6.66699 -61.333 20 -82s29.666 -35 48.999 -43s39.833 -9.66699 61.5 -5s40.834 15.667 57.501 33c28 30 50.167 70.833 66.5 122.5
s24.5 112.167 24.5 181.5z" />
    <glyph glyph-name="A" unicode="A" horiz-adv-x="1629" 
d="M1534 689v-18.9971c-1.33301 -56 -7.16602 -114 -17.499 -174s-24.833 -120 -43.5 -180s-41 -119.333 -67 -178s-55.167 -114.834 -87.5 -168.501s-67.166 -104 -104.499 -151s-76.666 -88.5 -117.999 -124.5l-149 86c23.333 39.333 44.5 82.166 63.5 128.499
s36.167 94.833 51.5 145.5s28.5 102.667 39.5 156s20.167 106.333 27.5 159s12.833 104.5 16.5 155.5s5.5 99.5 5.5 145.5c0 36 -0.166992 76.833 -0.5 122.5s-3 92.167 -8 139.5s-13.167 93.5 -24.5 138.5s-28.166 85.167 -50.499 120.5s-51 63.666 -86 84.999
s-78.5 32 -130.5 32c-46 0 -85.5 -7.83301 -118.5 -23.5s-61 -36.667 -84 -63s-41.333 -56.833 -55 -91.5s-24.334 -71.167 -32.001 -109.5s-12.667 -77 -15 -116s-3.5 -75.833 -3.5 -110.5v-279h431v-165h-431v-350h-397v732c0 104.667 16.667 202 50 292
s80.5 168.167 141.5 234.5s134.333 118.333 220 156s181.167 56.5 286.5 56.5c71.333 0 138.166 -10.167 200.499 -30.5s119.166 -48.333 170.499 -84s97.166 -78 137.499 -127s74 -102.5 101 -160.5s47.5 -119.333 61.5 -184s20.333 -130 19 -196z" />
    <glyph glyph-name="B" unicode="B" horiz-adv-x="1563" 
d="M1489 391c0 -40.667 -6.66699 -78.6631 -20 -113.996s-31.666 -67.5 -54.999 -96.5s-50.5 -54.833 -81.5 -77.5s-64.333 -41.667 -100 -57s-72.5 -26.833 -110.5 -34.5s-75.333 -11.5 -112 -11.5h-847v1440h774c34 0 69.667 -2.5 107 -7.5s73.833 -12.833 109.5 -23.5
s69.667 -24.667 102 -42s60.666 -38.5 84.999 -63.5s43.666 -53.833 57.999 -86.5s21.5 -70 21.5 -112c0 -40 -8 -76.333 -24 -109s-37.5 -61.834 -64.5 -87.501s-58 -48.334 -93 -68.001s-71.833 -36.834 -110.5 -51.501c48.667 -13.333 94.834 -31 138.501 -53
s82 -49 115 -81s59.167 -69.833 78.5 -113.5s29 -93.834 29 -150.501zM1017 1070c0 81.333 -21.5 140.667 -64.5 178s-104.167 56 -183.5 56h-209v-467h175c36 0 71 4.5 105 13.5s64.167 23 90.5 42s47.333 43.167 63 72.5s23.5 64.333 23.5 105zM1087 416.005
c0 39.333 -5.00098 76.167 -15.001 110.5s-25.333 64 -46 89s-46.5 44.667 -77.5 59s-67.5 21.5 -109.5 21.5h-279v-556h244c40.667 0 78.334 6.66699 113.001 20s64.667 32 90 56s45 53 59 87s21 71.667 21 113z" />
    <glyph glyph-name="C" unicode="C" horiz-adv-x="1540" 
d="M1471 1083l-171.004 -72.001c-13.333 43.333 -31.166 83 -53.499 119s-49 66.833 -80 92.5s-66.167 45.667 -105.5 60s-82.333 21.5 -129 21.5c-50 0 -95.833 -8.16699 -137.5 -24.5s-79 -38.833 -112 -67.5s-61.833 -62 -86.5 -100s-45.334 -78.5 -62.001 -121.5
s-29 -87.5 -37 -133.5s-12 -91 -12 -135c0 -70 8.16699 -139.667 24.5 -209s42.333 -131.666 78 -186.999s81.834 -100.166 138.501 -134.499s125.334 -51.5 206.001 -51.5c42.667 0 83 7.16699 121 21.5s72.5 34 103.5 59s58.167 54.5 81.5 88.5s42 70.667 56 110l173 -69
c-25.333 -63.333 -60 -118.833 -104 -166.5s-94.167 -87.167 -150.5 -118.5s-116.666 -54.833 -180.999 -70.5s-129.166 -23.5 -194.499 -23.5c-70.667 0 -138.5 8.66699 -203.5 26s-125.5 42 -181.5 74s-106.833 70.667 -152.5 116s-84.667 95.666 -117 150.999
s-57.333 115.5 -75 180.5s-26.5 132.833 -26.5 203.5s8.83301 138.5 26.5 203.5s42.667 125.333 75 181s71.333 106.167 117 151.5s96.5 84 152.5 116s116.5 56.667 181.5 74s132.833 26 203.5 26c68 0 134.5 -8 199.5 -24s125.5 -40.167 181.5 -72.5
s105.833 -73 149.5 -122s78.167 -106.5 103.5 -172.5z" />
    <glyph glyph-name="D" unicode="D" horiz-adv-x="1640" 
d="M1559 722c0 -70 -9.33301 -136.499 -28 -199.499s-44.834 -121.167 -78.501 -174.5s-73.834 -101.5 -120.501 -144.5s-98.167 -79.5 -154.5 -109.5s-116.666 -53.167 -180.999 -69.5s-130.5 -24.5 -198.5 -24.5h-635v1440h635c68 0 134 -8 198 -24
s124.167 -38.833 180.5 -68.5s108 -65.834 155 -108.501s87.333 -90.5 121 -143.5s59.834 -111 78.501 -174s28 -129.5 28 -199.5zM1156 722.001c0 78 -9.5 152.168 -28.5 222.501s-48.5 132.166 -88.5 185.499s-90.833 95.666 -152.5 126.999s-135.5 47 -221.5 47h-105
v-1164h105c84.667 0 157.834 15.833 219.501 47.5s112.667 74.334 153 128.001s70.166 115.5 89.499 185.5s29 143.667 29 221z" />
    <glyph glyph-name="E" unicode="E" horiz-adv-x="1280" 
d="M1197 0h-1034v1440h1034v-184h-637v-445h492v-183h-492v-444h637v-184z" />
    <glyph glyph-name="F" unicode="F" horiz-adv-x="1241" 
d="M560 0h-397v1440h1034v-184h-637v-445h492v-183h-492v-628z" />
    <glyph glyph-name="G" unicode="G" horiz-adv-x="1587" 
d="M1471 1083l-171.004 -72.001c-13.333 43.333 -31.166 83 -53.499 119s-49 66.833 -80 92.5s-66.167 45.667 -105.5 60s-82.333 21.5 -129 21.5c-50 0 -95.833 -8.33301 -137.5 -25s-79 -39.167 -112 -67.5s-61.833 -61.5 -86.5 -99.5s-45.167 -78.5 -61.5 -121.5
s-28.666 -87.5 -36.999 -133.5s-12.5 -91 -12.5 -135c0 -70 8.16699 -139.667 24.5 -209s42.333 -131.666 78 -186.999s81.834 -100.166 138.501 -134.499s125.334 -51.5 206.001 -51.5c44 0 78.333 9.83301 103 29.5s37 54.167 37 103.5v442h397v-715h-115l-70 113
c-64 -48.667 -134.5 -84.5 -211.5 -107.5s-155.5 -34.5 -235.5 -34.5c-70.667 0 -138.5 8.66699 -203.5 26s-125.5 42 -181.5 74s-106.833 70.667 -152.5 116s-84.667 95.666 -117 150.999s-57.333 115.5 -75 180.5s-26.5 132.833 -26.5 203.5s8.83301 138.5 26.5 203.5
s42.667 125.333 75 181s71.333 106.167 117 151.5s96.5 84 152.5 116s116.5 56.667 181.5 74s132.833 26 203.5 26c68 0 134.5 -8 199.5 -24s125.5 -40.167 181.5 -72.5s105.833 -73 149.5 -122s78.167 -106.5 103.5 -172.5z" />
    <glyph glyph-name="H" unicode="H" horiz-adv-x="1646" 
d="M560 0h-397v1440h397v-629h526v629h397v-1440h-397v628h-526v-628z" />
    <glyph glyph-name="I" unicode="I" horiz-adv-x="723" 
d="M560 0h-397v1440h397v-1440z" />
    <glyph glyph-name="J" unicode="J" horiz-adv-x="721" 
d="M565 452c0 -92.667 -11.835 -186.832 -35.502 -282.499s-56.667 -188.334 -99 -278.001s-93.166 -173.5 -152.499 -251.5s-124.666 -146 -195.999 -204l-154 93c40 54.667 75 116.667 105 186s55 141.333 75 216s35 149.667 45 225s15 147 15 215v1069h397v-988z" />
    <glyph glyph-name="K" unicode="K" horiz-adv-x="1480" 
d="M560 0h-397.001v1440h397v-686c122.667 94 237.167 198.333 343.5 313s197.833 239.334 274.5 374.001h271c-70.667 -120.667 -151.667 -233.334 -243 -338.001s-190.666 -201.667 -297.999 -291l575 -812h-414l-433 612l-37.5 -25l-38.5 -24v-563z" />
    <glyph glyph-name="L" unicode="L" horiz-adv-x="1221" 
d="M1197 0h-1034v1440h397v-1257h637v-183z" />
    <glyph glyph-name="M" unicode="M" horiz-adv-x="2045" 
d="M450 1074l-112 -1074h-245l245 1440h363l337 -1099l341 1099h363l204 -1440h-404l-119 1046l-281 -1046h-363z" />
    <glyph glyph-name="N" unicode="N" horiz-adv-x="1642" 
d="M347 0h-184v1440h258l875 -989v989h183v-1440h-258l-874 988v-988z" />
    <glyph glyph-name="O" unicode="O" horiz-adv-x="1750" 
d="M1666 722c0 -116 -19.9961 -220.5 -59.9961 -313.5s-95.333 -171.833 -166 -236.5s-154.334 -114.334 -251.001 -149.001s-201.334 -52 -314.001 -52s-217.334 17.333 -314.001 52s-180.334 84.334 -251.001 149.001s-126 143.5 -166 236.5s-60 197.5 -60 313.5
c0 118 19.833 223.5 59.5 316.5s94.667 171.667 165 236s153.833 113.666 250.5 147.999s202 51.5 316 51.5s219.333 -17.167 316 -51.5s180.167 -83.666 250.5 -147.999s125.333 -143 165 -236s59.5 -198.5 59.5 -316.5zM1262 722c0 44 -1.99805 89.001 -5.99805 135.001
s-11.333 90.667 -22 134s-25.167 84 -43.5 122s-41.833 71.167 -70.5 99.5s-63.167 50.666 -103.5 66.999s-87.5 24.5 -141.5 24.5c-54.667 0 -102.334 -8.16699 -143.001 -24.5s-75.334 -38.5 -104.001 -66.5s-52 -61 -70 -99s-32.167 -78.5 -42.5 -121.5
s-17.5 -87.667 -21.5 -134s-6 -91.833 -6 -136.5c0 -44 2 -89 6 -135s11.333 -90.5 22 -133.5s25.167 -83.5 43.5 -121.5s41.833 -71.167 70.5 -99.5s63.167 -50.833 103.5 -67.5s87.5 -25 141.5 -25c52.667 0 98.667 8.5 138 25.5s73.333 40 102 69s52.5 62.667 71.5 101
s34 79 45 122s18.833 87.167 23.5 132.5s7 89.333 7 132z" />
    <glyph glyph-name="P" unicode="P" horiz-adv-x="1498" 
d="M560 0h-397v1440h778c67.333 0 131.833 -9 193.5 -27s116.167 -45.167 163.5 -81.5s85.166 -82 113.499 -137s42.5 -119.5 42.5 -193.5c0 -46.667 -6.66699 -90.5 -20 -131.5s-31.833 -78.5 -55.5 -112.5s-51.5 -64.667 -83.5 -92s-67 -50.333 -105 -69
s-78.167 -33 -120.5 -43s-85.166 -15 -128.499 -15h-381v-538zM1052 1001c0 92.667 -23.5029 165.501 -70.5029 218.501s-117.833 79.5 -212.5 79.5h-209v-625h209c50.667 0 93.834 8.16699 129.501 24.5s64.834 39.166 87.501 68.499s39.334 63.833 50.001 103.5
s16 83.167 16 130.5z" />
    <glyph glyph-name="Q" unicode="Q" horiz-adv-x="1754" 
d="M1612 -384l-376.003 -206.004c-40.667 34.667 -80.834 73.834 -120.501 117.501s-77.167 89.834 -112.5 138.501s-67.666 99 -96.999 151s-53.666 103.667 -72.999 155c-107.333 4.66699 -206.666 25.167 -297.999 61.5s-170.166 86.833 -236.499 151.5
s-118.333 142.167 -156 232.5s-56.5 191.833 -56.5 304.5c0 118 19.833 223.5 59.5 316.5s94.667 171.667 165 236s153.833 113.666 250.5 147.999s202 51.5 316 51.5s219.333 -17.167 316 -51.5s180.167 -83.666 250.5 -147.999s125.333 -143 165 -236
s59.5 -198.5 59.5 -316.5c0 -99.333 -14.667 -190 -44 -272s-70.5 -154.333 -123.5 -217s-116.167 -114.667 -189.5 -156s-154 -70.666 -242 -87.999c37.333 -39.333 78 -77.333 122 -114s89.5 -71 136.5 -103s94.667 -61.167 143 -87.5s95.5 -49.166 141.5 -68.499z
M1264 721.996c0 44 -1.99805 89.001 -5.99805 135.001s-11.333 90.667 -22 134s-25.167 84 -43.5 122s-41.833 71.167 -70.5 99.5s-63.167 50.666 -103.5 66.999s-87.5 24.5 -141.5 24.5c-54.667 0 -102.334 -8.16699 -143.001 -24.5s-75.334 -38.5 -104.001 -66.5
s-52 -61 -70 -99s-32.167 -78.5 -42.5 -121.5s-17.5 -87.667 -21.5 -134s-6 -91.833 -6 -136.5c0 -44 2 -89 6 -135s11.333 -90.5 22 -133.5s25.167 -83.5 43.5 -121.5s41.833 -71.167 70.5 -99.5s63.167 -50.833 103.5 -67.5s87.5 -25 141.5 -25
c52.667 0 98.667 8.5 138 25.5s73.333 40 102 69s52.5 62.667 71.5 101s34 79 45 122s18.833 87.167 23.5 132.5s7 89.333 7 132z" />
    <glyph glyph-name="R" unicode="R" horiz-adv-x="1478" 
d="M560 0l-397 -0.000976562v1440h708c66.667 0 131 -7.83301 193 -23.5s116.833 -40.334 164.5 -74.001s85.667 -77.167 114 -130.5s42.5 -118 42.5 -194c0 -59.333 -12.5 -115.166 -37.5 -167.499s-58.333 -99 -100 -140s-89.5 -75 -143.5 -102s-110 -44.833 -168 -53.5
c26 -44 53.167 -85.667 81.5 -125s57 -76.166 86 -110.499s57.833 -66 86.5 -95l82 -79.5c61.333 -56 122 -104.333 182 -145h-495c-40 38 -78 83.667 -114 137c-30.667 45.333 -61.5 101.5 -92.5 168.5s-54.833 144.5 -71.5 232.5h-121v-538zM982 1018
c0 96.667 -23.502 167.668 -70.502 213.001s-117.5 68 -211.5 68h-140v-625h140c50 0 92.833 9.5 128.5 28.5s64.834 44.333 87.501 76s39.334 68.167 50.001 109.5s16 84.666 16 129.999z" />
    <glyph glyph-name="S" unicode="S" horiz-adv-x="1427" 
d="M1343 440c0 -62 -7.83105 -116.67 -23.498 -164.003s-37.667 -88.333 -66 -123s-61.833 -63.667 -100.5 -87s-80.834 -42 -126.501 -56s-94 -24 -145 -30s-102.833 -9 -155.5 -9c-69.333 0 -133.333 5.16699 -192 15.5s-113.834 26.666 -165.501 48.999
s-101.334 51.166 -149.001 86.499s-95.167 78.333 -142.5 129l204 207c18.667 -46 44.334 -88.5 77.001 -127.5s68.5 -72.5 107.5 -100.5s79.5 -50 121.5 -66s81.667 -24 119 -24c44 0 85.333 3.16699 124 9.5s72.334 16.833 101.001 31.5s51.167 34.167 67.5 58.5
s24.5 54.833 24.5 91.5c0 28 -6.33301 52 -19 72s-29.167 37.167 -49.5 51.5s-43.5 26.5 -69.5 36.5s-52.5 18.5 -79.5 25.5s-53.5 13.333 -79.5 19s-49 11.5 -69 17.5l-123 36.5c-42.667 13 -84.667 27.833 -126 44.5s-80.5 35.834 -117.5 57.501
s-69.5 47.334 -97.5 77.001s-50.333 64 -67 103s-25 83.833 -25 134.5c0 60.667 7.5 114.5 22.5 161.5s36.167 87.833 63.5 122.5s59.666 63.834 96.999 87.501s78.333 42.667 123 57s92.167 24.666 142.5 30.999s101.833 9.5 154.5 9.5c72 0 137.5 -6.66699 196.5 -20
s113.5 -32.333 163.5 -57s95.833 -54.167 137.5 -88.5s80.834 -72.5 117.501 -114.5l-204 -207c-16 48 -38.167 91.333 -66.5 130s-59.833 71.834 -94.5 99.501s-71 49 -109 64s-74.667 22.5 -110 22.5c-46 0 -88.333 -3.16699 -127 -9.5s-71.834 -16.666 -99.501 -30.999
s-49.167 -33.666 -64.5 -57.999s-23 -54.5 -23 -90.5c0 -28.667 5.66699 -53 17 -73s26.5 -37 45.5 -51s40.5 -25.5 64.5 -34.5s48.833 -16.833 74.5 -23.5s51 -12.5 76 -17.5s47.833 -10.5 68.5 -16.5l126 -36c44 -12.667 87.333 -27.5 130 -44.5
s83.334 -36.5 122.001 -58.5s72.667 -48.167 102 -78.5s52.666 -65.333 69.999 -105s26 -85.167 26 -136.5z" />
    <glyph glyph-name="T" unicode="T" horiz-adv-x="1261" 
d="M829 0h-397v1256h-392v184h1181v-184h-392v-1256z" />
    <glyph glyph-name="U" unicode="U" horiz-adv-x="1630" 
d="M585 1440c-18 -54 -33.667 -109.833 -47 -167.5s-24.333 -115.334 -33 -173.001s-15.167 -114.5 -19.5 -170.5s-6.5 -109 -6.5 -159c0 -36.667 0.166992 -77.834 0.5 -123.501s3 -92.167 8 -139.5s13.167 -93.5 24.5 -138.5s28.166 -85.167 50.499 -120.5
s51 -63.666 86 -84.999s78.5 -32 130.5 -32c46 0 85.5 7.83301 118.5 23.5s61 36.834 84 63.501s41.333 57.334 55 92.001s24.334 71 32.001 109s12.667 76.5 15 115.5s3.5 76.167 3.5 111.5v794h397v-732c0 -104.667 -16.667 -202 -50 -292s-80.333 -168.167 -141 -234.5
s-134 -118.333 -220 -156s-181.333 -56.5 -286 -56.5c-72 0 -139 10.167 -201 30.5s-118.833 48.333 -170.5 84s-97.667 78 -138 127s-74 102.5 -101 160.5s-47.5 119.167 -61.5 183.5s-20.333 129.5 -19 195.5v20c0.666992 53.333 6 108.5 16 165.5
s23.5 114.167 40.5 171.5s37.5 114.166 61.5 170.499s50.667 110.5 80 162.5h291z" />
    <glyph glyph-name="V" unicode="V" horiz-adv-x="1429" 
d="M909 0h-363l-538 1440h405l399 -1159l361 1159h246z" />
    <glyph glyph-name="W" unicode="W" horiz-adv-x="2057" 
d="M799 0h-363l-378 1440h405l239 -1022l212 1022h364l232 -1048l261 1048h245l-419 -1440h-364l-203 920z" />
    <glyph glyph-name="X" unicode="X" horiz-adv-x="1390" 
d="M1381 0h-405l-338 505l-346 -505h-280l520 662l-520 778h405l327 -489l357 489h280l-531 -647z" />
    <glyph glyph-name="Y" unicode="Y" horiz-adv-x="1328" 
d="M1332 1440l-466 -835v-605h-397v583l-471 857h405l313 -724l336 724h280z" />
    <glyph glyph-name="Z" unicode="Z" horiz-adv-x="1388" 
d="M1298 0h-1207v184h-1l753 1072h-752v184h1207v-184l-753 -1072h753v-184z" />
    <glyph glyph-name="bracketleft" unicode="[" horiz-adv-x="765" 
d="M675 -205h-514v1843h514v-197h-168v-1449h168v-197z" />
    <glyph glyph-name="backslash" unicode="\" horiz-adv-x="972" 
d="M920 0h-338l-530 1442h338z" />
    <glyph glyph-name="bracketright" unicode="]" horiz-adv-x="764" 
d="M604 -205h-514v197h166v1449h-166v197h514v-1843z" />
    <glyph glyph-name="asciicircum" unicode="^" horiz-adv-x="712" 
d="M712 819h-309l-100 348h-13l-114 -348h-176l217 615h280z" />
    <glyph glyph-name="underscore" unicode="_" horiz-adv-x="1443" 
d="M1139 -338h-835v175h835v-175z" />
    <glyph glyph-name="grave" unicode="`" horiz-adv-x="516" 
d="M516 1086h-200l-316 354h317z" />
    <glyph glyph-name="a" unicode="a" horiz-adv-x="1445" 
d="M1304 0l-338.003 0.00195312v138c-40 -54.667 -88.167 -95.167 -144.5 -121.5s-118.166 -39.5 -185.499 -39.5c-88 0 -166.667 15.667 -236 47s-128 74.166 -176 128.499s-84.667 118.166 -110 191.499s-38 152 -38 236s12.667 162.667 38 236s62 137.166 110 191.499
s106.667 97.166 176 128.499s148 47 236 47c44.667 0 87.167 -6.66699 127.5 -20s77.333 -32.166 111 -56.499s63.334 -53.666 89.001 -87.999s45.834 -72.5 60.501 -114.5l150 251h130v-1155zM963.997 580.002c0 30 -1.5 61.6641 -4.5 94.9971s-8.16699 66.333 -15.5 99
s-17.5 63.834 -30.5 93.501s-29.667 56 -50 79s-44.833 41.167 -73.5 54.5s-62 20 -100 20s-71 -6.83301 -99 -20.5s-52 -32 -72 -55s-36.5 -49.5 -49.5 -79.5s-23.167 -61.333 -30.5 -94s-12.5 -65.5 -15.5 -98.5s-4.5 -64.167 -4.5 -93.5s1.5 -60.666 4.5 -93.999
s8.16699 -66.333 15.5 -99s17.5 -64 30.5 -94s29.5 -56.5 49.5 -79.5s44 -41.333 72 -55s61 -20.5 99 -20.5c34.667 0 65.5 7.16699 92.5 21.5s50.667 33.5 71 57.5s37.5 51.333 51.5 82s25.333 62.334 34 95.001s15 65.167 19 97.5s6 61.833 6 88.5z" />
    <glyph glyph-name="b" unicode="b" horiz-adv-x="1446" 
d="M1369 576c0 -84 -12.6641 -162.668 -37.9971 -236.001s-62 -137.166 -110 -191.499s-106.667 -97.166 -176 -128.499s-148 -47 -236 -47c-44.667 0 -87.167 6.66699 -127.5 20s-77.333 32.166 -111 56.499s-63.334 53.5 -89.001 87.5s-45.834 72 -60.501 114l-150 -251
h-130v1580h338v-563c40 55.333 88.167 96 144.5 122s118.166 39 185.499 39c88 0 166.667 -15.667 236 -47s128 -74 176 -128s84.667 -117.667 110 -191s38 -152 38 -236zM1026 575.999c0 29.333 -1.49805 60.501 -4.49805 93.501s-8.16699 65.833 -15.5 98.5
s-17.5 64 -30.5 94s-29.5 56.5 -49.5 79.5s-44 41.333 -72 55s-61 20.5 -99 20.5c-34.667 0 -65.5 -7.16699 -92.5 -21.5s-50.667 -33.5 -71 -57.5s-37.5 -51.333 -51.5 -82s-25.333 -62.334 -34 -95.001s-15 -65 -19 -97s-6 -61.333 -6 -88c0 -30 1.5 -61.667 4.5 -95
s8.16699 -66.5 15.5 -99.5s17.5 -64.333 30.5 -94s29.667 -56 50 -79s44.666 -41.167 72.999 -54.5s61.833 -20 100.5 -20c37.333 0 70.166 6.83301 98.499 20.5s52.5 32 72.5 55s36.5 49.667 49.5 80s23.167 61.833 30.5 94.5s12.5 65.5 15.5 98.5s4.5 64.167 4.5 93.5z
" />
    <glyph glyph-name="c" unicode="c" horiz-adv-x="1266" 
d="M1207 869l-146.002 -58.002c-23.333 73.333 -62.333 129.666 -117 168.999s-120.334 59 -197.001 59c-41.333 0 -78.166 -6.5 -110.499 -19.5s-60.666 -30.833 -84.999 -53.5s-45 -49 -62 -79s-30.833 -62 -41.5 -96s-18.334 -69.167 -23.001 -105.5s-7 -71.5 -7 -105.5
c0 -36.667 2 -73.667 6 -111s10.833 -73.166 20.5 -107.499s22.5 -66.333 38.5 -96s36.167 -55.5 60.5 -77.5s53.333 -39.333 87 -52s72.5 -19 116.5 -19c35.333 0 69 5.33301 101 16s61.333 25.667 88 45s50.334 42.333 71.001 69s37 56.334 49 89.001l147 -54
c-22 -52.667 -51.167 -98.167 -87.5 -136.5s-77.5 -70 -123.5 -95s-95.333 -43.5 -148 -55.5s-106 -18 -160 -18c-87.333 0 -168.333 14.833 -243 44.5s-139.167 71.334 -193.5 125.001s-96.833 117.334 -127.5 191.001s-46 154.5 -46 242.5c0 88.667 15.167 170 45.5 244
s72.5 137.667 126.5 191s118.333 94.666 193 123.999s156.334 44 245.001 44c56 0 110.667 -6.16699 164 -18.5s102.833 -31.333 148.5 -57s86.667 -58.167 123 -97.5s65.5 -86.333 87.5 -141z" />
    <glyph glyph-name="d" unicode="d" horiz-adv-x="1446" 
d="M1305 0l-129.997 0.000976562l-150 251c-14.667 -42 -34.834 -80 -60.501 -114s-55.334 -63.167 -89.001 -87.5s-70.667 -43.166 -111 -56.499s-82.833 -20 -127.5 -20c-88 0 -166.667 15.667 -236 47s-128 74.166 -176 128.499s-84.667 118.166 -110 191.499
s-38 152 -38 236s12.667 162.667 38 236s62 137 110 191s106.667 96.667 176 128s148 47 236 47c67.333 0 129.166 -13 185.499 -39s104.5 -66.667 144.5 -122v563h338v-1580zM965.003 576.001c0 26.667 -2 55.999 -6 87.999s-10.333 64.333 -19 97s-20 64.334 -34 95.001
s-31.167 58 -51.5 82s-44 43.167 -71 57.5s-57.833 21.5 -92.5 21.5c-38 0 -71 -6.83301 -99 -20.5s-52 -32 -72 -55s-36.5 -49.5 -49.5 -79.5s-23.167 -61.333 -30.5 -94s-12.5 -65.5 -15.5 -98.5s-4.5 -64.167 -4.5 -93.5s1.5 -60.5 4.5 -93.5s8.16699 -65.833 15.5 -98.5
s17.5 -64.167 30.5 -94.5s29.5 -57 49.5 -80s44 -41.333 72 -55s61 -20.5 99 -20.5s71.333 6.66699 100 20s53.167 31.5 73.5 54.5s37 49.333 50 79s23.167 61 30.5 94s12.5 66.167 15.5 99.5s4.5 65 4.5 95z" />
    <glyph glyph-name="e" unicode="e" horiz-adv-x="1322" 
d="M419 548c41.333 -9.33301 82.668 -16.6689 124.001 -22.002s83 -8 125 -8c44 0 84.833 4.16699 122.5 12.5s70.334 22.333 98.001 42s49.5 45.834 65.5 78.501s24 73.334 24 122.001c0 39.333 -5.33301 75.333 -16 108s-26.5 60.667 -47.5 84s-46.833 41.5 -77.5 54.5
s-66.334 19.5 -107.001 19.5c-38 0 -72.167 -7 -102.5 -21s-57 -32.833 -80 -56.5s-42.667 -51.167 -59 -82.5s-29.833 -64 -40.5 -98s-18.334 -68.333 -23.001 -103s-7 -67.334 -7 -98.001v-16c0 -5.33301 0.333008 -10.666 1 -15.999zM1252 775.997
c0 -47.333 -7.67188 -89.502 -23.0049 -126.502s-36.166 -69.5 -62.499 -97.5s-56.833 -51.667 -91.5 -71s-71.667 -35.166 -111 -47.499s-79.833 -21.166 -121.5 -26.499s-82.167 -8 -121.5 -8c-50 0 -99.333 3.5 -148 10.5s-96.667 18.167 -144 33.5
c7.33301 -44 19 -85.833 35 -125.5s37.333 -74.334 64 -104.001s59.5 -53.167 98.5 -70.5s85.167 -26 138.5 -26c35.333 0 69 5.33301 101 16s61.333 25.667 88 45s50.167 42.333 70.5 69s36.833 56.334 49.5 89.001l146 -54c-22 -52.667 -52.167 -98.167 -90.5 -136.5
s-81.666 -70 -129.999 -95s-99.666 -43.5 -153.999 -55.5s-108.166 -18 -161.499 -18c-88 0 -169.333 14.833 -244 44.5s-139 71.167 -193 124.5s-96.333 117 -127 191s-46 155 -46 243s15.333 169 46 243s73 137.667 127 191s118.333 94.833 193 124.5s156 44.5 244 44.5
c42.667 0 86.334 -3 131.001 -9s88 -15.5 130 -28.5s81.667 -29.833 119 -50.5s69.833 -46.167 97.5 -76.5s49.667 -65.5 66 -105.5s24.5 -85.667 24.5 -137z" />
    <glyph glyph-name="f" unicode="f" horiz-adv-x="998" 
d="M1220 1630l-191 -316.003c-2 25.333 -6.66699 54.5 -14 87.5s-19.5 64.167 -36.5 93.5s-40.333 54.166 -70 74.499s-67.5 30.5 -113.5 30.5c-47.333 0 -85.333 -9.33301 -114 -28s-50.667 -46.667 -66 -84s-25.666 -83.666 -30.999 -138.999s-8 -119.666 -8 -192.999h350
v-134h-350v-1022h-339v1022h-210v134h210c0 106 11.333 197 34 273s57 138.5 103 187.5s103.833 85 173.5 108s151.167 34.5 244.5 34.5c56 0 106.167 -3.83301 150.5 -11.5s83.666 -17.667 117.999 -30s64.5 -26.166 90.5 -41.499s49 -30.666 69 -45.999z" />
    <glyph glyph-name="g" unicode="g" horiz-adv-x="1445" 
d="M1304 139c0 -92 -13.6719 -178.665 -41.0049 -259.998s-67 -152.5 -119 -213.5s-115.833 -109.333 -191.5 -145s-161.834 -53.5 -258.501 -53.5c-53.333 0 -107.166 6 -161.499 18s-105.666 30.5 -153.999 55.5s-91.666 56.667 -129.999 95s-68.5 83.5 -90.5 135.5
l146 55c12.667 -32.667 29.167 -62.667 49.5 -90s43.833 -50.833 70.5 -70.5s56 -35 88 -46s65.667 -16.5 101 -16.5c66.667 0 122.5 13.667 167.5 41s81.167 63 108.5 107s47 93.833 59 149.5s18 112.167 18 169.5v68c-40 -54.667 -88.167 -95.167 -144.5 -121.5
s-118.166 -39.5 -185.499 -39.5c-88 0 -166.667 15.667 -236 47s-128 74.166 -176 128.499s-84.667 118.166 -110 191.499s-38 152 -38 236s12.667 162.667 38 236s62 137.166 110 191.499s106.667 97.166 176 128.499s148 47 236 47c44.667 0 87.167 -6.66699 127.5 -20
s77.333 -32.166 111 -56.499s63.334 -53.666 89.001 -87.999s45.834 -72.5 60.501 -114.5l150 251h130v-1016zM963.995 580.002c0 30 -1.5 61.6641 -4.5 94.9971s-8.16699 66.333 -15.5 99s-17.5 63.834 -30.5 93.501s-29.667 56 -50 79s-44.833 41.167 -73.5 54.5
s-62 20 -100 20s-71 -6.83301 -99 -20.5s-52 -32 -72 -55s-36.5 -49.5 -49.5 -79.5s-23.167 -61.333 -30.5 -94s-12.5 -65.5 -15.5 -98.5s-4.5 -64.167 -4.5 -93.5s1.5 -60.666 4.5 -93.999s8.16699 -66.333 15.5 -99s17.5 -64 30.5 -94s29.5 -56.5 49.5 -79.5
s44 -41.333 72 -55s61 -20.5 99 -20.5c34.667 0 65.5 7.16699 92.5 21.5s50.667 33.5 71 57.5s37.5 51.333 51.5 82s25.333 62.334 34 95.001s15 65.167 19 97.5s6 61.833 6 88.5z" />
    <glyph glyph-name="h" unicode="h" 
d="M1322 662c0 -78 -9.49707 -159.331 -28.4971 -243.998s-45.5 -167.667 -79.5 -249s-74.667 -157.833 -122 -229.5s-99.333 -133.5 -156 -185.5l-127 69c18 33.333 35 70.666 51 111.999s30.5 85.166 43.5 131.499s24.667 94.166 35 143.499s19 98.166 26 146.499
s12.333 95.333 16 141s5.5 88.167 5.5 127.5c0 26 -1 53.833 -3 83.5s-6.16699 59.334 -12.5 89.001s-14.833 58.167 -25.5 85.5s-24.834 51.333 -42.501 72s-39 37.334 -64 50.001s-54.5 19 -88.5 19c-33.333 0 -63 -7.5 -89 -22.5s-49 -34.667 -69 -59
s-37.167 -52.166 -51.5 -83.499s-26 -63.5 -35 -96.5s-15.5 -65.5 -19.5 -97.5s-6 -60.667 -6 -86v-579h-339v1580h338v-595c43.333 63.333 96.5 112.166 159.5 146.499s132.833 51.5 209.5 51.5c80 0 149.667 -13 209 -39s108.666 -62.167 147.999 -108.5
s68.666 -101.333 87.999 -165s29 -133.167 29 -208.5z" />
    <glyph glyph-name="i" unicode="i" horiz-adv-x="623" 
d="M496 1434c0 -25.333 -4.83301 -49.333 -14.5 -72s-22.834 -42.334 -39.501 -59.001s-36.334 -29.834 -59.001 -39.501s-46.667 -14.5 -72 -14.5s-49.166 4.83301 -71.499 14.5s-41.833 22.834 -58.5 39.501s-29.834 36.334 -39.501 59.001s-14.5 46.667 -14.5 72
s4.83301 49.166 14.5 71.499s22.834 41.833 39.501 58.5s36.167 29.834 58.5 39.501s46.166 14.5 71.499 14.5s49.333 -4.83301 72 -14.5s42.334 -22.834 59.001 -39.501s29.834 -36.167 39.501 -58.5s14.5 -46.166 14.5 -71.499zM481 0h-339v1154h339v-1154z" />
    <glyph glyph-name="j" unicode="j" horiz-adv-x="620" 
d="M498 1434c0 -25.333 -4.83301 -49.333 -14.5 -72s-22.834 -42.334 -39.501 -59.001s-36.167 -29.834 -58.5 -39.501s-46.166 -14.5 -71.499 -14.5s-49.333 4.83301 -72 14.5s-42.334 22.834 -59.001 39.501s-29.834 36.334 -39.501 59.001s-14.5 46.667 -14.5 72
s4.83301 49.166 14.5 71.499s22.834 41.833 39.501 58.5s36.334 29.834 59.001 39.501s46.667 14.5 72 14.5s49.166 -4.83301 71.499 -14.5s41.833 -22.834 58.5 -39.501s29.834 -36.167 39.501 -58.5s14.5 -46.166 14.5 -71.499zM483 334
c0 -79.333 -10.001 -159.832 -30.001 -241.499s-48.167 -160.667 -84.5 -237s-79.666 -148 -129.999 -215s-105.833 -124.833 -166.5 -173.5l-132 80c34 46.667 63.667 99.5 89 158.5s46.5 120.167 63.5 183.5s29.833 127.166 38.5 191.499s13 125.5 13 183.5v891h339v-821z
" />
    <glyph glyph-name="k" unicode="k" horiz-adv-x="1309" 
d="M479 0h-338.002v1580h338v-1037c55.333 40 109.833 84 163.5 132s104.834 98.5 153.501 151.5s93.834 107.167 135.501 162.5s78.167 110.666 109.5 165.999h230c-46.667 -78.667 -102 -157.167 -166 -235.5s-133.667 -153.166 -209 -224.499l379 -695h-373l-269 482
c-50 -34 -101.333 -65.333 -154 -94v-388z" />
    <glyph glyph-name="l" unicode="l" horiz-adv-x="620" 
d="M479 0h-338v1687h130l208 -351v-1336z" />
    <glyph glyph-name="m" unicode="m" horiz-adv-x="2012" 
d="M1928 674c0 -79.333 -9.33301 -161.996 -28 -247.996s-44.834 -169.833 -78.501 -251.5s-74.167 -158.834 -121.5 -231.501s-100 -135.667 -158 -189l-127 69c19.333 34.667 37 73.667 53 117s30.667 89 44 137s25 97.333 35 148s18.5 101.167 25.5 151.5
s12.167 99.166 15.5 146.499s5 91.666 5 132.999c0 23.333 -0.666992 48.666 -2 75.999s-4.16602 54.666 -8.49902 81.999s-10.833 53.5 -19.5 78.5s-20.5 47.333 -35.5 67s-33.667 35.334 -56 47.001s-49.166 17.5 -80.499 17.5c-30.667 0 -56.834 -8.16699 -78.501 -24.5
s-40.167 -37.5 -55.5 -63.5s-27.5 -55.333 -36.5 -88s-15.833 -65.5 -20.5 -98.5s-7.83398 -64.5 -9.50098 -94.5s-2.5 -55.333 -2.5 -76v-579h-337v538c0 23.333 0.333008 51.5 1 84.5s-0.166016 67.5 -2.49902 103.5s-6.66602 71.833 -12.999 107.5s-16.333 67.5 -30 95.5
s-32.167 50.833 -55.5 68.5s-52.666 26.5 -87.999 26.5c-30 0 -55.167 -8.33301 -75.5 -25s-37.333 -38.167 -51 -64.5s-24.334 -56 -32.001 -89s-13.334 -66 -17.001 -99s-5.83398 -64.333 -6.50098 -94s-1 -54.167 -1 -73.5v-579h-339v1155h130l124 -269
c28 93.333 72.167 166.166 132.5 218.499s140.5 78.5 240.5 78.5c90 0 164.667 -18.667 224 -56s106 -98 140 -182c19.333 36.667 40.833 69.667 64.5 99s50 54.333 79 75s61.167 36.5 96.5 47.5s74.333 16.5 117 16.5c78.667 0 145.834 -12.833 201.501 -38.5
s101.167 -61.167 136.5 -106.5s61 -99.166 77 -161.499s24 -129.833 24 -202.5z" />
    <glyph glyph-name="n" unicode="n" 
d="M1322 662c0 -78 -9.49707 -159.333 -28.4971 -244s-45.5 -167.667 -79.5 -249s-74.667 -157.833 -122 -229.5s-99.333 -133.5 -156 -185.5l-127 69c18 33.333 35 70.666 51 111.999s30.5 85.166 43.5 131.499s24.667 94.166 35 143.499s19 98.166 26 146.499
s12.333 95.333 16 141s5.5 88.167 5.5 127.5c0 26 -1 53.833 -3 83.5s-6.16699 59.334 -12.5 89.001s-14.833 58.167 -25.5 85.5s-24.834 51.333 -42.501 72s-39 37.334 -64 50.001s-54.5 19 -88.5 19c-33.333 0 -63 -7.5 -89 -22.5s-49 -34.667 -69 -59
s-37.167 -52.166 -51.5 -83.499s-26 -63.5 -35 -96.5s-15.5 -65.5 -19.5 -97.5s-6 -60.667 -6 -86v-579h-339v1155h130l155 -269c18.667 44.667 42 85.334 70 122.001s59.667 68 95 94s74.5 46 117.5 60s89.5 21 139.5 21c80 0 149.667 -13 209 -39
s108.666 -62.167 147.999 -108.5s68.666 -101.333 87.999 -165s29 -133.167 29 -208.5z" />
    <glyph glyph-name="o" unicode="o" horiz-adv-x="1433" 
d="M1361 580c0 -60 -8 -116.332 -24 -168.999s-38.167 -101.334 -66.5 -146.001s-62.5 -84.834 -102.5 -120.501s-83.833 -65.834 -131.5 -90.501s-98.667 -43.667 -153 -57s-110.166 -20 -167.499 -20s-113 6.66699 -167 20s-104.833 32.333 -152.5 57
s-91.5 54.834 -131.5 90.501s-74.167 75.834 -102.5 120.501s-50.5 93.5 -66.5 146.5s-24 109.167 -24 168.5s8 115.5 24 168.5s38.167 101.833 66.5 146.5s62.5 84.834 102.5 120.501s83.833 65.834 131.5 90.501s98.5 43.667 152.5 57s109.667 20 167 20
s113.166 -6.66699 167.499 -20s105.333 -32.333 153 -57s91.5 -54.834 131.5 -90.501s74.167 -75.834 102.5 -120.501s50.5 -93.5 66.5 -146.5s24 -109.167 24 -168.5zM1017 580.001c0 32 -1.83105 65.833 -5.49805 101.5s-9.83398 70.667 -18.501 105
s-20.5 67.333 -35.5 99s-33.5 59.334 -55.5 83.001s-48.333 42.667 -79 57s-66.334 21.5 -107.001 21.5c-38.667 0 -73 -7.33301 -103 -22s-56.167 -34.167 -78.5 -58.5s-41 -52.5 -56 -84.5s-27.167 -65.167 -36.5 -99.5s-16 -69 -20 -104s-6 -67.833 -6 -98.5
s2 -63.5 6 -98.5s10.667 -69.833 20 -104.5s21.5 -67.834 36.5 -99.501s33.667 -59.667 56 -84s48.5 -43.833 78.5 -58.5s64.333 -22 103 -22c40 0 75.333 7.16699 106 21.5s57.167 33.5 79.5 57.5s40.833 51.667 55.5 83s26.5 64.333 35.5 99s15.333 69.667 19 105
s5.5 69 5.5 101z" />
    <glyph glyph-name="p" unicode="p" horiz-adv-x="1445" 
d="M1369 580c0 -84 -12.6699 -162.669 -38.0029 -236.002s-62 -137.166 -110 -191.499s-106.667 -97.166 -176 -128.499s-148 -47 -236 -47c-67.333 0 -129.166 13.167 -185.499 39.5s-104.5 66.833 -144.5 121.5v-671h-338v1688h130l150 -251
c14.667 42 34.834 80.167 60.501 114.5s55.334 63.666 89.001 87.999s70.667 43.166 111 56.499s82.833 20 127.5 20c88 0 166.667 -15.667 236 -47s128 -74.166 176 -128.499s84.667 -118.166 110 -191.499s38 -152 38 -236zM1026 579.998
c0 29.333 -1.50195 60.5029 -4.50195 93.5029s-8.16699 65.833 -15.5 98.5s-17.5 64 -30.5 94s-29.5 56.5 -49.5 79.5s-44.167 41.333 -72.5 55s-61.166 20.5 -98.499 20.5c-38.667 0 -72.167 -6.66699 -100.5 -20s-52.666 -31.5 -72.999 -54.5s-37 -49.333 -50 -79
s-23.167 -60.834 -30.5 -93.501s-12.5 -65.667 -15.5 -99s-4.5 -65 -4.5 -95c0 -26.667 2 -56.167 6 -88.5s10.333 -64.833 19 -97.5s20 -64.334 34 -95.001s31.167 -58 51.5 -82s44 -43.167 71 -57.5s57.833 -21.5 92.5 -21.5c38 0 71 6.83301 99 20.5s52 32 72 55
s36.5 49.5 49.5 79.5s23.167 61.333 30.5 94s12.5 65.667 15.5 99s4.5 64.666 4.5 93.999z" />
    <glyph glyph-name="q" unicode="q" horiz-adv-x="1445" 
d="M1304 -533l-338.003 0.00195312v671c-40 -54.667 -88.167 -95.167 -144.5 -121.5s-118.166 -39.5 -185.499 -39.5c-88 0 -166.667 15.667 -236 47s-128 74.166 -176 128.499s-84.667 118.166 -110 191.499s-38 152 -38 236s12.667 162.667 38 236s62 137.166 110 191.499
s106.667 97.166 176 128.499s148 47 236 47c44.667 0 87.167 -6.66699 127.5 -20s77.333 -32.166 111 -56.499s63.334 -53.666 89.001 -87.999s45.834 -72.5 60.501 -114.5l150 251h130v-1688zM963.997 580.002c0 30 -1.5 61.6641 -4.5 94.9971s-8.16699 66.333 -15.5 99
s-17.5 63.834 -30.5 93.501s-29.667 56 -50 79s-44.833 41.167 -73.5 54.5s-62 20 -100 20s-71 -6.83301 -99 -20.5s-52 -32 -72 -55s-36.5 -49.5 -49.5 -79.5s-23.167 -61.333 -30.5 -94s-12.5 -65.5 -15.5 -98.5s-4.5 -64.167 -4.5 -93.5s1.5 -60.666 4.5 -93.999
s8.16699 -66.333 15.5 -99s17.5 -64 30.5 -94s29.5 -56.5 49.5 -79.5s44 -41.333 72 -55s61 -20.5 99 -20.5c34.667 0 65.5 7.16699 92.5 21.5s50.667 33.5 71 57.5s37.5 51.333 51.5 82s25.333 62.334 34 95.001s15 65.167 19 97.5s6 61.833 6 88.5z" />
    <glyph glyph-name="r" unicode="r" horiz-adv-x="1123" 
d="M1123 1053l-189.999 -314.999c-8 26.667 -18.333 56.667 -31 90s-28.334 64.5 -47.001 93.5s-41 53.333 -67 73s-56 29.5 -90 29.5c-31.333 0 -58.5 -8 -81.5 -24s-42.5 -36.833 -58.5 -62.5s-29.167 -54.667 -39.5 -87s-18.333 -65 -24 -98s-9.5 -64.667 -11.5 -95
s-3 -56.5 -3 -78.5v-579h-339v1155h130l137 -269c18.667 43.333 40 83.166 64 119.499s51.667 67.666 83 93.999s66.833 46.833 106.5 61.5s84.5 22 134.5 22c26 0 55 -2.16699 87 -6.5s63.333 -11.666 94 -21.999s59 -23.833 85 -40.5s46.333 -37 61 -61z" />
    <glyph glyph-name="s" unicode="s" horiz-adv-x="1207" 
d="M1135 369c0 -50.667 -7.32812 -95.667 -21.9951 -135s-34.667 -73.5 -60 -102.5s-55.333 -53.333 -90 -73s-71.834 -35.5 -111.501 -47.5s-81.167 -20.667 -124.5 -26s-86.333 -8 -129 -8c-57.333 0 -108 3.66699 -152 11s-86 19.166 -126 35.499
s-79.833 37.5 -119.5 63.5s-83.834 57.667 -132.501 95l197 161c18 -34 41.833 -64.833 71.5 -92.5s60.5 -51.5 92.5 -71.5s63 -35.333 93 -46s54.333 -16 73 -16c15.333 0 32.666 0.5 51.999 1.5s39 3 59 6s39.667 7.5 59 13.5s36.5 14.167 51.5 24.5s27 23.333 36 39
s13.5 34.5 13.5 56.5c0 22.667 -5.83301 42.5 -17.5 59.5s-26.834 31.833 -45.501 44.5s-40 23.334 -64 32.001s-48.167 16.334 -72.5 23.001s-47.833 12.5 -70.5 17.5s-42.334 9.83301 -59.001 14.5l-97 26.5c-34 9 -67.667 19.333 -101 31s-65.166 25.5 -95.499 41.5
s-57 35.167 -80 57.5s-41.333 48.666 -55 78.999s-20.5 65.833 -20.5 106.5c0 74.667 14.833 137.167 44.5 187.5s68.834 90.666 117.501 120.999s104 51.833 166 64.5s125 19 189 19c44 0 90.333 -4.5 139 -13.5s96 -22.333 142 -40s89 -39.167 129 -64.5
s73.333 -54.333 100 -87l-197 -162c-14.667 40 -33.834 74.333 -57.501 103s-49.334 52.167 -77.001 70.5s-56 31.833 -85 40.5s-55.833 13 -80.5 13c-24 0 -51 -1 -81 -3s-58.167 -7.66699 -84.5 -17s-48.666 -23.5 -66.999 -42.5s-27.5 -45.167 -27.5 -78.5
c0 -24 5.5 -44.5 16.5 -61.5s25.5 -31.667 43.5 -44s38.5 -22.666 61.5 -30.999s46.5 -15.666 70.5 -21.999s47.333 -11.833 70 -16.5s43 -9.66699 61 -15l97.5 -26.5c34.333 -9 68.166 -19.333 101.499 -31s65.5 -25.334 96.5 -41.001s58.167 -34.834 81.5 -57.501
s42 -49.167 56 -79.5s21 -66.166 21 -107.499z" />
    <glyph glyph-name="t" unicode="t" horiz-adv-x="942" 
d="M576 0h-339v1021h-210v134h210v425h339v-425h350v-134h-350v-1021z" />
    <glyph glyph-name="u" unicode="u" 
d="M82 494c0 52.667 4.49902 107.333 13.499 164s22 113.334 39 170.001s37.5 112.667 61.5 168s51 108.333 81 159h247c-16.667 -50 -31.5 -102.167 -44.5 -156.5s-24 -108.666 -33 -162.999s-16 -107.5 -21 -159.5s-7.5 -100.333 -7.5 -145
c0 -26 1.16699 -53.833 3.5 -83.5s6.5 -59.334 12.5 -89.001s14.5 -58.167 25.5 -85.5s25.167 -51.5 42.5 -72.5s38.5 -37.667 63.5 -50s54.5 -18.5 88.5 -18.5c33.333 0 63.166 7.5 89.499 22.5s49.5 34.667 69.5 59s37 52.166 51 83.499s25.5 63.5 34.5 96.5
s15.667 65.333 20 97s6.5 60.167 6.5 85.5v579h338v-1155h-130l-155 269c-19.333 -44.667 -42.833 -85.167 -70.5 -121.5s-59.167 -67.5 -94.5 -93.5s-74.5 -46 -117.5 -60s-89.5 -21 -139.5 -21c-80 0 -149.667 13 -209 39s-108.666 62 -147.999 108
s-68.666 100.833 -87.999 164.5s-29 133.5 -29 209.5z" />
    <glyph glyph-name="v" unicode="v" horiz-adv-x="1192" 
d="M735 0h-304l-420 1155h338l308 -920l299 920h234z" />
    <glyph glyph-name="w" unicode="w" horiz-adv-x="1730" 
d="M671 0h-304l-316 1155h338l198 -810l165 810h304l202 -832l195 832h234l-350 -1155h-304l-171 702z" />
    <glyph glyph-name="x" unicode="x" horiz-adv-x="1177" 
d="M1162 0h-338l-283 405l-289 -405h-234l435 532l-435 623h338l274 -392l298 392h234l-444 -518z" />
    <glyph glyph-name="y" unicode="y" horiz-adv-x="1175" 
d="M1175 1155l-420 -1016c-48 -116 -101.5 -230.833 -160.5 -344.5s-122.833 -222.834 -191.5 -327.501l-132 80l59 104l67 122c22 42 42.333 83.5 61 124.5s33 78.5 43 112.5l-505 1145h338l343 -781l264 781h234z" />
    <glyph glyph-name="z" unicode="z" horiz-adv-x="1132" 
d="M1056 0h-978v134v0l605 887h-605v134h978v-134l-605 -887h605v-134z" />
    <glyph glyph-name="braceleft" unicode="{" horiz-adv-x="886" 
d="M817 -207l-169.999 0.00390625c-80 0 -145.167 5.83301 -195.5 17.5s-89.666 32.5 -117.999 62.5s-47.666 70.5 -57.999 121.5s-15.5 116.167 -15.5 195.5v166c0 34 -4.83301 64.667 -14.5 92s-23 52.166 -40 74.499s-37.5 42.166 -61.5 59.499s-50.333 33 -79 47v159
c28.667 14 55 29.667 79 47s44.5 37 61.5 59s30.333 46.5 40 73.5s14.5 57.5 14.5 91.5v180c0 78.667 5.16699 143.667 15.5 195s29.666 91.666 57.999 120.999s67.666 49.833 117.999 61.5s115.5 17.5 195.5 17.5h170v-172c-38 -8 -70.333 -15.5 -97 -22.5
s-48.667 -17.5 -66 -31.5s-30 -33.333 -38 -58s-12 -59 -12 -103v-145c0 -52.667 -5.83301 -103.334 -17.5 -152.001s-30.5 -91.167 -56.5 -127.5s-60 -65 -102 -86s-93.333 -30.167 -154 -27.5c63.333 -1.33301 116.166 -12 158.499 -32s76.166 -47.5 101.499 -82.5
s43.333 -76.333 54 -124s16 -99.5 16 -155.5v-135c0 -50.667 3 -89.667 9 -117s17 -47.833 33 -61.5s37.833 -23 65.5 -28s62.834 -10.5 105.501 -16.5v-164z" />
    <glyph glyph-name="bar" unicode="|" horiz-adv-x="618" 
d="M458 -205h-297v1843h297v-1843z" />
    <glyph glyph-name="braceright" unicode="}" horiz-adv-x="885" 
d="M820 629c-28.667 -14 -54.999 -29.6709 -78.999 -47.0039s-44.5 -37.166 -61.5 -59.499s-30.167 -47.166 -39.5 -74.499s-14 -58 -14 -92v-166c0 -79.333 -5.16699 -144.5 -15.5 -195.5s-29.833 -91.5 -58.5 -121.5s-68 -50.833 -118 -62.5s-115 -17.5 -195 -17.5h-170
v164c42.667 6 77.834 11.5 105.501 16.5s49.5 14.333 65.5 28s27 34.167 33 61.5s9 66.333 9 117v135c0 56 5.16699 107.833 15.5 155.5s28.166 89 53.499 124s59.166 62.5 101.499 82.5s95.166 30.667 158.499 32c-60.667 -2.66699 -112 6.5 -154 27.5s-76 49.667 -102 86
s-44.667 78.833 -56 127.5s-17 99.334 -17 152.001v145c0 44 -4 78.333 -12 103s-20.667 44 -38 58s-39.333 24.5 -66 31.5s-59 14.5 -97 22.5v172h170c80 0 145 -5.83301 195 -17.5s89.333 -32.167 118 -61.5s48.167 -69.666 58.5 -120.999s15.5 -116.333 15.5 -195v-180
c0 -34 4.83301 -64.5 14.5 -91.5s23 -51.5 40 -73.5s37.333 -41.667 61 -59s49.834 -33 78.501 -47v-159z" />
    <glyph glyph-name="asciitilde" unicode="~" horiz-adv-x="1100" 
d="M981 868c0 -36 -5.33398 -74.165 -16.001 -114.498s-26.834 -77.5 -48.501 -111.5s-48.667 -62.167 -81 -84.5s-69.833 -33.5 -112.5 -33.5c-43.333 0 -82.166 5.5 -116.499 16.5s-65.333 23.333 -93 37l-75.5 37c-22.667 11 -44 16.5 -64 16.5
c-13.333 0 -24.5 -3.5 -33.5 -10.5s-16.167 -15.833 -21.5 -26.5s-9.33301 -22.334 -12 -35.001s-4 -24.334 -4 -35.001h-178c0 38 5.33301 77.333 16 118s27 77.834 49 111.501s49.5 61.167 82.5 82.5s71.833 32 116.5 32c40 0 76.833 -5.33301 110.5 -16
s64.5 -22.334 92.5 -35.001l75.5 -35c22.333 -10.667 42.166 -16 59.499 -16c12.667 0 23.5 3.33301 32.5 10s16.333 15.167 22 25.5s9.83398 21.5 12.501 33.5s4.33398 23 5.00098 33h182z" />
    <glyph glyph-name="nonbreakingspace" unicode="&#xa0;" horiz-adv-x="580" 
 />
    <glyph glyph-name="exclamdown" unicode="&#xa1;" horiz-adv-x="667" 
d="M516 1308c0 -25.333 -4.83301 -49.166 -14.5 -71.499s-22.667 -41.666 -39 -57.999s-35.666 -29.333 -57.999 -39s-45.833 -14.5 -70.5 -14.5c-25.333 0 -49.166 4.83301 -71.499 14.5s-41.666 22.667 -57.999 39s-29.333 35.666 -39 57.999s-14.5 46.166 -14.5 71.499
c0 24.667 4.83301 48.167 14.5 70.5s22.667 41.666 39 57.999s35.666 29.333 57.999 39s46.166 14.5 71.499 14.5c24.667 0 48.167 -4.83301 70.5 -14.5s41.666 -22.667 57.999 -39s29.333 -35.666 39 -57.999s14.5 -45.833 14.5 -70.5zM548 -83h-428l111 1145h205z" />
    <glyph glyph-name="cent" unicode="&#xa2;" horiz-adv-x="1036" 
d="M402 421l175 638c-42 -6 -78.667 -21.167 -110 -45.5s-57.5 -53.833 -78.5 -88.5s-36.667 -72.667 -47 -114s-15.5 -82 -15.5 -122c0 -48 6 -95.667 18 -143s31.333 -89 58 -125zM821 1469l-89.999 -330c50.667 -19.333 96 -47 136 -83s70.333 -81.333 91 -136l-110 -46
c-12 40 -30 74.667 -54 104s-53.333 51.333 -88 66l-194 -709c30 -12 63.667 -18 101 -18c27.333 0 53.166 4.5 77.499 13.5s46.5 21.5 66.5 37.5s37.333 34.833 52 56.5s26.667 45.167 36 70.5l110 -44c-16 -40.667 -38.167 -76.167 -66.5 -106.5s-60.5 -55.5 -96.5 -75.5
s-74.5 -35 -115.5 -45s-82.5 -15 -124.5 -15c-12.667 0 -25 0.333008 -37 1s-24 2 -36 4l-66 -243h-133l75 277c-42.667 18 -81.667 41.667 -117 71s-65.5 63 -90.5 101s-44.5 79.667 -58.5 125s-21 93.333 -21 144c0 68 12.5 131.333 37.5 190s59.167 109.5 102.5 152.5
s94.5 76.833 153.5 101.5s122.5 37 190.5 37c9.33301 0 18.333 -0.166992 27 -0.5s17.667 -0.833008 27 -1.5l82 301h133z" />
    <glyph glyph-name="sterling" unicode="&#xa3;" horiz-adv-x="1166" 
d="M901 596l-359.003 0.00292969v-300h509v-147h-827v447h-151v147h151v59c0 84.667 11.667 160.334 35 227.001s56.5 123.167 99.5 169.5s95 81.666 156 105.999s128.833 36.5 203.5 36.5c14 0 30.833 -1.33301 50.5 -4s40.667 -6.33398 63 -11.001s45 -10.167 68 -16.5
s44.833 -13.333 65.5 -21s39.334 -15.834 56.001 -24.501s29.667 -17.334 39 -26.001l-153 -253c-6 21.333 -14.167 45.333 -24.5 72s-23 51.667 -38 75s-32.667 42.833 -53 58.5s-44.166 23.5 -71.499 23.5c-37.333 0 -67.666 -10.5 -90.999 -31.5s-41.5 -50 -54.5 -87
s-21.667 -80.5 -26 -130.5s-6.5 -104.333 -6.5 -163v-59h359v-147z" />
    <glyph glyph-name="currency" unicode="&#xa4;" horiz-adv-x="893" 
d="M565 738c0 15.333 -3.00098 29.834 -9.00098 43.501s-14.167 25.667 -24.5 36s-22.333 18.5 -36 24.5s-28.167 9 -43.5 9s-29.666 -3 -42.999 -9s-25 -14.167 -35 -24.5s-18 -22.333 -24 -36s-9 -28.167 -9 -43.5s2.83301 -29.833 8.5 -43.5s13.5 -25.834 23.5 -36.501
s21.833 -19 35.5 -25s28.167 -9 43.5 -9s29.833 3 43.5 9s25.667 14.167 36 24.5s18.5 22.5 24.5 36.5s9 28.667 9 44zM704.999 396.001l-141.001 141.005c-34 -18.667 -70.667 -28 -110 -28c-21.333 0 -41.5 2.66699 -60.5 8s-36.833 12.666 -53.5 21.999l-153 -152l-87 88
l155 155c-17.333 31.333 -26 66.666 -26 105.999c0 38.667 9.33301 75 28 109l-142 142l88 87l140 -141c16.667 9.33301 34.334 16.666 53.001 21.999s38 8 58 8c19.333 0 38 -2.33301 56 -7s35 -11.334 51 -20.001l129 129l88 -88l-128 -128c20.667 -34 31 -71.667 31 -113
c0 -20 -2.5 -39.333 -7.5 -58s-12.167 -36.334 -21.5 -53.001l141 -141z" />
    <glyph glyph-name="yen" unicode="&#xa5;" horiz-adv-x="1180" 
d="M1005 527h-253v-383h-318v383h-258v147h223l-342 622h324l250 -579l269 579h224l-346 -622h227v-147z" />
    <glyph glyph-name="brokenbar" unicode="&#xa6;" horiz-adv-x="625" 
d="M461 803h-297v835h297v-835zM461 -205h-297v836h297v-836z" />
    <glyph glyph-name="section" unicode="&#xa7;" horiz-adv-x="1269" 
d="M1163 269c0 -50.667 -7.33496 -95.6748 -22.002 -135.008s-34.834 -73.5 -60.501 -102.5s-55.667 -53.333 -90 -73s-71.5 -35.5 -111.5 -47.5s-81.5 -20.667 -124.5 -26s-85.833 -8 -128.5 -8c-59.333 0 -111.666 4 -156.999 12s-88 20.333 -128 37
s-79.333 37.834 -118 63.501s-81 56.5 -127 92.5l197 161c12.667 -24 31.667 -49.333 57 -76s53.5 -51.167 84.5 -73.5s63.167 -40.666 96.5 -54.999s64 -21.5 92 -21.5c24 0 51.5 1.16699 82.5 3.5s60.5 8.33301 88.5 18s51.667 23.834 71 42.501s29 44.334 29 77.001
c0 32 -11.167 58.5 -33.5 79.5s-51.666 38.833 -87.999 53.5s-77.833 27.667 -124.5 39l-143 35.5c-48.667 12.333 -96.334 26.5 -143.001 42.5s-88.167 36.333 -124.5 61s-65.666 54.834 -87.999 90.501s-33.5 79.5 -33.5 131.5s8.83301 100.167 26.5 144.5
s46.5 83.833 86.5 118.5c-75.333 54 -113 126.333 -113 217c0 50 6.83301 94.333 20.5 133s32.5 72.5 56.5 101.5s52.5 53.5 85.5 73.5s68.667 36.167 107 48.5s78.5 21.333 120.5 27s84.333 8.5 127 8.5c42 0 87.167 -4.33301 135.5 -13s95.666 -21.667 141.999 -39
s89.833 -38.666 130.5 -63.999s74.667 -55 102 -89l-197 -162c-11.333 30.667 -27 59.834 -47 87.501s-43 51.834 -69 72.501s-54.667 37 -86 49s-64 18 -98 18c-24 0 -51.167 -1.16699 -81.5 -3.5s-58.666 -8.16602 -84.999 -17.499s-48.5 -23.333 -66.5 -42
s-27 -44.667 -27 -78c0 -23.333 5.66699 -43.666 17 -60.999s26.166 -32.333 44.499 -45s39 -23.334 62 -32.001s46.5 -16 70.5 -22s47.333 -11.333 70 -16s42.334 -9.33398 59.001 -14.001l97.5 -26.5c34.333 -9 68.333 -19.333 102 -31s65.834 -25.5 96.501 -41.5
s57.667 -35.333 81 -58s42 -49.167 56 -79.5s21 -65.833 21 -106.5c0 -52 -8.5 -100.5 -25.5 -145.5s-45.167 -85.167 -84.5 -120.5c73.333 -52 110 -123.333 110 -214zM893.998 637.992c0 22.667 -5.83398 42.5 -17.501 59.5s-27 31.833 -46 44.5s-40.333 23.5 -64 32.5
s-47.667 16.833 -72 23.5s-47.833 12.334 -70.5 17.001s-42.334 9.33398 -59.001 14.001l-79.5 21.5c-26.333 7 -52.5 14.5 -78.5 22.5c-7.33301 -10 -12.666 -21.167 -15.999 -33.5s-5 -24.833 -5 -37.5c0 -24 5.66699 -44.5 17 -61.5s26 -31.833 44 -44.5
s38.667 -23.334 62 -32.001s47 -16 71 -22s47.333 -11.333 70 -16s42.334 -9.33398 59.001 -14.001l81 -22l80 -23c16 20 24 43.667 24 71z" />
    <glyph glyph-name="dieresis" unicode="&#xa8;" horiz-adv-x="672" 
d="M672 1257c0 -20 -3.83301 -39 -11.5 -57s-18.167 -33.667 -31.5 -47s-29 -23.833 -47 -31.5s-37.333 -11.5 -58 -11.5c-20 0 -39 3.83301 -57 11.5s-33.667 18.167 -47 31.5s-23.833 29 -31.5 47s-11.5 37 -11.5 57s3.83301 39 11.5 57s18.167 33.667 31.5 47
s29 23.833 47 31.5s37 11.5 57 11.5c20.667 0 40 -3.83301 58 -11.5s33.667 -18.167 47 -31.5s23.833 -29 31.5 -47s11.5 -37 11.5 -57zM295 1257c0 -20 -3.83301 -39 -11.5 -57s-18.167 -33.667 -31.5 -47s-29 -23.833 -47 -31.5s-37.333 -11.5 -58 -11.5
c-20 0 -39 3.83301 -57 11.5s-33.667 18.167 -47 31.5s-23.833 29 -31.5 47s-11.5 37 -11.5 57s3.83301 39 11.5 57s18.167 33.667 31.5 47s29 23.833 47 31.5s37 11.5 57 11.5c20.667 0 40 -3.83301 58 -11.5s33.667 -18.167 47 -31.5s23.833 -29 31.5 -47
s11.5 -37 11.5 -57z" />
    <glyph glyph-name="copyright" unicode="&#xa9;" horiz-adv-x="751" 
d="M641 726c0 -36.667 -7 -71.167 -21 -103.5s-33 -60.5 -57 -84.5s-52 -43 -84 -57s-66.333 -21 -103 -21s-71.167 7 -103.5 21s-60.5 33 -84.5 57s-43 52.167 -57 84.5s-21 66.833 -21 103.5s7 71.167 21 103.5s33 60.5 57 84.5s52.167 43 84.5 57s66.833 21 103.5 21
s71 -7 103 -21s60 -33 84 -57s43 -52.167 57 -84.5s21 -66.833 21 -103.5zM601 725c0 30.667 -5.83301 59.667 -17.5 87s-27.834 51.166 -48.501 71.499s-44.667 36.333 -72 48s-56.333 17.5 -87 17.5c-31.333 0 -60.5 -5.83301 -87.5 -17.5s-50.667 -27.667 -71 -48
s-36.333 -44.166 -48 -71.499s-17.5 -56.333 -17.5 -87c0 -31.333 5.83301 -60.5 17.5 -87.5s27.667 -50.833 48 -71.5s44 -36.834 71 -48.501s56.167 -17.5 87.5 -17.5c30.667 0 59.667 5.83301 87 17.5s51.333 27.834 72 48.501s36.834 44.5 48.501 71.5
s17.5 56.167 17.5 87.5zM537 814l-42.9961 -18.001c-6.66699 21.333 -17.834 38.833 -33.501 52.5s-35.167 20.5 -58.5 20.5c-18.667 0 -35 -4.5 -49 -13.5s-25.667 -20.5 -35 -34.5s-16.333 -29.5 -21 -46.5s-7 -33.833 -7 -50.5c0 -17.333 2 -34.666 6 -51.999
s10.5 -32.833 19.5 -46.5s20.667 -24.834 35 -33.501s31.5 -13 51.5 -13c21.333 0 39.833 6.66699 55.5 20s27.167 29.666 34.5 48.999l43 -17c-12.667 -32 -33.834 -55.833 -63.501 -71.5s-60.834 -23.5 -93.501 -23.5c-26.667 0 -51.5 4.83301 -74.5 14.5s-43 23 -60 40
s-30.333 36.833 -40 59.5s-14.5 47.334 -14.5 74.001s4.83301 51.5 14.5 74.5s23 42.833 40 59.5s37 29.834 60 39.501s47.833 14.5 74.5 14.5c34 0 65.667 -8 95 -24s50.666 -40.667 63.999 -74z" />
    <glyph glyph-name="ordfeminine" unicode="&#xaa;" horiz-adv-x="1192" 
d="M1015 612l-245.004 0.000976562v86c-28 -34.667 -61 -60.334 -99 -77.001s-79.333 -25 -124 -25c-61.333 0 -116.166 11 -164.499 33s-89.333 52 -123 90s-59.5 82.667 -77.5 134s-27 106.333 -27 165s8.83301 113.667 26.5 165s43.334 96 77.001 134
s74.834 68 123.501 90s103.667 33 165 33c30.667 0 59.834 -4.5 87.501 -13.5s53.167 -21.5 76.5 -37.5s44 -35.5 62 -58.5s32.667 -48.5 44 -76.5l100 167h98v-809zM768.996 1018c0 31.333 -2.33301 64.499 -7 99.499s-13.834 67.333 -27.501 97s-32.5 54.334 -56.5 74.001
s-55 29.5 -93 29.5s-68.833 -9.83301 -92.5 -29.5s-42.167 -44.5 -55.5 -74.5s-22.5 -62.5 -27.5 -97.5s-7.5 -67.833 -7.5 -98.5s2.33301 -63.5 7 -98.5s13.834 -67.5 27.501 -97.5s32.334 -54.833 56.001 -74.5s54.5 -29.5 92.5 -29.5c22.667 0 43.167 4.83301 61.5 14.5
s34.166 22.5 47.499 38.5s24.833 34.5 34.5 55.5s17.5 42.5 23.5 64.5s10.333 44 13 66s4 42.333 4 61zM1015 299h-860v184h860v-184z" />
    <glyph glyph-name="guillemotleft" unicode="&#xab;" horiz-adv-x="1412" 
d="M688 952v-209l-378 -160v-13l378 -174v-196l-614 307v140zM1268 952v-209l-378 -160v-13l378 -174v-196l-614 307v140z" />
    <glyph glyph-name="logicalnot" unicode="&#xac;" horiz-adv-x="1129" 
d="M976 369h-207v260h-629v184h836v-444z" />
    <glyph glyph-name="uni00AD" unicode="&#xad;" horiz-adv-x="1282" 
d="M1141 629h-1000v184h1000v-184z" />
    <glyph glyph-name="registered" unicode="&#xae;" horiz-adv-x="735" 
d="M418 1246c0 46.667 -23.333 70 -70 70h-35v-156h35c25.333 0 43.333 8.66699 54 26s16 37.333 16 60zM633 1174c0 -36.667 -7 -71 -21 -103s-33 -60 -57 -84s-52 -43 -84 -57s-66.333 -21 -103 -21s-71.167 7 -103.5 21s-60.5 33 -84.5 57s-43 52 -57 84
s-21 66.333 -21 103s7 71.167 21 103.5s33 60.5 57 84.5s52.167 43 84.5 57s66.833 21 103.5 21s71 -7 103 -21s60 -33 84 -57s43 -52.167 57 -84.5s21 -66.833 21 -103.5zM237 991c18.667 -13.333 39.001 -23.665 61.001 -30.998s45.333 -11 70 -11s48.167 3.66699 70.5 11
s42.833 17.666 61.5 30.999h-87c-10.667 9.33301 -20.334 20.666 -29.001 33.999c-7.33301 11.333 -15 25.5 -23 42.5s-14 36.5 -18 58.5h-30v-135h-76zM214.001 1336c-21.333 -20.667 -38.333 -44.999 -51 -72.999s-19 -58 -19 -90s6.33301 -61.833 19 -89.5
s29.667 -51.834 51 -72.501v325zM593.001 1173c0 30.667 -5.83594 59.667 -17.5029 87s-27.834 51.333 -48.501 72s-44.667 36.834 -72 48.501s-56.333 17.5 -87 17.5c-25.333 0 -49.666 -4 -72.999 -12s-44.666 -19.667 -63.999 -35h160c16.667 0 32.667 -1.83301 48 -5.5
s29 -9.83398 41 -18.501s21.5 -19.667 28.5 -33s10.5 -29.333 10.5 -48c0 -15.333 -3.16699 -29.5 -9.5 -42.5s-14.666 -24.5 -24.999 -34.5s-22.166 -18.5 -35.499 -25.5s-27.333 -11.5 -42 -13.5c8.66699 -15.333 18 -29.5 28 -42.5s20 -24.667 30 -35
s19.5 -19.5 28.5 -27.5s16.833 -14.667 23.5 -20c23.333 21.333 41.833 46.333 55.5 75s20.5 59.667 20.5 93z" />
    <glyph glyph-name="macron" unicode="&#xaf;" horiz-adv-x="545" 
d="M545 1142h-545v198h545v-198z" />
    <glyph glyph-name="degree" unicode="&#xb0;" horiz-adv-x="638" 
d="M545 1239c0 -31.333 -6 -60.835 -18 -88.502s-28.167 -51.667 -48.5 -72s-44.333 -36.5 -72 -48.5s-57.167 -18 -88.5 -18s-60.666 6 -87.999 18s-51.166 28.167 -71.499 48.5s-36.333 44.333 -48 72s-17.5 57.167 -17.5 88.5c0 30.667 5.83301 59.834 17.5 87.501
s27.667 51.834 48 72.501s44.166 37 71.499 49s56.666 18 87.999 18s60.833 -6 88.5 -18s51.667 -28.167 72 -48.5s36.5 -44.333 48.5 -72s18 -57.167 18 -88.5zM402 1239c0 22.667 -8.33105 42.3359 -24.998 59.0029s-36.334 25 -59.001 25s-42 -8.33301 -58 -25
s-24 -36.334 -24 -59.001s7.83301 -42.334 23.5 -59.001s35.167 -25 58.5 -25s43.166 8.16699 59.499 24.5s24.5 36.166 24.5 59.499z" />
    <glyph glyph-name="plusminus" unicode="&#xb1;" horiz-adv-x="1081" 
d="M958 629h-269v-308h-297v308h-269v184h269v293h297v-293h269v-184zM958 0h-835v184h835v-184z" />
    <glyph glyph-name="twosuperior" unicode="&#xb2;" horiz-adv-x="878" 
d="M122 736c8.66699 54 21.6699 99.002 39.0029 135.002s37 65.667 59 89s45.5 41.5 70.5 54.5s50.167 24.167 75.5 33.5c20 6.66699 40.667 13.167 62 19.5s40.833 14.5 58.5 24.5s32.167 23 43.5 39s17 37.333 17 64c0 36 -11.333 63.167 -34 81.5
s-51.334 27.5 -86.001 27.5s-64.667 -12.833 -90 -38.5s-43.666 -62.834 -54.999 -111.501l-153 85c13.333 27.333 31.666 51 54.999 71s49 36.5 77 49.5s56.833 22.5 86.5 28.5s57.5 9 83.5 9c37.333 0 74.333 -2.5 111 -7.5s69.5 -15.167 98.5 -30.5
s52.5 -36.833 70.5 -64.5s27 -63.834 27 -108.501c0 -42 -8.33301 -75.333 -25 -100s-38 -44.334 -64 -59.001s-54.833 -26.5 -86.5 -35.5s-62.834 -18.833 -93.501 -29.5c-33.333 -11.333 -62.333 -26.166 -87 -44.499s-41.334 -45.5 -50.001 -81.5h406v-100h-616z" />
    <glyph glyph-name="threesuperior" unicode="&#xb3;" horiz-adv-x="822" 
d="M400 725c-26 0 -54.6631 3.00293 -85.9961 9.00293s-61.666 15.5 -90.999 28.5s-56.333 29.667 -81 50s-44 44.5 -58 72.5l178 85c0 -22.667 3.83301 -43.334 11.5 -62.001s18 -34.5 31 -47.5s27.833 -23.167 44.5 -30.5s33.667 -11 51 -11s34 2.5 50 7.5
s30.167 12.333 42.5 22s22.166 21.5 29.499 35.5s11 30 11 48c0 40 -12.667 69 -38 87s-57 27 -95 27h-95v93h95c26 0 48.833 6.66699 68.5 20s29.5 32.666 29.5 57.999c0 28.667 -9 48.667 -27 60s-41.667 17 -71 17c-14 0 -27.333 -1.83301 -40 -5.5
s-23.667 -9.5 -33 -17.5s-16.833 -18.5 -22.5 -31.5s-8.5 -28.5 -8.5 -46.5l-148 109c14.667 18 32.5 33.167 53.5 45.5s43 22.166 66 29.499s46 12.5 69 15.5s44.167 4.5 63.5 4.5c25.333 0 53.666 -2.16699 84.999 -6.5s60.666 -12.833 87.999 -25.5
s50.333 -30.167 69 -52.5s28 -51.5 28 -87.5c0 -24.667 -8.33301 -47.667 -25 -69s-35.667 -38.333 -57 -51c18.667 -6 36.167 -14.5 52.5 -25.5s30.666 -23.833 42.999 -38.5s22.166 -31.167 29.499 -49.5s11 -38.166 11 -59.499c0 -45.333 -10.833 -81.5 -32.5 -108.5
s-48.667 -47.833 -81 -62.5s-67.5 -24.334 -105.5 -29.001s-73 -7 -105 -7z" />
    <glyph glyph-name="acute" unicode="&#xb4;" horiz-adv-x="516" 
d="M516 1440l-317 -354h-199l198 354h318z" />
    <glyph glyph-name="mu" unicode="&#xb5;" horiz-adv-x="1479" 
d="M519 -397l-336.996 0.000976562v1552h337v-676c0 -41.333 2.66699 -82.666 8 -123.999s16.166 -78.5 32.499 -111.5s39.666 -59.833 69.999 -80.5s70.833 -31 121.5 -31c33.333 0 63.166 7.5 89.499 22.5s49.5 34.667 69.5 59s37.167 52.166 51.5 83.499s26 63.5 35 96.5
s15.5 65.333 19.5 97s6 60.167 6 85.5v579h339v-1155h-130l-155 269c-19.333 -44.667 -41.166 -85.5 -65.499 -122.5s-51.833 -68.5 -82.5 -94.5s-64.5 -46 -101.5 -60s-77.833 -20.333 -122.5 -19c-20 0 -39.833 2.16699 -59.5 6.5s-37.834 9.33301 -54.501 15
s-31.334 11.667 -44.001 18s-21.667 12.166 -27 17.499v-427z" />
    <glyph glyph-name="paragraph" unicode="&#xb6;" horiz-adv-x="1680" 
d="M1016 0h-336v538h-100c-43.333 0 -86.166 5 -128.499 15s-82.5 24.333 -120.5 43s-73.167 41.667 -105.5 69s-60.333 58 -84 92s-42.167 71.5 -55.5 112.5s-20 84.833 -20 131.5c0 74 14.167 138.5 42.5 193.5s66.166 100.667 113.499 137s102 63.5 164 81.5
s126.667 27 194 27h884v-1440h-338v1256h-110v-1256z" />
    <glyph glyph-name="periodcentered" unicode="&#xb7;" horiz-adv-x="601" 
d="M483 702c0 -25.333 -4.83301 -49 -14.5 -71s-22.667 -41.167 -39 -57.5s-35.666 -29.333 -57.999 -39s-45.833 -14.5 -70.5 -14.5c-25.333 0 -49.166 4.83301 -71.499 14.5s-41.666 22.667 -57.999 39s-29.333 35.5 -39 57.5s-14.5 45.667 -14.5 71
s4.83301 49.166 14.5 71.499s22.667 41.666 39 57.999s35.666 29.333 57.999 39s46.166 14.5 71.499 14.5c24.667 0 48.167 -4.83301 70.5 -14.5s41.666 -22.667 57.999 -39s29.333 -35.666 39 -57.999s14.5 -46.166 14.5 -71.499z" />
    <glyph glyph-name="cedilla" unicode="&#xb8;" horiz-adv-x="426" 
d="M426 -207c0 -35.333 -5.99902 -66 -17.999 -92s-28.5 -47.833 -49.5 -65.5s-45.833 -30.834 -74.5 -39.501s-59.334 -13 -92.001 -13c-26.667 0 -51.667 5.16699 -75 15.5s-43.666 24.166 -60.999 41.499s-31 37.833 -41 61.5s-15 48.834 -15 75.501h113
c0.666992 -19.333 9.16699 -33.833 25.5 -43.5s32.833 -14.5 49.5 -14.5c27.333 0 47.166 5.33301 59.499 16s18.5 30 18.5 58c0 14.667 -5.16699 26 -15.5 34s-22.833 14 -37.5 18s-29.667 6.5 -45 7.5s-28.333 1.5 -39 1.5l49 217h114l-35 -133
c20.667 0 41.167 -3.16699 61.5 -9.5s38.5 -15.666 54.5 -27.999s28.833 -27.5 38.5 -45.5s14.5 -38.667 14.5 -62z" />
    <glyph glyph-name="onesuperior" unicode="&#xb9;" horiz-adv-x="600" 
d="M136 739v100h82v449h-82v99h270v-548h82v-100h-352z" />
    <glyph glyph-name="ordmasculine" unicode="&#xba;" horiz-adv-x="1190" 
d="M1046 1018c0 -62.667 -12.167 -120 -36.5 -172s-57.166 -96.5 -98.499 -133.5s-89.333 -65.667 -144 -86s-112 -30.5 -172 -30.5s-117.333 10.167 -172 30.5s-102.667 49 -144 86s-74.166 81.5 -98.499 133.5s-36.5 109.333 -36.5 172s12.167 119.834 36.5 171.501
s57.166 96 98.499 133s89.333 65.833 144 86.5s112 31 172 31s117.333 -10.333 172 -31s102.667 -49.5 144 -86.5s74.166 -81.333 98.499 -133s36.5 -108.834 36.5 -171.501zM798 1018c0 33.333 -3 68.6699 -9 106.003s-16.5 71.666 -31.5 102.999s-35.667 57.333 -62 78
s-59.833 31 -100.5 31c-39.333 0 -72 -10.5 -98 -31.5s-46.667 -47.5 -62 -79.5s-26.333 -66.5 -33 -103.5s-10 -71.5 -10 -103.5s3.33301 -66.5 10 -103.5s17.667 -71.5 33 -103.5s36 -58.5 62 -79.5s58.667 -31.5 98 -31.5c40.667 0 74 10.333 100 31s46.667 46.667 62 78
s26 65.666 32 102.999s9 72.666 9 105.999zM1025 299.004h-860v184h860v-184z" />
    <glyph glyph-name="guillemotright" unicode="&#xbb;" horiz-adv-x="1412" 
d="M758 507l-614 -307v196l378 174v13l-378 160v209l614 -305v-140zM1338 507l-614 -307v196l378 174v13l-378 160v209l614 -305v-140z" />
    <glyph glyph-name="onequarter" unicode="&#xbc;" horiz-adv-x="1327" 
d="M1157 1390l-789 -1340h-208l779 1340h218zM100 739v100h82v449h-82v99h270v-548h82v-100h-352zM1198 189l0.000976562 -143.001h-192v143h-361c17.333 74.667 42.666 147.667 75.999 219s71.333 137.333 114 198h143c-22.667 -37.333 -42 -73.166 -58 -107.499
s-29.333 -65.333 -40 -93s-19 -51.667 -25 -72l-13 -44.5h164v405h192v-405h44v-100h-44z" />
    <glyph glyph-name="onehalf" unicode="&#xbd;" horiz-adv-x="1449" 
d="M1157 1390l-789 -1340h-208l779 1340h218zM100 739v100h82v449h-82v99h270v-548h82v-100h-352zM760 45c8.66699 54 21.668 99.0029 39.001 135.003s37 65.5 59 88.5s45.5 41.167 70.5 54.5s50.167 24.666 75.5 33.999c19.333 6.66699 39.666 13.167 60.999 19.5
s40.833 14.5 58.5 24.5s32.167 23 43.5 39s17 37.333 17 64c0 36 -11.333 63.167 -34 81.5s-51 27.5 -85 27.5c-34.667 0 -64.667 -12.833 -90 -38.5s-43.666 -62.834 -54.999 -111.501l-153 84c13.333 28 31.666 52 54.999 72s49 36.5 77 49.5s56.833 22.5 86.5 28.5
s57.5 9 83.5 9c37.333 0 74.333 -2.5 111 -7.5s69.5 -15.167 98.5 -30.5s52.5 -36.833 70.5 -64.5s27 -63.834 27 -108.501c0 -42 -8.16699 -75.333 -24.5 -100s-37.5 -44.334 -63.5 -59.001s-55 -26.5 -87 -35.5s-63.333 -18.833 -94 -29.5
c-33.333 -11.333 -62.5 -26.166 -87.5 -44.499s-41.833 -45.5 -50.5 -81.5h407v-100h-616z" />
    <glyph glyph-name="threequarters" unicode="&#xbe;" horiz-adv-x="1515" 
d="M1331 1390l-788 -1340h-208l778 1340h218zM1373 189l0.000976562 -143.002h-193v143h-360c17.333 74.667 42.666 147.667 75.999 219s71.333 137.333 114 198h143c-22.667 -37.333 -42.167 -73.166 -58.5 -107.499s-29.833 -65.333 -40.5 -93s-19 -51.667 -25 -72
s-10 -35.166 -12 -44.499h163v405h193v-405h43v-100h-43zM379.001 724.998c-26 0 -54.6631 3.00293 -85.9961 9.00293s-61.666 15.5 -90.999 28.5s-56.333 29.667 -81 50s-44 44.5 -58 72.5l178 85c0 -22.667 3.83301 -43.334 11.5 -62.001s18 -34.5 31 -47.5
s27.833 -23.167 44.5 -30.5s33.667 -11 51 -11s34 2.5 50 7.5s30.167 12.333 42.5 22s22.166 21.5 29.499 35.5s11 30 11 48c0 40 -12.667 69 -38 87s-57 27 -95 27h-95v93h95c26 0 48.833 6.66699 68.5 20s29.5 32.666 29.5 57.999c0 28.667 -9 48.667 -27 60
s-41.667 17 -71 17c-14 0 -27.333 -1.83301 -40 -5.5s-23.667 -9.5 -33 -17.5s-16.833 -18.5 -22.5 -31.5s-8.5 -28.5 -8.5 -46.5l-148 109c14.667 18 32.5 33.167 53.5 45.5s43 22.166 66 29.499s46 12.5 69 15.5s44.167 4.5 63.5 4.5
c25.333 0 53.666 -2.16699 84.999 -6.5s60.666 -12.833 87.999 -25.5s50.333 -30.167 69 -52.5s28 -51.5 28 -87.5c0 -24.667 -8.33301 -47.667 -25 -69s-35.667 -38.333 -57 -51c18.667 -6 36.167 -14.5 52.5 -25.5s30.666 -23.833 42.999 -38.5
s22.166 -31.167 29.499 -49.5s11 -38.166 11 -59.499c0 -45.333 -10.833 -81.5 -32.5 -108.5s-48.667 -47.833 -81 -62.5s-67.5 -24.334 -105.5 -29.001s-73 -7 -105 -7z" />
    <glyph glyph-name="questiondown" unicode="&#xbf;" horiz-adv-x="1244" 
d="M874 1312c0 -24.667 -4.83301 -48 -14.5 -70s-22.834 -41.333 -39.501 -58s-36 -29.834 -58 -39.501s-45.333 -14.5 -70 -14.5s-48 4.83301 -70 14.5s-41.333 22.834 -58 39.501s-29.834 36 -39.501 58s-14.5 45.333 -14.5 70s4.83301 48 14.5 70
s22.834 41.333 39.501 58s36 29.834 58 39.501s45.333 14.5 70 14.5s48 -4.83301 70 -14.5s41.333 -22.834 58 -39.501s29.834 -36 39.501 -58s14.5 -45.333 14.5 -70zM1194 173c-26 -48.667 -58.002 -89.335 -96.002 -122.002s-79.833 -59 -125.5 -79
s-94 -34.167 -145 -42.5s-102.5 -12.5 -154.5 -12.5c-46.667 0 -93.667 5 -141 15s-92.833 24.833 -136.5 44.5s-84.667 43.834 -123 72.501s-71.666 61.834 -99.999 99.501s-50.666 79.667 -66.999 126s-24.5 96.5 -24.5 150.5c0 50.667 7.33301 94.5 22 131.5
s34 69.333 58 97s51.333 52 82 73s62 40.5 94 58.5l94 53c30.667 17.333 58 36.5 82 57.5s43.333 45 58 72s22 59.167 22 96.5h205c0 -57.333 -7.66699 -106.5 -23 -147.5s-34.666 -77.833 -57.999 -110.5s-48.5 -63.334 -75.5 -92.001s-52.167 -58.834 -75.5 -90.501
s-42.666 -67.167 -57.999 -106.5s-23 -86.333 -23 -141c0 -44 3.83301 -83.167 11.5 -117.5s19.667 -63.166 36 -86.499s37.666 -41.166 63.999 -53.499s58.166 -18.5 95.499 -18.5c34.667 0 66 8.66699 94 26s51.833 39.333 71.5 66s34.667 56.167 45 88.5
s15.5 63.5 15.5 93.5z" />
    <glyph glyph-name="Agrave" unicode="&#xc0;" horiz-adv-x="1629" 
d="M1534 689v-18.9971c-1.33301 -56 -7.16602 -114 -17.499 -174s-24.833 -120 -43.5 -180s-41 -119.333 -67 -178s-55.167 -114.834 -87.5 -168.501s-67.166 -104 -104.499 -151s-76.666 -88.5 -117.999 -124.5l-149 86c23.333 39.333 44.5 82.166 63.5 128.499
s36.167 94.833 51.5 145.5s28.5 102.667 39.5 156s20.167 106.333 27.5 159s12.833 104.5 16.5 155.5s5.5 99.5 5.5 145.5c0 36 -0.166992 76.833 -0.5 122.5s-3 92.167 -8 139.5s-13.167 93.5 -24.5 138.5s-28.166 85.167 -50.499 120.5s-51 63.666 -86 84.999
s-78.5 32 -130.5 32c-46 0 -85.5 -7.83301 -118.5 -23.5s-61 -36.667 -84 -63s-41.333 -56.833 -55 -91.5s-24.334 -71.167 -32.001 -109.5s-12.667 -77 -15 -116s-3.5 -75.833 -3.5 -110.5v-279h431v-165h-431v-350h-397v732c0 104.667 16.667 202 50 292
s80.5 168.167 141.5 234.5s134.333 118.333 220 156s181.167 56.5 286.5 56.5c71.333 0 138.166 -10.167 200.499 -30.5s119.166 -48.333 170.499 -84s97.166 -78 137.499 -127s74 -102.5 101 -160.5s47.5 -119.333 61.5 -184s20.333 -130 19 -196zM932 1572h-200l-316 354
h317z" />
    <glyph glyph-name="Aacute" unicode="&#xc1;" horiz-adv-x="1629" 
d="M1534 689v-18.9971c-1.33301 -56 -7.16602 -114 -17.499 -174s-24.833 -120 -43.5 -180s-41 -119.333 -67 -178s-55.167 -114.834 -87.5 -168.501s-67.166 -104 -104.499 -151s-76.666 -88.5 -117.999 -124.5l-149 86c23.333 39.333 44.5 82.166 63.5 128.499
s36.167 94.833 51.5 145.5s28.5 102.667 39.5 156s20.167 106.333 27.5 159s12.833 104.5 16.5 155.5s5.5 99.5 5.5 145.5c0 36 -0.166992 76.833 -0.5 122.5s-3 92.167 -8 139.5s-13.167 93.5 -24.5 138.5s-28.166 85.167 -50.499 120.5s-51 63.666 -86 84.999
s-78.5 32 -130.5 32c-46 0 -85.5 -7.83301 -118.5 -23.5s-61 -36.667 -84 -63s-41.333 -56.833 -55 -91.5s-24.334 -71.167 -32.001 -109.5s-12.667 -77 -15 -116s-3.5 -75.833 -3.5 -110.5v-279h431v-165h-431v-350h-397v732c0 104.667 16.667 202 50 292
s80.5 168.167 141.5 234.5s134.333 118.333 220 156s181.167 56.5 286.5 56.5c71.333 0 138.166 -10.167 200.499 -30.5s119.166 -48.333 170.499 -84s97.166 -78 137.499 -127s74 -102.5 101 -160.5s47.5 -119.333 61.5 -184s20.333 -130 19 -196zM1250 1917l-317 -354
h-199l198 354h318z" />
    <glyph glyph-name="Acircumflex" unicode="&#xc2;" horiz-adv-x="1629" 
d="M1534 689v-18.9971c-1.33301 -56 -7.16602 -114 -17.499 -174s-24.833 -120 -43.5 -180s-41 -119.333 -67 -178s-55.167 -114.834 -87.5 -168.501s-67.166 -104 -104.499 -151s-76.666 -88.5 -117.999 -124.5l-149 86c23.333 39.333 44.5 82.166 63.5 128.499
s36.167 94.833 51.5 145.5s28.5 102.667 39.5 156s20.167 106.333 27.5 159s12.833 104.5 16.5 155.5s5.5 99.5 5.5 145.5c0 36 -0.166992 76.833 -0.5 122.5s-3 92.167 -8 139.5s-13.167 93.5 -24.5 138.5s-28.166 85.167 -50.499 120.5s-51 63.666 -86 84.999
s-78.5 32 -130.5 32c-46 0 -85.5 -7.83301 -118.5 -23.5s-61 -36.667 -84 -63s-41.333 -56.833 -55 -91.5s-24.334 -71.167 -32.001 -109.5s-12.667 -77 -15 -116s-3.5 -75.833 -3.5 -110.5v-279h431v-165h-431v-350h-397v732c0 104.667 16.667 202 50 292
s80.5 168.167 141.5 234.5s134.333 118.333 220 156s181.167 56.5 286.5 56.5c71.333 0 138.166 -10.167 200.499 -30.5s119.166 -48.333 170.499 -84s97.166 -78 137.499 -127s74 -102.5 101 -160.5s47.5 -119.333 61.5 -184s20.333 -130 19 -196zM1103 1561h-250l-65 138
l-66 -138h-146l193 355h135z" />
    <glyph glyph-name="Atilde" unicode="&#xc3;" horiz-adv-x="1629" 
d="M1534 689v-18.9971c-1.33301 -56 -7.16602 -114 -17.499 -174s-24.833 -120 -43.5 -180s-41 -119.333 -67 -178s-55.167 -114.834 -87.5 -168.501s-67.166 -104 -104.499 -151s-76.666 -88.5 -117.999 -124.5l-149 86c23.333 39.333 44.5 82.166 63.5 128.499
s36.167 94.833 51.5 145.5s28.5 102.667 39.5 156s20.167 106.333 27.5 159s12.833 104.5 16.5 155.5s5.5 99.5 5.5 145.5c0 36 -0.166992 76.833 -0.5 122.5s-3 92.167 -8 139.5s-13.167 93.5 -24.5 138.5s-28.166 85.167 -50.499 120.5s-51 63.666 -86 84.999
s-78.5 32 -130.5 32c-46 0 -85.5 -7.83301 -118.5 -23.5s-61 -36.667 -84 -63s-41.333 -56.833 -55 -91.5s-24.334 -71.167 -32.001 -109.5s-12.667 -77 -15 -116s-3.5 -75.833 -3.5 -110.5v-279h431v-165h-431v-350h-397v732c0 104.667 16.667 202 50 292
s80.5 168.167 141.5 234.5s134.333 118.333 220 156s181.167 56.5 286.5 56.5c71.333 0 138.166 -10.167 200.499 -30.5s119.166 -48.333 170.499 -84s97.166 -78 137.499 -127s74 -102.5 101 -160.5s47.5 -119.333 61.5 -184s20.333 -130 19 -196zM1229 1881
c-2.66699 -33.333 -8.99805 -68.3311 -18.998 -104.998s-24.5 -70.5 -43.5 -101.5s-42.833 -56.667 -71.5 -77s-62.667 -30.5 -102 -30.5s-74.833 5 -106.5 15s-60.334 21.167 -86.001 33.5l-70 33.5c-21 10 -40.833 15 -59.5 15c-12 0 -22 -3.16699 -30 -9.5
s-14.667 -14.333 -20 -24s-9.16602 -20.167 -11.499 -31.5s-3.5 -22 -3.5 -32h-155c1.33301 34.667 7 70.5 17 107.5s24.667 70.833 44 101.5s43.666 55.834 72.999 75.501s64.333 29.5 105 29.5c36 0 69.833 -5 101.5 -15s60.667 -20.833 87 -32.5l71 -32.5
c21 -10 39.167 -15 54.5 -15c11.333 0 21.166 3.16699 29.499 9.5s15 14.166 20 23.499s8.83301 19.666 11.5 30.999s4 21.666 4 30.999h160z" />
    <glyph glyph-name="Adieresis" unicode="&#xc4;" horiz-adv-x="1629" 
d="M1534 689v-18.9971c-1.33301 -56 -7.16602 -114 -17.499 -174s-24.833 -120 -43.5 -180s-41 -119.333 -67 -178s-55.167 -114.834 -87.5 -168.501s-67.166 -104 -104.499 -151s-76.666 -88.5 -117.999 -124.5l-149 86c23.333 39.333 44.5 82.166 63.5 128.499
s36.167 94.833 51.5 145.5s28.5 102.667 39.5 156s20.167 106.333 27.5 159s12.833 104.5 16.5 155.5s5.5 99.5 5.5 145.5c0 36 -0.166992 76.833 -0.5 122.5s-3 92.167 -8 139.5s-13.167 93.5 -24.5 138.5s-28.166 85.167 -50.499 120.5s-51 63.666 -86 84.999
s-78.5 32 -130.5 32c-46 0 -85.5 -7.83301 -118.5 -23.5s-61 -36.667 -84 -63s-41.333 -56.833 -55 -91.5s-24.334 -71.167 -32.001 -109.5s-12.667 -77 -15 -116s-3.5 -75.833 -3.5 -110.5v-279h431v-165h-431v-350h-397v732c0 104.667 16.667 202 50 292
s80.5 168.167 141.5 234.5s134.333 118.333 220 156s181.167 56.5 286.5 56.5c71.333 0 138.166 -10.167 200.499 -30.5s119.166 -48.333 170.499 -84s97.166 -78 137.499 -127s74 -102.5 101 -160.5s47.5 -119.333 61.5 -184s20.333 -130 19 -196zM1176 1699
c0 -20 -3.83301 -39 -11.5 -57s-18.167 -33.667 -31.5 -47s-29 -23.833 -47 -31.5s-37.333 -11.5 -58 -11.5c-20 0 -39 3.83301 -57 11.5s-33.667 18.167 -47 31.5s-23.833 29 -31.5 47s-11.5 37 -11.5 57s3.83301 39 11.5 57s18.167 33.667 31.5 47s29 23.833 47 31.5
s37 11.5 57 11.5c20.667 0 40 -3.83301 58 -11.5s33.667 -18.167 47 -31.5s23.833 -29 31.5 -47s11.5 -37 11.5 -57zM799 1699c0 -20 -3.83301 -39 -11.5 -57s-18.167 -33.667 -31.5 -47s-29 -23.833 -47 -31.5s-37.333 -11.5 -58 -11.5c-20 0 -39 3.83301 -57 11.5
s-33.667 18.167 -47 31.5s-23.833 29 -31.5 47s-11.5 37 -11.5 57s3.83301 39 11.5 57s18.167 33.667 31.5 47s29 23.833 47 31.5s37 11.5 57 11.5c20.667 0 40 -3.83301 58 -11.5s33.667 -18.167 47 -31.5s23.833 -29 31.5 -47s11.5 -37 11.5 -57z" />
    <glyph glyph-name="Aring" unicode="&#xc5;" horiz-adv-x="1632" 
d="M1068 1643c0 -38 -8.50098 -72.9961 -25.501 -104.996s-39.833 -58.333 -68.5 -79c88 -17.333 167.167 -50.333 237.5 -99s129.666 -107.834 177.999 -177.501s85.166 -147 110.499 -232s37.333 -172.167 36 -261.5v-19c-1.33301 -56 -7.16602 -114 -17.499 -174
s-24.833 -120 -43.5 -180s-41 -119.333 -67 -178s-55.167 -114.834 -87.5 -168.501s-67.166 -104 -104.499 -151s-76.666 -88.5 -117.999 -124.5l-149 86c23.333 39.333 44.5 82.166 63.5 128.499s36.167 94.833 51.5 145.5s28.5 102.667 39.5 156s20.167 106.333 27.5 159
s12.833 104.5 16.5 155.5s5.5 99.5 5.5 145.5c0 36 -0.166992 76.833 -0.5 122.5s-3 92.167 -8 139.5s-13.167 93.5 -24.5 138.5s-28.166 85.167 -50.499 120.5s-51 63.666 -86 84.999s-78.5 32 -130.5 32c-46 0 -85.5 -7.83301 -118.5 -23.5s-61 -36.667 -84 -63
s-41.333 -56.833 -55 -91.5s-24.334 -71.167 -32.001 -109.5s-12.667 -77 -15 -116s-3.5 -75.833 -3.5 -110.5v-279h431v-165h-431v-350h-397v732c0 92.667 13.167 179.667 39.5 261s63.666 154 111.999 218s107 117.5 176 160.5s146.5 72.167 232.5 87.5
c-28.667 20.667 -51.334 47 -68.001 79s-25 67 -25 105c0 31.333 5.83301 60.833 17.5 88.5s27.834 51.834 48.501 72.501s44.667 37 72 49s56.666 18 87.999 18c30.667 0 59.834 -6 87.501 -18s51.834 -28.333 72.501 -49s37 -44.834 49 -72.501s18 -57.167 18 -88.5z
M924.999 1643c0 22.667 -8.33301 42.3359 -25 59.0029s-36.334 25 -59.001 25c-23.333 0 -42.833 -8.33301 -58.5 -25s-23.5 -36.334 -23.5 -59.001s7.83301 -42.334 23.5 -59.001s35.167 -25 58.5 -25c22.667 0 42.334 8.16699 59.001 24.5s25 36.166 25 59.499z" />
    <glyph glyph-name="AE" unicode="&#xc6;" horiz-adv-x="2271" 
d="M2188 0l-851.003 0.00195312c-34 -60.667 -71.167 -116.834 -111.5 -168.501s-83.166 -97.5 -128.499 -137.5l-149 86c23.333 39.333 44.5 82.166 63.5 128.499s36.167 94.833 51.5 145.5s28.5 102.667 39.5 156s20.167 106.333 27.5 159s12.833 104.5 16.5 155.5
s5.5 99.5 5.5 145.5c0 36 -0.333008 76.833 -1 122.5s-3.66699 92.167 -9 139.5s-14.166 93.5 -26.499 138.5s-29.833 85.167 -52.5 120.5s-51.667 63.666 -87 84.999s-79 32 -131 32c-46 0 -85.333 -7.83301 -118 -23.5s-60.167 -36.667 -82.5 -63
s-40.166 -56.833 -53.499 -91.5s-23.5 -71.167 -30.5 -109.5s-11.5 -77 -13.5 -116s-3 -75.833 -3 -110.5v-279h431v-165h-431v-350h-397v732c0 104.667 16.667 200.334 50 287.001s80.5 161.167 141.5 223.5s134.333 110.833 220 145.5s181.167 52 286.5 52h1343v-184h-637
v-445h492v-183h-492v-444h637v-184z" />
    <glyph glyph-name="Ccedilla" unicode="&#xc7;" horiz-adv-x="1543" 
d="M1041 -247c0 -35.333 -6.00488 -66.0049 -18.0049 -92.0049s-28.5 -47.833 -49.5 -65.5s-45.833 -30.834 -74.5 -39.501s-59.334 -13 -92.001 -13c-26.667 0 -51.667 5.16699 -75 15.5s-43.666 24.166 -60.999 41.499s-31 37.833 -41 61.5s-15 48.834 -15 75.501h113
c0.666992 -19.333 9.16699 -33.833 25.5 -43.5s32.833 -14.5 49.5 -14.5c27.333 0 47.166 5.33301 59.499 16s18.5 30 18.5 58c0 14.667 -5.16699 26 -15.5 34s-22.833 14 -37.5 18s-29.667 6.5 -45 7.5s-28.333 1.5 -39 1.5l36 160
c-99.333 6.66699 -191.333 30.5 -276 71.5s-158.167 94.667 -220.5 161s-111.166 143.5 -146.499 231.5s-53 182.667 -53 284c0 70.667 8.83301 138.5 26.5 203.5s42.667 125.333 75 181s71.333 106.167 117 151.5s96.5 84 152.5 116s116.5 56.667 181.5 74
s132.833 26 203.5 26c68 0 134.5 -8 199.5 -24s125.5 -40.167 181.5 -72.5s105.833 -73 149.5 -122s78.167 -106.5 103.5 -172.5l-171 -72c-13.333 43.333 -31.166 83 -53.499 119s-49 66.833 -80 92.5s-66.167 45.667 -105.5 60s-82.333 21.5 -129 21.5
c-50 0 -95.833 -8.16699 -137.5 -24.5s-79 -38.833 -112 -67.5s-61.833 -62 -86.5 -100s-45.334 -78.5 -62.001 -121.5s-29 -87.5 -37 -133.5s-12 -91 -12 -135c0 -70 8.16699 -139.667 24.5 -209s42.333 -131.666 78 -186.999s81.834 -100.166 138.501 -134.499
s125.334 -51.5 206.001 -51.5c42.667 0 83 7.16699 121 21.5s72.5 34 103.5 59s58.167 54.5 81.5 88.5s42 70.667 56 110l173 -69c-23.333 -59.333 -55.166 -111.666 -95.499 -156.999s-86.166 -83.666 -137.499 -114.999s-106.666 -55.666 -165.999 -72.999
s-119.333 -28 -180 -32l-19 -75c20.667 0 41.167 -3.16699 61.5 -9.5s38.5 -15.666 54.5 -27.999s28.833 -27.5 38.5 -45.5s14.5 -38.667 14.5 -62z" />
    <glyph glyph-name="Egrave" unicode="&#xc8;" horiz-adv-x="1280" 
d="M1197 0h-1034v1440h1034v-184h-637v-445h492v-183h-492v-444h637v-184zM795 1540h-200l-316 354h317z" />
    <glyph glyph-name="Eacute" unicode="&#xc9;" horiz-adv-x="1280" 
d="M1197 0h-1034v1440h1034v-184h-637v-445h492v-183h-492v-444h637v-184zM1100 1890l-317 -354h-199l198 354h318z" />
    <glyph glyph-name="Ecircumflex" unicode="&#xca;" horiz-adv-x="1280" 
d="M1197 0h-1034v1440h1034v-184h-637v-445h492v-183h-492v-444h637v-184zM944 1538h-250l-65 138l-66 -138h-146l193 355h135z" />
    <glyph glyph-name="Edieresis" unicode="&#xcb;" horiz-adv-x="1280" 
d="M1197 0h-1034v1440h1034v-184h-637v-445h492v-183h-492v-444h637v-184zM1016 1684c0 -20 -3.83301 -39 -11.5 -57s-18.167 -33.667 -31.5 -47s-29 -23.833 -47 -31.5s-37.333 -11.5 -58 -11.5c-20 0 -39 3.83301 -57 11.5s-33.667 18.167 -47 31.5s-23.833 29 -31.5 47
s-11.5 37 -11.5 57s3.83301 39 11.5 57s18.167 33.667 31.5 47s29 23.833 47 31.5s37 11.5 57 11.5c20.667 0 40 -3.83301 58 -11.5s33.667 -18.167 47 -31.5s23.833 -29 31.5 -47s11.5 -37 11.5 -57zM639 1684c0 -20 -3.83301 -39 -11.5 -57s-18.167 -33.667 -31.5 -47
s-29 -23.833 -47 -31.5s-37.333 -11.5 -58 -11.5c-20 0 -39 3.83301 -57 11.5s-33.667 18.167 -47 31.5s-23.833 29 -31.5 47s-11.5 37 -11.5 57s3.83301 39 11.5 57s18.167 33.667 31.5 47s29 23.833 47 31.5s37 11.5 57 11.5c20.667 0 40 -3.83301 58 -11.5
s33.667 -18.167 47 -31.5s23.833 -29 31.5 -47s11.5 -37 11.5 -57z" />
    <glyph glyph-name="Igrave" unicode="&#xcc;" horiz-adv-x="723" 
d="M560 0h-397v1440h397v-1440zM469 1540h-200l-316 354h317z" />
    <glyph glyph-name="Iacute" unicode="&#xcd;" horiz-adv-x="723" 
d="M560 0h-397v1440h397v-1440zM777 1894l-317 -354h-199l198 354h318z" />
    <glyph glyph-name="Icircumflex" unicode="&#xce;" horiz-adv-x="723" 
d="M560 0h-397v1440h397v-1440zM625 1537h-250l-65 138l-66 -138h-146l193 355h135z" />
    <glyph glyph-name="Idieresis" unicode="&#xcf;" horiz-adv-x="723" 
d="M560 0h-397v1440h397v-1440zM698 1683c0 -20 -3.83301 -39 -11.5 -57s-18.167 -33.667 -31.5 -47s-29 -23.833 -47 -31.5s-37.333 -11.5 -58 -11.5c-20 0 -39 3.83301 -57 11.5s-33.667 18.167 -47 31.5s-23.833 29 -31.5 47s-11.5 37 -11.5 57s3.83301 39 11.5 57
s18.167 33.667 31.5 47s29 23.833 47 31.5s37 11.5 57 11.5c20.667 0 40 -3.83301 58 -11.5s33.667 -18.167 47 -31.5s23.833 -29 31.5 -47s11.5 -37 11.5 -57zM321 1683c0 -20 -3.83301 -39 -11.5 -57s-18.167 -33.667 -31.5 -47s-29 -23.833 -47 -31.5
s-37.333 -11.5 -58 -11.5c-20 0 -39 3.83301 -57 11.5s-33.667 18.167 -47 31.5s-23.833 29 -31.5 47s-11.5 37 -11.5 57s3.83301 39 11.5 57s18.167 33.667 31.5 47s29 23.833 47 31.5s37 11.5 57 11.5c20.667 0 40 -3.83301 58 -11.5s33.667 -18.167 47 -31.5
s23.833 -29 31.5 -47s11.5 -37 11.5 -57z" />
    <glyph glyph-name="Eth" unicode="&#xd0;" horiz-adv-x="1706" 
d="M229 629l-199 0.000976562v184h199v627h635c68 0 134 -8 198 -24s124.167 -38.833 180.5 -68.5s108 -65.834 155 -108.501s87.333 -90.5 121 -143.5s59.834 -111 78.501 -174s28 -129.5 28 -199.5s-9.33301 -136.5 -28 -199.5s-44.834 -121.167 -78.501 -174.5
s-73.834 -101.5 -120.501 -144.5s-98.167 -79.5 -154.5 -109.5s-116.666 -53.167 -180.999 -69.5s-130.5 -24.5 -198.5 -24.5h-635v629zM866 629.001l-240.001 0.000976562v-489h105c84.667 0 157.834 15.833 219.501 47.5s112.667 74.334 153 128.001
s70.333 115.5 90 185.5s29.5 143.667 29.5 221c0 78 -9.5 152.167 -28.5 222.5s-48.5 132.166 -88.5 185.499s-91 95.666 -153 126.999s-136 47 -222 47h-105v-491h240v-184z" />
    <glyph glyph-name="Ntilde" unicode="&#xd1;" horiz-adv-x="1642" 
d="M347 0h-184v1440h258l875 -989v989h183v-1440h-258l-874 988v-988zM1210 1853c-2.66699 -33.333 -8.99805 -68.3311 -18.998 -104.998s-24.5 -70.5 -43.5 -101.5s-42.833 -56.667 -71.5 -77s-62.667 -30.5 -102 -30.5s-74.833 5 -106.5 15s-60.334 21.167 -86.001 33.5
l-70 33.5c-21 10 -40.833 15 -59.5 15c-12 0 -22 -3.16699 -30 -9.5s-14.667 -14.333 -20 -24s-9.16602 -20.167 -11.499 -31.5s-3.5 -22 -3.5 -32h-155c1.33301 34.667 7 70.5 17 107.5s24.667 70.833 44 101.5s43.666 55.834 72.999 75.501s64.333 29.5 105 29.5
c36 0 69.833 -5 101.5 -15s60.667 -20.833 87 -32.5l71 -32.5c21 -10 39.167 -15 54.5 -15c11.333 0 21.166 3.16699 29.499 9.5s15 14.166 20 23.499s8.83301 19.666 11.5 30.999s4 21.666 4 30.999h160z" />
    <glyph glyph-name="Ograve" unicode="&#xd2;" horiz-adv-x="1750" 
d="M1666 722c0 -116 -19.9961 -220.5 -59.9961 -313.5s-95.333 -171.833 -166 -236.5s-154.334 -114.334 -251.001 -149.001s-201.334 -52 -314.001 -52s-217.334 17.333 -314.001 52s-180.334 84.334 -251.001 149.001s-126 143.5 -166 236.5s-60 197.5 -60 313.5
c0 118 19.833 223.5 59.5 316.5s94.667 171.667 165 236s153.833 113.666 250.5 147.999s202 51.5 316 51.5s219.333 -17.167 316 -51.5s180.167 -83.666 250.5 -147.999s125.333 -143 165 -236s59.5 -198.5 59.5 -316.5zM1262 722c0 44 -1.99805 89.001 -5.99805 135.001
s-11.333 90.667 -22 134s-25.167 84 -43.5 122s-41.833 71.167 -70.5 99.5s-63.167 50.666 -103.5 66.999s-87.5 24.5 -141.5 24.5c-54.667 0 -102.334 -8.16699 -143.001 -24.5s-75.334 -38.5 -104.001 -66.5s-52 -61 -70 -99s-32.167 -78.5 -42.5 -121.5
s-17.5 -87.667 -21.5 -134s-6 -91.833 -6 -136.5c0 -44 2 -89 6 -135s11.333 -90.5 22 -133.5s25.167 -83.5 43.5 -121.5s41.833 -71.167 70.5 -99.5s63.167 -50.833 103.5 -67.5s87.5 -25 141.5 -25c52.667 0 98.667 8.5 138 25.5s73.333 40 102 69s52.5 62.667 71.5 101
s34 79 45 122s18.833 87.167 23.5 132.5s7 89.333 7 132zM957.006 1564h-200l-316 354h317z" />
    <glyph glyph-name="Oacute" unicode="&#xd3;" horiz-adv-x="1750" 
d="M1666 722c0 -116 -19.9961 -220.5 -59.9961 -313.5s-95.333 -171.833 -166 -236.5s-154.334 -114.334 -251.001 -149.001s-201.334 -52 -314.001 -52s-217.334 17.333 -314.001 52s-180.334 84.334 -251.001 149.001s-126 143.5 -166 236.5s-60 197.5 -60 313.5
c0 118 19.833 223.5 59.5 316.5s94.667 171.667 165 236s153.833 113.666 250.5 147.999s202 51.5 316 51.5s219.333 -17.167 316 -51.5s180.167 -83.666 250.5 -147.999s125.333 -143 165 -236s59.5 -198.5 59.5 -316.5zM1262 722c0 44 -1.99805 89.001 -5.99805 135.001
s-11.333 90.667 -22 134s-25.167 84 -43.5 122s-41.833 71.167 -70.5 99.5s-63.167 50.666 -103.5 66.999s-87.5 24.5 -141.5 24.5c-54.667 0 -102.334 -8.16699 -143.001 -24.5s-75.334 -38.5 -104.001 -66.5s-52 -61 -70 -99s-32.167 -78.5 -42.5 -121.5
s-17.5 -87.667 -21.5 -134s-6 -91.833 -6 -136.5c0 -44 2 -89 6 -135s11.333 -90.5 22 -133.5s25.167 -83.5 43.5 -121.5s41.833 -71.167 70.5 -99.5s63.167 -50.833 103.5 -67.5s87.5 -25 141.5 -25c52.667 0 98.667 8.5 138 25.5s73.333 40 102 69s52.5 62.667 71.5 101
s34 79 45 122s18.833 87.167 23.5 132.5s7 89.333 7 132zM1305.01 1918l-317 -354h-199l198 354h318z" />
    <glyph glyph-name="Ocircumflex" unicode="&#xd4;" horiz-adv-x="1750" 
d="M1666 722c0 -116 -19.9961 -220.5 -59.9961 -313.5s-95.333 -171.833 -166 -236.5s-154.334 -114.334 -251.001 -149.001s-201.334 -52 -314.001 -52s-217.334 17.333 -314.001 52s-180.334 84.334 -251.001 149.001s-126 143.5 -166 236.5s-60 197.5 -60 313.5
c0 118 19.833 223.5 59.5 316.5s94.667 171.667 165 236s153.833 113.666 250.5 147.999s202 51.5 316 51.5s219.333 -17.167 316 -51.5s180.167 -83.666 250.5 -147.999s125.333 -143 165 -236s59.5 -198.5 59.5 -316.5zM1262 722c0 44 -1.99805 89.001 -5.99805 135.001
s-11.333 90.667 -22 134s-25.167 84 -43.5 122s-41.833 71.167 -70.5 99.5s-63.167 50.666 -103.5 66.999s-87.5 24.5 -141.5 24.5c-54.667 0 -102.334 -8.16699 -143.001 -24.5s-75.334 -38.5 -104.001 -66.5s-52 -61 -70 -99s-32.167 -78.5 -42.5 -121.5
s-17.5 -87.667 -21.5 -134s-6 -91.833 -6 -136.5c0 -44 2 -89 6 -135s11.333 -90.5 22 -133.5s25.167 -83.5 43.5 -121.5s41.833 -71.167 70.5 -99.5s63.167 -50.833 103.5 -67.5s87.5 -25 141.5 -25c52.667 0 98.667 8.5 138 25.5s73.333 40 102 69s52.5 62.667 71.5 101
s34 79 45 122s18.833 87.167 23.5 132.5s7 89.333 7 132zM1138.01 1566h-250l-65 138l-66 -138h-146l193 355h135z" />
    <glyph glyph-name="Otilde" unicode="&#xd5;" horiz-adv-x="1750" 
d="M1666 722c0 -116 -19.9961 -220.5 -59.9961 -313.5s-95.333 -171.833 -166 -236.5s-154.334 -114.334 -251.001 -149.001s-201.334 -52 -314.001 -52s-217.334 17.333 -314.001 52s-180.334 84.334 -251.001 149.001s-126 143.5 -166 236.5s-60 197.5 -60 313.5
c0 118 19.833 223.5 59.5 316.5s94.667 171.667 165 236s153.833 113.666 250.5 147.999s202 51.5 316 51.5s219.333 -17.167 316 -51.5s180.167 -83.666 250.5 -147.999s125.333 -143 165 -236s59.5 -198.5 59.5 -316.5zM1262 722c0 44 -1.99805 89.001 -5.99805 135.001
s-11.333 90.667 -22 134s-25.167 84 -43.5 122s-41.833 71.167 -70.5 99.5s-63.167 50.666 -103.5 66.999s-87.5 24.5 -141.5 24.5c-54.667 0 -102.334 -8.16699 -143.001 -24.5s-75.334 -38.5 -104.001 -66.5s-52 -61 -70 -99s-32.167 -78.5 -42.5 -121.5
s-17.5 -87.667 -21.5 -134s-6 -91.833 -6 -136.5c0 -44 2 -89 6 -135s11.333 -90.5 22 -133.5s25.167 -83.5 43.5 -121.5s41.833 -71.167 70.5 -99.5s63.167 -50.833 103.5 -67.5s87.5 -25 141.5 -25c52.667 0 98.667 8.5 138 25.5s73.333 40 102 69s52.5 62.667 71.5 101
s34 79 45 122s18.833 87.167 23.5 132.5s7 89.333 7 132zM1264.01 1881c-2.66699 -33.333 -8.99805 -68.3311 -18.998 -104.998s-24.5 -70.5 -43.5 -101.5s-42.833 -56.667 -71.5 -77s-62.667 -30.5 -102 -30.5s-74.833 5 -106.5 15s-60.334 21.167 -86.001 33.5l-70 33.5
c-21 10 -40.833 15 -59.5 15c-12 0 -22 -3.16699 -30 -9.5s-14.667 -14.333 -20 -24s-9.16602 -20.167 -11.499 -31.5s-3.5 -22 -3.5 -32h-155c1.33301 34.667 7 70.5 17 107.5s24.667 70.833 44 101.5s43.666 55.834 72.999 75.501s64.333 29.5 105 29.5
c36 0 69.833 -5 101.5 -15s60.667 -20.833 87 -32.5l71 -32.5c21 -10 39.167 -15 54.5 -15c11.333 0 21.166 3.16699 29.499 9.5s15 14.166 20 23.499s8.83301 19.666 11.5 30.999s4 21.666 4 30.999h160z" />
    <glyph glyph-name="Odieresis" unicode="&#xd6;" horiz-adv-x="1750" 
d="M1666 722c0 -116 -19.9961 -220.5 -59.9961 -313.5s-95.333 -171.833 -166 -236.5s-154.334 -114.334 -251.001 -149.001s-201.334 -52 -314.001 -52s-217.334 17.333 -314.001 52s-180.334 84.334 -251.001 149.001s-126 143.5 -166 236.5s-60 197.5 -60 313.5
c0 118 19.833 223.5 59.5 316.5s94.667 171.667 165 236s153.833 113.666 250.5 147.999s202 51.5 316 51.5s219.333 -17.167 316 -51.5s180.167 -83.666 250.5 -147.999s125.333 -143 165 -236s59.5 -198.5 59.5 -316.5zM1262 722c0 44 -1.99805 89.001 -5.99805 135.001
s-11.333 90.667 -22 134s-25.167 84 -43.5 122s-41.833 71.167 -70.5 99.5s-63.167 50.666 -103.5 66.999s-87.5 24.5 -141.5 24.5c-54.667 0 -102.334 -8.16699 -143.001 -24.5s-75.334 -38.5 -104.001 -66.5s-52 -61 -70 -99s-32.167 -78.5 -42.5 -121.5
s-17.5 -87.667 -21.5 -134s-6 -91.833 -6 -136.5c0 -44 2 -89 6 -135s11.333 -90.5 22 -133.5s25.167 -83.5 43.5 -121.5s41.833 -71.167 70.5 -99.5s63.167 -50.833 103.5 -67.5s87.5 -25 141.5 -25c52.667 0 98.667 8.5 138 25.5s73.333 40 102 69s52.5 62.667 71.5 101
s34 79 45 122s18.833 87.167 23.5 132.5s7 89.333 7 132zM1211.01 1702c0 -20 -3.83301 -39 -11.5 -57s-18.167 -33.667 -31.5 -47s-29 -23.833 -47 -31.5s-37.333 -11.5 -58 -11.5c-20 0 -39 3.83301 -57 11.5s-33.667 18.167 -47 31.5s-23.833 29 -31.5 47
s-11.5 37 -11.5 57s3.83301 39 11.5 57s18.167 33.667 31.5 47s29 23.833 47 31.5s37 11.5 57 11.5c20.667 0 40 -3.83301 58 -11.5s33.667 -18.167 47 -31.5s23.833 -29 31.5 -47s11.5 -37 11.5 -57zM834.006 1702c0 -20 -3.83301 -39 -11.5 -57s-18.167 -33.667 -31.5 -47
s-29 -23.833 -47 -31.5s-37.333 -11.5 -58 -11.5c-20 0 -39 3.83301 -57 11.5s-33.667 18.167 -47 31.5s-23.833 29 -31.5 47s-11.5 37 -11.5 57s3.83301 39 11.5 57s18.167 33.667 31.5 47s29 23.833 47 31.5s37 11.5 57 11.5c20.667 0 40 -3.83301 58 -11.5
s33.667 -18.167 47 -31.5s23.833 -29 31.5 -47s11.5 -37 11.5 -57z" />
    <glyph glyph-name="multiply" unicode="&#xd7;" horiz-adv-x="1113" 
d="M695 746l304 -434h-322l-151 214l-153 -214h-267l308 375l-299 426h322l146 -208l159 208h269z" />
    <glyph glyph-name="Oslash" unicode="&#xd8;" horiz-adv-x="1750" 
d="M516 455l635.002 721.999c-29.333 38.667 -66.333 69.5 -111 92.5s-99.667 34.5 -165 34.5c-54.667 0 -102.334 -8.16699 -143.001 -24.5s-75.334 -38.5 -104.001 -66.5s-52 -61 -70 -99s-32.167 -78.5 -42.5 -121.5s-17.5 -87.667 -21.5 -134s-6 -91.833 -6 -136.5
c0 -44 2 -88.667 6 -134s11.333 -89.666 22 -132.999zM1232 997.999l-638.001 -724c30 -40 67.667 -72.333 113 -97s101.333 -37 168 -37c52.667 0 98.667 8.5 138 25.5s73.333 40 102 69s52.5 62.667 71.5 101s34 79 45 122s18.833 87.167 23.5 132.5s7 89.333 7 132
c0 46 -2.16699 92.5 -6.5 139.5s-12.166 92.5 -23.499 136.5zM1621 1440l-160.998 -182.998c64.667 -64.667 115.167 -141.667 151.5 -231s54.5 -190.666 54.5 -303.999c0 -116 -20 -220.5 -60 -313.5s-95.333 -171.833 -166 -236.5s-154.334 -114.334 -251.001 -149.001
s-201.334 -52 -314.001 -52c-85.333 0 -165.5 9.66699 -240.5 29s-143.833 47.666 -206.5 84.999l-75 -85h-238l172 195c-64 64.667 -113.833 141.167 -149.5 229.5s-53.5 187.5 -53.5 297.5c0 118 19.833 223.5 59.5 316.5s94.667 171.667 165 236
s153.833 113.666 250.5 147.999s202 51.5 316 51.5c84 0 163 -9.16699 237 -27.5s142.333 -45.5 205 -81.5l66 75h238z" />
    <glyph glyph-name="Ugrave" unicode="&#xd9;" horiz-adv-x="1630" 
d="M585 1440c-18 -54 -33.667 -109.833 -47 -167.5s-24.333 -115.334 -33 -173.001s-15.167 -114.5 -19.5 -170.5s-6.5 -109 -6.5 -159c0 -36.667 0.166992 -77.834 0.5 -123.501s3 -92.167 8 -139.5s13.167 -93.5 24.5 -138.5s28.166 -85.167 50.499 -120.5
s51 -63.666 86 -84.999s78.5 -32 130.5 -32c46 0 85.5 7.83301 118.5 23.5s61 36.834 84 63.501s41.333 57.334 55 92.001s24.334 71 32.001 109s12.667 76.5 15 115.5s3.5 76.167 3.5 111.5v794h397v-732c0 -104.667 -16.667 -202 -50 -292s-80.333 -168.167 -141 -234.5
s-134 -118.333 -220 -156s-181.333 -56.5 -286 -56.5c-72 0 -139 10.167 -201 30.5s-118.833 48.333 -170.5 84s-97.667 78 -138 127s-74 102.5 -101 160.5s-47.5 119.167 -61.5 183.5s-20.333 129.5 -19 195.5v20c0.666992 53.333 6 108.5 16 165.5
s23.5 114.167 40.5 171.5s37.5 114.166 61.5 170.499s50.667 110.5 80 162.5h291zM928 1490h-200l-316 354h317z" />
    <glyph glyph-name="Uacute" unicode="&#xda;" horiz-adv-x="1630" 
d="M585 1440c-18 -54 -33.667 -109.833 -47 -167.5s-24.333 -115.334 -33 -173.001s-15.167 -114.5 -19.5 -170.5s-6.5 -109 -6.5 -159c0 -36.667 0.166992 -77.834 0.5 -123.501s3 -92.167 8 -139.5s13.167 -93.5 24.5 -138.5s28.166 -85.167 50.499 -120.5
s51 -63.666 86 -84.999s78.5 -32 130.5 -32c46 0 85.5 7.83301 118.5 23.5s61 36.834 84 63.501s41.333 57.334 55 92.001s24.334 71 32.001 109s12.667 76.5 15 115.5s3.5 76.167 3.5 111.5v794h397v-732c0 -104.667 -16.667 -202 -50 -292s-80.333 -168.167 -141 -234.5
s-134 -118.333 -220 -156s-181.333 -56.5 -286 -56.5c-72 0 -139 10.167 -201 30.5s-118.833 48.333 -170.5 84s-97.667 78 -138 127s-74 102.5 -101 160.5s-47.5 119.167 -61.5 183.5s-20.333 129.5 -19 195.5v20c0.666992 53.333 6 108.5 16 165.5
s23.5 114.167 40.5 171.5s37.5 114.166 61.5 170.499s50.667 110.5 80 162.5h291zM1247 1844l-317 -354h-199l198 354h318z" />
    <glyph glyph-name="Ucircumflex" unicode="&#xdb;" horiz-adv-x="1630" 
d="M585 1440c-18 -54 -33.667 -109.833 -47 -167.5s-24.333 -115.334 -33 -173.001s-15.167 -114.5 -19.5 -170.5s-6.5 -109 -6.5 -159c0 -36.667 0.166992 -77.834 0.5 -123.501s3 -92.167 8 -139.5s13.167 -93.5 24.5 -138.5s28.166 -85.167 50.499 -120.5
s51 -63.666 86 -84.999s78.5 -32 130.5 -32c46 0 85.5 7.83301 118.5 23.5s61 36.834 84 63.501s41.333 57.334 55 92.001s24.334 71 32.001 109s12.667 76.5 15 115.5s3.5 76.167 3.5 111.5v794h397v-732c0 -104.667 -16.667 -202 -50 -292s-80.333 -168.167 -141 -234.5
s-134 -118.333 -220 -156s-181.333 -56.5 -286 -56.5c-72 0 -139 10.167 -201 30.5s-118.833 48.333 -170.5 84s-97.667 78 -138 127s-74 102.5 -101 160.5s-47.5 119.167 -61.5 183.5s-20.333 129.5 -19 195.5v20c0.666992 53.333 6 108.5 16 165.5
s23.5 114.167 40.5 171.5s37.5 114.166 61.5 170.499s50.667 110.5 80 162.5h291zM1079 1538h-250l-65 138l-66 -138h-146l193 355h135z" />
    <glyph glyph-name="Udieresis" unicode="&#xdc;" horiz-adv-x="1630" 
d="M585 1440c-18 -54 -33.667 -109.833 -47 -167.5s-24.333 -115.334 -33 -173.001s-15.167 -114.5 -19.5 -170.5s-6.5 -109 -6.5 -159c0 -36.667 0.166992 -77.834 0.5 -123.501s3 -92.167 8 -139.5s13.167 -93.5 24.5 -138.5s28.166 -85.167 50.499 -120.5
s51 -63.666 86 -84.999s78.5 -32 130.5 -32c46 0 85.5 7.83301 118.5 23.5s61 36.834 84 63.501s41.333 57.334 55 92.001s24.334 71 32.001 109s12.667 76.5 15 115.5s3.5 76.167 3.5 111.5v794h397v-732c0 -104.667 -16.667 -202 -50 -292s-80.333 -168.167 -141 -234.5
s-134 -118.333 -220 -156s-181.333 -56.5 -286 -56.5c-72 0 -139 10.167 -201 30.5s-118.833 48.333 -170.5 84s-97.667 78 -138 127s-74 102.5 -101 160.5s-47.5 119.167 -61.5 183.5s-20.333 129.5 -19 195.5v20c0.666992 53.333 6 108.5 16 165.5
s23.5 114.167 40.5 171.5s37.5 114.166 61.5 170.499s50.667 110.5 80 162.5h291zM1146 1692c0 -20 -3.83301 -39 -11.5 -57s-18.167 -33.667 -31.5 -47s-29 -23.833 -47 -31.5s-37.333 -11.5 -58 -11.5c-20 0 -39 3.83301 -57 11.5s-33.667 18.167 -47 31.5
s-23.833 29 -31.5 47s-11.5 37 -11.5 57s3.83301 39 11.5 57s18.167 33.667 31.5 47s29 23.833 47 31.5s37 11.5 57 11.5c20.667 0 40 -3.83301 58 -11.5s33.667 -18.167 47 -31.5s23.833 -29 31.5 -47s11.5 -37 11.5 -57zM769 1692c0 -20 -3.83301 -39 -11.5 -57
s-18.167 -33.667 -31.5 -47s-29 -23.833 -47 -31.5s-37.333 -11.5 -58 -11.5c-20 0 -39 3.83301 -57 11.5s-33.667 18.167 -47 31.5s-23.833 29 -31.5 47s-11.5 37 -11.5 57s3.83301 39 11.5 57s18.167 33.667 31.5 47s29 23.833 47 31.5s37 11.5 57 11.5
c20.667 0 40 -3.83301 58 -11.5s33.667 -18.167 47 -31.5s23.833 -29 31.5 -47s11.5 -37 11.5 -57z" />
    <glyph glyph-name="Yacute" unicode="&#xdd;" horiz-adv-x="1328" 
d="M1332 1440l-466 -835v-605h-397v583l-471 857h405l313 -724l336 724h280zM1145 1744l-317 -354h-199l198 354h318z" />
    <glyph glyph-name="Thorn" unicode="&#xde;" horiz-adv-x="1502" 
d="M560 1029l-0.00292969 -624.999h209c50.667 0 93.834 8.16699 129.501 24.5s64.834 39.166 87.501 68.499s39.334 63.833 50.001 103.5s16 83.167 16 130.5c0 92.667 -23.5 165.5 -70.5 218.5s-117.833 79.5 -212.5 79.5h-209zM559.997 0.000976562h-397v1440h397v-270
h381c67.333 0 131.833 -9 193.5 -27s116.167 -45.167 163.5 -81.5s85.166 -82 113.499 -137s42.5 -119.5 42.5 -193.5c0 -46.667 -6.66699 -90.5 -20 -131.5s-31.833 -78.5 -55.5 -112.5s-51.5 -64.667 -83.5 -92s-67 -50.333 -105 -69s-78.167 -33 -120.5 -43
s-85.166 -15 -128.499 -15h-381v-268z" />
    <glyph glyph-name="germandbls" unicode="&#xdf;" horiz-adv-x="1832" 
d="M1029 1314c0 16.667 -1.17871 35.3223 -3.51172 55.9893s-6.66602 41.667 -12.999 63s-15 42 -26 62s-25.167 37.833 -42.5 53.5s-38.166 28.167 -62.499 37.5s-53.166 14 -86.499 14c-38 0 -69.833 -7.33301 -95.5 -22s-46.667 -34.167 -63 -58.5
s-28.666 -52.166 -36.999 -83.499s-14.166 -63.333 -17.499 -96s-5.16602 -65 -5.49902 -97s-0.5 -61 -0.5 -87v-1156h-339v1022h-210v134h210c0 92.667 9.5 176.334 28.5 251.001s50.333 138 94 190s100.834 92 171.501 120s157.667 42 261 42
c36.667 0 74.334 -2.16699 113.001 -6.5s76.334 -12.166 113.001 -23.499s71.334 -26.5 104.001 -45.5s61.167 -43.167 85.5 -72.5s43.5 -64.333 57.5 -105s21 -88 21 -142c0 -46 -6.66699 -87 -20 -123s-30 -68.167 -50 -96.5s-41.5 -53.666 -64.5 -75.999l-64.5 -61.5
c-20 -18.667 -36.667 -36.5 -50 -53.5s-20 -34.167 -20 -51.5c0 -23.333 5.66699 -43.666 17 -60.999s26.166 -32.333 44.499 -45s39 -23.334 62 -32.001s46.5 -16 70.5 -22s47.333 -11.333 70 -16s42.334 -9.33398 59.001 -14.001l97.5 -26.5
c34.333 -9 68.333 -19.333 102 -31s65.834 -25.667 96.501 -42s57.667 -35.666 81 -57.999s42 -48.666 56 -78.999s21 -65.833 21 -106.5c0 -50.667 -7.33301 -95.667 -22 -135s-34.834 -73.5 -60.501 -102.5s-55.667 -53.333 -90 -73s-71.5 -35.5 -111.5 -47.5
s-81.5 -20.667 -124.5 -26s-85.833 -8 -128.5 -8c-59.333 0 -111.666 4 -156.999 12s-88 20.333 -128 37s-79.333 37.834 -118 63.501s-81 56.5 -127 92.5l197 161c12.667 -24 31.667 -49.333 57 -76s53.5 -51.167 84.5 -73.5s63 -40.666 96 -54.999
s63.833 -21.5 92.5 -21.5c24 0 51.5 1.16699 82.5 3.5s60.5 8.33301 88.5 18s51.667 23.834 71 42.501s29 44.334 29 77.001c0 32 -11.167 58.5 -33.5 79.5s-51.666 38.833 -87.999 53.5s-77.833 27.667 -124.5 39l-143 35.5c-48.667 12.333 -96.334 26.5 -143.001 42.5
s-88.167 36.333 -124.5 61s-65.666 54.834 -87.999 90.501s-33.5 79.5 -33.5 131.5c0 37.333 4 69.5 12 96.5s18.667 50.667 32 71s28.5 38.333 45.5 54s34.167 30.667 51.5 45l51.5 44.5c17 15.333 32.167 32.833 45.5 52.5s24 42.334 32 68.001s12 56.167 12 91.5z" />
    <glyph glyph-name="agrave" unicode="&#xe0;" horiz-adv-x="1445" 
d="M1304 0l-338.003 0.00195312v138c-40 -54.667 -88.167 -95.167 -144.5 -121.5s-118.166 -39.5 -185.499 -39.5c-88 0 -166.667 15.667 -236 47s-128 74.166 -176 128.499s-84.667 118.166 -110 191.499s-38 152 -38 236s12.667 162.667 38 236s62 137.166 110 191.499
s106.667 97.166 176 128.499s148 47 236 47c44.667 0 87.167 -6.66699 127.5 -20s77.333 -32.166 111 -56.499s63.334 -53.666 89.001 -87.999s45.834 -72.5 60.501 -114.5l150 251h130v-1155zM963.997 580.002c0 30 -1.5 61.6641 -4.5 94.9971s-8.16699 66.333 -15.5 99
s-17.5 63.834 -30.5 93.501s-29.667 56 -50 79s-44.833 41.167 -73.5 54.5s-62 20 -100 20s-71 -6.83301 -99 -20.5s-52 -32 -72 -55s-36.5 -49.5 -49.5 -79.5s-23.167 -61.333 -30.5 -94s-12.5 -65.5 -15.5 -98.5s-4.5 -64.167 -4.5 -93.5s1.5 -60.666 4.5 -93.999
s8.16699 -66.333 15.5 -99s17.5 -64 30.5 -94s29.5 -56.5 49.5 -79.5s44 -41.333 72 -55s61 -20.5 99 -20.5c34.667 0 65.5 7.16699 92.5 21.5s50.667 33.5 71 57.5s37.5 51.333 51.5 82s25.333 62.334 34 95.001s15 65.167 19 97.5s6 61.833 6 88.5zM781.997 1283h-200
l-316 354h317z" />
    <glyph glyph-name="aacute" unicode="&#xe1;" horiz-adv-x="1445" 
d="M1304 0l-338.003 0.00195312v138c-40 -54.667 -88.167 -95.167 -144.5 -121.5s-118.166 -39.5 -185.499 -39.5c-88 0 -166.667 15.667 -236 47s-128 74.166 -176 128.499s-84.667 118.166 -110 191.499s-38 152 -38 236s12.667 162.667 38 236s62 137.166 110 191.499
s106.667 97.166 176 128.499s148 47 236 47c44.667 0 87.167 -6.66699 127.5 -20s77.333 -32.166 111 -56.499s63.334 -53.666 89.001 -87.999s45.834 -72.5 60.501 -114.5l150 251h130v-1155zM963.997 580.002c0 30 -1.5 61.6641 -4.5 94.9971s-8.16699 66.333 -15.5 99
s-17.5 63.834 -30.5 93.501s-29.667 56 -50 79s-44.833 41.167 -73.5 54.5s-62 20 -100 20s-71 -6.83301 -99 -20.5s-52 -32 -72 -55s-36.5 -49.5 -49.5 -79.5s-23.167 -61.333 -30.5 -94s-12.5 -65.5 -15.5 -98.5s-4.5 -64.167 -4.5 -93.5s1.5 -60.666 4.5 -93.999
s8.16699 -66.333 15.5 -99s17.5 -64 30.5 -94s29.5 -56.5 49.5 -79.5s44 -41.333 72 -55s61 -20.5 99 -20.5c34.667 0 65.5 7.16699 92.5 21.5s50.667 33.5 71 57.5s37.5 51.333 51.5 82s25.333 62.334 34 95.001s15 65.167 19 97.5s6 61.833 6 88.5zM1077 1637l-317 -354
h-199l198 354h318z" />
    <glyph glyph-name="acircumflex" unicode="&#xe2;" horiz-adv-x="1445" 
d="M1304 0l-338.003 0.00195312v138c-40 -54.667 -88.167 -95.167 -144.5 -121.5s-118.166 -39.5 -185.499 -39.5c-88 0 -166.667 15.667 -236 47s-128 74.166 -176 128.499s-84.667 118.166 -110 191.499s-38 152 -38 236s12.667 162.667 38 236s62 137.166 110 191.499
s106.667 97.166 176 128.499s148 47 236 47c44.667 0 87.167 -6.66699 127.5 -20s77.333 -32.166 111 -56.499s63.334 -53.666 89.001 -87.999s45.834 -72.5 60.501 -114.5l150 251h130v-1155zM963.997 580.002c0 30 -1.5 61.6641 -4.5 94.9971s-8.16699 66.333 -15.5 99
s-17.5 63.834 -30.5 93.501s-29.667 56 -50 79s-44.833 41.167 -73.5 54.5s-62 20 -100 20s-71 -6.83301 -99 -20.5s-52 -32 -72 -55s-36.5 -49.5 -49.5 -79.5s-23.167 -61.333 -30.5 -94s-12.5 -65.5 -15.5 -98.5s-4.5 -64.167 -4.5 -93.5s1.5 -60.666 4.5 -93.999
s8.16699 -66.333 15.5 -99s17.5 -64 30.5 -94s29.5 -56.5 49.5 -79.5s44 -41.333 72 -55s61 -20.5 99 -20.5c34.667 0 65.5 7.16699 92.5 21.5s50.667 33.5 71 57.5s37.5 51.333 51.5 82s25.333 62.334 34 95.001s15 65.167 19 97.5s6 61.833 6 88.5zM953.997 1280h-250
l-65 138l-66 -138h-146l193 355h135z" />
    <glyph glyph-name="atilde" unicode="&#xe3;" horiz-adv-x="1445" 
d="M1304 0l-338.003 0.00195312v138c-40 -54.667 -88.167 -95.167 -144.5 -121.5s-118.166 -39.5 -185.499 -39.5c-88 0 -166.667 15.667 -236 47s-128 74.166 -176 128.499s-84.667 118.166 -110 191.499s-38 152 -38 236s12.667 162.667 38 236s62 137.166 110 191.499
s106.667 97.166 176 128.499s148 47 236 47c44.667 0 87.167 -6.66699 127.5 -20s77.333 -32.166 111 -56.499s63.334 -53.666 89.001 -87.999s45.834 -72.5 60.501 -114.5l150 251h130v-1155zM963.997 580.002c0 30 -1.5 61.6641 -4.5 94.9971s-8.16699 66.333 -15.5 99
s-17.5 63.834 -30.5 93.501s-29.667 56 -50 79s-44.833 41.167 -73.5 54.5s-62 20 -100 20s-71 -6.83301 -99 -20.5s-52 -32 -72 -55s-36.5 -49.5 -49.5 -79.5s-23.167 -61.333 -30.5 -94s-12.5 -65.5 -15.5 -98.5s-4.5 -64.167 -4.5 -93.5s1.5 -60.666 4.5 -93.999
s8.16699 -66.333 15.5 -99s17.5 -64 30.5 -94s29.5 -56.5 49.5 -79.5s44 -41.333 72 -55s61 -20.5 99 -20.5c34.667 0 65.5 7.16699 92.5 21.5s50.667 33.5 71 57.5s37.5 51.333 51.5 82s25.333 62.334 34 95.001s15 65.167 19 97.5s6 61.833 6 88.5zM1079 1564
c-2.66699 -33.333 -8.99805 -68.3311 -18.998 -104.998s-24.5 -70.5 -43.5 -101.5s-42.833 -56.667 -71.5 -77s-62.667 -30.5 -102 -30.5s-74.833 5 -106.5 15s-60.334 21.167 -86.001 33.5l-70 33.5c-21 10 -40.833 15 -59.5 15c-12 0 -22 -3.16699 -30 -9.5
s-14.667 -14.333 -20 -24s-9.16602 -20.167 -11.499 -31.5s-3.5 -22 -3.5 -32h-155c1.33301 34.667 7 70.5 17 107.5s24.667 70.833 44 101.5s43.666 55.834 72.999 75.501s64.333 29.5 105 29.5c36 0 69.833 -5 101.5 -15s60.667 -20.833 87 -32.5l71 -32.5
c21 -10 39.167 -15 54.5 -15c11.333 0 21.166 3.16699 29.499 9.5s15 14.166 20 23.499s8.83301 19.666 11.5 30.999s4 21.666 4 30.999h160z" />
    <glyph glyph-name="adieresis" unicode="&#xe4;" horiz-adv-x="1445" 
d="M1304 0l-338.003 0.00195312v138c-40 -54.667 -88.167 -95.167 -144.5 -121.5s-118.166 -39.5 -185.499 -39.5c-88 0 -166.667 15.667 -236 47s-128 74.166 -176 128.499s-84.667 118.166 -110 191.499s-38 152 -38 236s12.667 162.667 38 236s62 137.166 110 191.499
s106.667 97.166 176 128.499s148 47 236 47c44.667 0 87.167 -6.66699 127.5 -20s77.333 -32.166 111 -56.499s63.334 -53.666 89.001 -87.999s45.834 -72.5 60.501 -114.5l150 251h130v-1155zM963.997 580.002c0 30 -1.5 61.6641 -4.5 94.9971s-8.16699 66.333 -15.5 99
s-17.5 63.834 -30.5 93.501s-29.667 56 -50 79s-44.833 41.167 -73.5 54.5s-62 20 -100 20s-71 -6.83301 -99 -20.5s-52 -32 -72 -55s-36.5 -49.5 -49.5 -79.5s-23.167 -61.333 -30.5 -94s-12.5 -65.5 -15.5 -98.5s-4.5 -64.167 -4.5 -93.5s1.5 -60.666 4.5 -93.999
s8.16699 -66.333 15.5 -99s17.5 -64 30.5 -94s29.5 -56.5 49.5 -79.5s44 -41.333 72 -55s61 -20.5 99 -20.5c34.667 0 65.5 7.16699 92.5 21.5s50.667 33.5 71 57.5s37.5 51.333 51.5 82s25.333 62.334 34 95.001s15 65.167 19 97.5s6 61.833 6 88.5zM1026 1417
c0 -20 -3.83301 -39 -11.5 -57s-18.167 -33.667 -31.5 -47s-29 -23.833 -47 -31.5s-37.333 -11.5 -58 -11.5c-20 0 -39 3.83301 -57 11.5s-33.667 18.167 -47 31.5s-23.833 29 -31.5 47s-11.5 37 -11.5 57s3.83301 39 11.5 57s18.167 33.667 31.5 47s29 23.833 47 31.5
s37 11.5 57 11.5c20.667 0 40 -3.83301 58 -11.5s33.667 -18.167 47 -31.5s23.833 -29 31.5 -47s11.5 -37 11.5 -57zM648.997 1417c0 -20 -3.83301 -39 -11.5 -57s-18.167 -33.667 -31.5 -47s-29 -23.833 -47 -31.5s-37.333 -11.5 -58 -11.5c-20 0 -39 3.83301 -57 11.5
s-33.667 18.167 -47 31.5s-23.833 29 -31.5 47s-11.5 37 -11.5 57s3.83301 39 11.5 57s18.167 33.667 31.5 47s29 23.833 47 31.5s37 11.5 57 11.5c20.667 0 40 -3.83301 58 -11.5s33.667 -18.167 47 -31.5s23.833 -29 31.5 -47s11.5 -37 11.5 -57z" />
    <glyph glyph-name="aring" unicode="&#xe5;" horiz-adv-x="1445" 
d="M1304 0l-338.003 0.00195312v138c-40 -54.667 -88.167 -95.167 -144.5 -121.5s-118.166 -39.5 -185.499 -39.5c-88 0 -166.667 15.667 -236 47s-128 74.166 -176 128.499s-84.667 118.166 -110 191.499s-38 152 -38 236s12.667 162.667 38 236s62 137.166 110 191.499
s106.667 97.166 176 128.499s148 47 236 47c44.667 0 87.167 -6.66699 127.5 -20s77.333 -32.166 111 -56.499s63.334 -53.666 89.001 -87.999s45.834 -72.5 60.501 -114.5l150 251h130v-1155zM963.997 580.002c0 30 -1.5 61.6641 -4.5 94.9971s-8.16699 66.333 -15.5 99
s-17.5 63.834 -30.5 93.501s-29.667 56 -50 79s-44.833 41.167 -73.5 54.5s-62 20 -100 20s-71 -6.83301 -99 -20.5s-52 -32 -72 -55s-36.5 -49.5 -49.5 -79.5s-23.167 -61.333 -30.5 -94s-12.5 -65.5 -15.5 -98.5s-4.5 -64.167 -4.5 -93.5s1.5 -60.666 4.5 -93.999
s8.16699 -66.333 15.5 -99s17.5 -64 30.5 -94s29.5 -56.5 49.5 -79.5s44 -41.333 72 -55s61 -20.5 99 -20.5c34.667 0 65.5 7.16699 92.5 21.5s50.667 33.5 71 57.5s37.5 51.333 51.5 82s25.333 62.334 34 95.001s15 65.167 19 97.5s6 61.833 6 88.5zM916.997 1492
c0 -31.333 -6.00195 -60.833 -18.002 -88.5s-28.167 -51.667 -48.5 -72s-44.333 -36.5 -72 -48.5s-57.167 -18 -88.5 -18s-60.833 6 -88.5 18s-51.667 28.167 -72 48.5s-36.333 44.333 -48 72s-17.5 57.167 -17.5 88.5s5.83301 60.833 17.5 88.5
s27.834 51.834 48.501 72.501s44.667 37 72 49s56.666 18 87.999 18c30.667 0 59.834 -6 87.501 -18s51.834 -28.333 72.501 -49s37 -44.834 49 -72.501s18 -57.167 18 -88.5zM773.995 1492c0 22.667 -8.33301 42.3359 -25 59.0029s-36.334 25 -59.001 25
c-23.333 0 -42.833 -8.33301 -58.5 -25s-23.5 -36.334 -23.5 -59.001s7.83301 -42.334 23.5 -59.001s35.167 -25 58.5 -25c22.667 0 42.334 8.16699 59.001 24.5s25 36.166 25 59.499z" />
    <glyph glyph-name="ae" unicode="&#xe6;" horiz-adv-x="2152" 
d="M904 612c-42 8.66699 -83.668 15.8369 -125.001 21.5039s-83 8.5 -125 8.5c-44 0 -84.833 -4.16699 -122.5 -12.5s-70.334 -22.333 -98.001 -42s-49.5 -45.834 -65.5 -78.501s-24 -73.334 -24 -122.001c0 -39.333 5.33301 -75.333 16 -108s26.5 -60.667 47.5 -84
s47 -41.5 78 -54.5s66.833 -19.5 107.5 -19.5c56.667 0 104.834 11.167 144.501 33.5s71.834 53.666 96.501 93.999s42.5 88.666 53.5 144.999s16.5 118.5 16.5 186.5v32zM1249 548.003c41.333 -9.33301 82.668 -16.6699 124.001 -22.0029s83 -8 125 -8
c44 0 84.833 4.16699 122.5 12.5s70.334 22.333 98.001 42s49.5 45.834 65.5 78.501s24 73.334 24 122.001c0 39.333 -5.33301 75.333 -16 108s-26.5 60.667 -47.5 84s-46.833 41.5 -77.5 54.5s-66.334 19.5 -107.001 19.5c-38 0 -72.167 -7 -102.5 -21
s-57 -32.833 -80 -56.5s-42.667 -51.167 -59 -82.5s-29.833 -64 -40.5 -98s-18.334 -68.333 -23.001 -103s-7 -67.334 -7 -98.001c0 -5.33301 0.166992 -10.666 0.5 -15.999s0.5 -10.666 0.5 -15.999zM2082 775.999c0 -47.333 -7.66992 -89.499 -23.0029 -126.499
s-36.166 -69.5 -62.499 -97.5s-56.833 -51.667 -91.5 -71s-71.667 -35.166 -111 -47.499s-79.833 -21.166 -121.5 -26.499s-82.167 -8 -121.5 -8c-50 0 -99.333 3.5 -148 10.5s-96.667 18.167 -144 33.5c7.33301 -44 19 -85.833 35 -125.5s37.5 -74.334 64.5 -104.001
s59.833 -53.167 98.5 -70.5s84.667 -26 138 -26c35.333 0 69 5.33301 101 16s61.333 25.667 88 45s50.167 42.333 70.5 69s36.833 56.334 49.5 89.001l146 -54c-22 -52.667 -52.167 -98.167 -90.5 -136.5s-81.666 -70 -129.999 -95s-99.666 -43.5 -153.999 -55.5
s-108.166 -18 -161.499 -18c-61.333 0 -116.333 5 -165 15s-93.667 25.5 -135 46.5s-80.5 48 -117.5 81s-74.5 72.833 -112.5 119.5c-12.667 -32 -32 -63.5 -58 -94.5s-56.5 -59 -91.5 -84s-73.5 -45.167 -115.5 -60.5s-85.333 -23 -130 -23
c-64 0 -127.167 6.83301 -189.5 20.5s-117.833 36.167 -166.5 67.5s-88 73 -118 125s-45 116.333 -45 193c0 47.333 7.66699 89.666 23 126.999s36.166 70 62.499 98s57 51.667 92 71s72.167 35.166 111.5 47.499s79.833 21.166 121.5 26.499s82.167 8 121.5 8
c49.333 0 98.333 -3.5 147 -10.5s96.667 -18.167 144 -33.5c-7.33301 44 -19 85.667 -35 125s-37.333 74 -64 104s-59.5 53.667 -98.5 71s-84.833 26 -137.5 26c-35.333 0 -69 -5.33301 -101 -16s-61.333 -25.667 -88 -45s-50.334 -42.5 -71.001 -69.5
s-37 -56.833 -49 -89.5l-147 55c22 52.667 52.333 98.167 91 136.5s82 70 130 95s99.167 43.5 153.5 55.5s108.5 18 162.5 18c88.667 0 170.167 -14.833 244.5 -44.5s138.5 -71.5 192.5 -125.5c54.667 54 119.167 95.833 193.5 125.5s155.833 44.5 244.5 44.5
c42.667 0 86.334 -3 131.001 -9s88 -15.5 130 -28.5s81.667 -29.833 119 -50.5s69.833 -46.167 97.5 -76.5s49.667 -65.5 66 -105.5s24.5 -85.667 24.5 -137z" />
    <glyph glyph-name="ccedilla" unicode="&#xe7;" horiz-adv-x="1268" 
d="M877 -237c0 -35.333 -6.00195 -66 -18.002 -92s-28.5 -47.833 -49.5 -65.5s-45.833 -30.834 -74.5 -39.501s-59.334 -13 -92.001 -13c-26.667 0 -51.667 5.16699 -75 15.5s-43.666 24.166 -60.999 41.499s-31 37.833 -41 61.5s-15 48.834 -15 75.501h113
c0.666992 -19.333 9.16699 -33.833 25.5 -43.5s32.833 -14.5 49.5 -14.5c27.333 0 47.166 5.33301 59.499 16s18.5 30 18.5 58c0 14.667 -5.16699 26 -15.5 34s-22.833 14 -37.5 18s-29.667 6.5 -45 7.5s-28.333 1.5 -39 1.5l35 157c-78.667 8 -151 28.167 -217 60.5
s-122.833 74.833 -170.5 127.5s-84.834 113.834 -111.501 183.501s-40 145.5 -40 227.5c0 88.667 15.167 170 45.5 244s72.5 137.667 126.5 191s118.333 94.666 193 123.999s156.334 44 245.001 44c56 0 110.667 -6.16699 164 -18.5s102.833 -31.333 148.5 -57
s86.667 -58.167 123 -97.5s65.5 -86.333 87.5 -141l-146 -58c-23.333 73.333 -62.333 129.666 -117 168.999s-120.334 59 -197.001 59c-41.333 0 -78.166 -6.5 -110.499 -19.5s-60.666 -30.833 -84.999 -53.5s-45 -49 -62 -79s-30.833 -62 -41.5 -96
s-18.334 -69.167 -23.001 -105.5s-7 -71.5 -7 -105.5c0 -36.667 2 -73.667 6 -111s10.833 -73.166 20.5 -107.499s22.5 -66.333 38.5 -96s36.167 -55.5 60.5 -77.5s53.333 -39.333 87 -52s72.5 -19 116.5 -19c35.333 0 69 5.33301 101 16s61.333 25.667 88 45
s50.334 42.333 71.001 69s37 56.334 49 89.001l147 -54c-20.667 -49.333 -47.667 -92.333 -81 -129s-71.166 -67.5 -113.499 -92.5s-87.666 -44.333 -135.999 -58s-97.833 -21.834 -148.5 -24.501l-18 -70c20.667 0 41.167 -3.16699 61.5 -9.5s38.5 -15.666 54.5 -27.999
s28.833 -27.5 38.5 -45.5s14.5 -38.667 14.5 -62z" />
    <glyph glyph-name="egrave" unicode="&#xe8;" horiz-adv-x="1322" 
d="M419 548c41.333 -9.33301 82.668 -16.6689 124.001 -22.002s83 -8 125 -8c44 0 84.833 4.16699 122.5 12.5s70.334 22.333 98.001 42s49.5 45.834 65.5 78.501s24 73.334 24 122.001c0 39.333 -5.33301 75.333 -16 108s-26.5 60.667 -47.5 84s-46.833 41.5 -77.5 54.5
s-66.334 19.5 -107.001 19.5c-38 0 -72.167 -7 -102.5 -21s-57 -32.833 -80 -56.5s-42.667 -51.167 -59 -82.5s-29.833 -64 -40.5 -98s-18.334 -68.333 -23.001 -103s-7 -67.334 -7 -98.001v-16c0 -5.33301 0.333008 -10.666 1 -15.999zM1252 775.997
c0 -47.333 -7.67188 -89.502 -23.0049 -126.502s-36.166 -69.5 -62.499 -97.5s-56.833 -51.667 -91.5 -71s-71.667 -35.166 -111 -47.499s-79.833 -21.166 -121.5 -26.499s-82.167 -8 -121.5 -8c-50 0 -99.333 3.5 -148 10.5s-96.667 18.167 -144 33.5
c7.33301 -44 19 -85.833 35 -125.5s37.333 -74.334 64 -104.001s59.5 -53.167 98.5 -70.5s85.167 -26 138.5 -26c35.333 0 69 5.33301 101 16s61.333 25.667 88 45s50.167 42.333 70.5 69s36.833 56.334 49.5 89.001l146 -54c-22 -52.667 -52.167 -98.167 -90.5 -136.5
s-81.666 -70 -129.999 -95s-99.666 -43.5 -153.999 -55.5s-108.166 -18 -161.499 -18c-88 0 -169.333 14.833 -244 44.5s-139 71.167 -193 124.5s-96.333 117 -127 191s-46 155 -46 243s15.333 169 46 243s73 137.667 127 191s118.333 94.833 193 124.5s156 44.5 244 44.5
c42.667 0 86.334 -3 131.001 -9s88 -15.5 130 -28.5s81.667 -29.833 119 -50.5s69.833 -46.167 97.5 -76.5s49.667 -65.5 66 -105.5s24.5 -85.667 24.5 -137zM803.997 1283h-200l-316 354h317z" />
    <glyph glyph-name="eacute" unicode="&#xe9;" horiz-adv-x="1322" 
d="M419 548c41.333 -9.33301 82.668 -16.6689 124.001 -22.002s83 -8 125 -8c44 0 84.833 4.16699 122.5 12.5s70.334 22.333 98.001 42s49.5 45.834 65.5 78.501s24 73.334 24 122.001c0 39.333 -5.33301 75.333 -16 108s-26.5 60.667 -47.5 84s-46.833 41.5 -77.5 54.5
s-66.334 19.5 -107.001 19.5c-38 0 -72.167 -7 -102.5 -21s-57 -32.833 -80 -56.5s-42.667 -51.167 -59 -82.5s-29.833 -64 -40.5 -98s-18.334 -68.333 -23.001 -103s-7 -67.334 -7 -98.001v-16c0 -5.33301 0.333008 -10.666 1 -15.999zM1252 775.997
c0 -47.333 -7.67188 -89.502 -23.0049 -126.502s-36.166 -69.5 -62.499 -97.5s-56.833 -51.667 -91.5 -71s-71.667 -35.166 -111 -47.499s-79.833 -21.166 -121.5 -26.499s-82.167 -8 -121.5 -8c-50 0 -99.333 3.5 -148 10.5s-96.667 18.167 -144 33.5
c7.33301 -44 19 -85.833 35 -125.5s37.333 -74.334 64 -104.001s59.5 -53.167 98.5 -70.5s85.167 -26 138.5 -26c35.333 0 69 5.33301 101 16s61.333 25.667 88 45s50.167 42.333 70.5 69s36.833 56.334 49.5 89.001l146 -54c-22 -52.667 -52.167 -98.167 -90.5 -136.5
s-81.666 -70 -129.999 -95s-99.666 -43.5 -153.999 -55.5s-108.166 -18 -161.499 -18c-88 0 -169.333 14.833 -244 44.5s-139 71.167 -193 124.5s-96.333 117 -127 191s-46 155 -46 243s15.333 169 46 243s73 137.667 127 191s118.333 94.833 193 124.5s156 44.5 244 44.5
c42.667 0 86.334 -3 131.001 -9s88 -15.5 130 -28.5s81.667 -29.833 119 -50.5s69.833 -46.167 97.5 -76.5s49.667 -65.5 66 -105.5s24.5 -85.667 24.5 -137zM1116 1637l-317 -354h-199l198 354h318z" />
    <glyph glyph-name="ecircumflex" unicode="&#xea;" horiz-adv-x="1322" 
d="M419 548c41.333 -9.33301 82.668 -16.6689 124.001 -22.002s83 -8 125 -8c44 0 84.833 4.16699 122.5 12.5s70.334 22.333 98.001 42s49.5 45.834 65.5 78.501s24 73.334 24 122.001c0 39.333 -5.33301 75.333 -16 108s-26.5 60.667 -47.5 84s-46.833 41.5 -77.5 54.5
s-66.334 19.5 -107.001 19.5c-38 0 -72.167 -7 -102.5 -21s-57 -32.833 -80 -56.5s-42.667 -51.167 -59 -82.5s-29.833 -64 -40.5 -98s-18.334 -68.333 -23.001 -103s-7 -67.334 -7 -98.001v-16c0 -5.33301 0.333008 -10.666 1 -15.999zM1252 775.997
c0 -47.333 -7.67188 -89.502 -23.0049 -126.502s-36.166 -69.5 -62.499 -97.5s-56.833 -51.667 -91.5 -71s-71.667 -35.166 -111 -47.499s-79.833 -21.166 -121.5 -26.499s-82.167 -8 -121.5 -8c-50 0 -99.333 3.5 -148 10.5s-96.667 18.167 -144 33.5
c7.33301 -44 19 -85.833 35 -125.5s37.333 -74.334 64 -104.001s59.5 -53.167 98.5 -70.5s85.167 -26 138.5 -26c35.333 0 69 5.33301 101 16s61.333 25.667 88 45s50.167 42.333 70.5 69s36.833 56.334 49.5 89.001l146 -54c-22 -52.667 -52.167 -98.167 -90.5 -136.5
s-81.666 -70 -129.999 -95s-99.666 -43.5 -153.999 -55.5s-108.166 -18 -161.499 -18c-88 0 -169.333 14.833 -244 44.5s-139 71.167 -193 124.5s-96.333 117 -127 191s-46 155 -46 243s15.333 169 46 243s73 137.667 127 191s118.333 94.833 193 124.5s156 44.5 244 44.5
c42.667 0 86.334 -3 131.001 -9s88 -15.5 130 -28.5s81.667 -29.833 119 -50.5s69.833 -46.167 97.5 -76.5s49.667 -65.5 66 -105.5s24.5 -85.667 24.5 -137zM985.997 1286h-250l-65 138l-66 -138h-146l193 355h135z" />
    <glyph glyph-name="edieresis" unicode="&#xeb;" horiz-adv-x="1322" 
d="M419 548c41.333 -9.33301 82.668 -16.6689 124.001 -22.002s83 -8 125 -8c44 0 84.833 4.16699 122.5 12.5s70.334 22.333 98.001 42s49.5 45.834 65.5 78.501s24 73.334 24 122.001c0 39.333 -5.33301 75.333 -16 108s-26.5 60.667 -47.5 84s-46.833 41.5 -77.5 54.5
s-66.334 19.5 -107.001 19.5c-38 0 -72.167 -7 -102.5 -21s-57 -32.833 -80 -56.5s-42.667 -51.167 -59 -82.5s-29.833 -64 -40.5 -98s-18.334 -68.333 -23.001 -103s-7 -67.334 -7 -98.001v-16c0 -5.33301 0.333008 -10.666 1 -15.999zM1252 775.997
c0 -47.333 -7.67188 -89.502 -23.0049 -126.502s-36.166 -69.5 -62.499 -97.5s-56.833 -51.667 -91.5 -71s-71.667 -35.166 -111 -47.499s-79.833 -21.166 -121.5 -26.499s-82.167 -8 -121.5 -8c-50 0 -99.333 3.5 -148 10.5s-96.667 18.167 -144 33.5
c7.33301 -44 19 -85.833 35 -125.5s37.333 -74.334 64 -104.001s59.5 -53.167 98.5 -70.5s85.167 -26 138.5 -26c35.333 0 69 5.33301 101 16s61.333 25.667 88 45s50.167 42.333 70.5 69s36.833 56.334 49.5 89.001l146 -54c-22 -52.667 -52.167 -98.167 -90.5 -136.5
s-81.666 -70 -129.999 -95s-99.666 -43.5 -153.999 -55.5s-108.166 -18 -161.499 -18c-88 0 -169.333 14.833 -244 44.5s-139 71.167 -193 124.5s-96.333 117 -127 191s-46 155 -46 243s15.333 169 46 243s73 137.667 127 191s118.333 94.833 193 124.5s156 44.5 244 44.5
c42.667 0 86.334 -3 131.001 -9s88 -15.5 130 -28.5s81.667 -29.833 119 -50.5s69.833 -46.167 97.5 -76.5s49.667 -65.5 66 -105.5s24.5 -85.667 24.5 -137zM1040 1408c0 -20 -3.83301 -39 -11.5 -57s-18.167 -33.667 -31.5 -47s-29 -23.833 -47 -31.5
s-37.333 -11.5 -58 -11.5c-20 0 -39 3.83301 -57 11.5s-33.667 18.167 -47 31.5s-23.833 29 -31.5 47s-11.5 37 -11.5 57s3.83301 39 11.5 57s18.167 33.667 31.5 47s29 23.833 47 31.5s37 11.5 57 11.5c20.667 0 40 -3.83301 58 -11.5s33.667 -18.167 47 -31.5
s23.833 -29 31.5 -47s11.5 -37 11.5 -57zM662.997 1408c0 -20 -3.83301 -39 -11.5 -57s-18.167 -33.667 -31.5 -47s-29 -23.833 -47 -31.5s-37.333 -11.5 -58 -11.5c-20 0 -39 3.83301 -57 11.5s-33.667 18.167 -47 31.5s-23.833 29 -31.5 47s-11.5 37 -11.5 57
s3.83301 39 11.5 57s18.167 33.667 31.5 47s29 23.833 47 31.5s37 11.5 57 11.5c20.667 0 40 -3.83301 58 -11.5s33.667 -18.167 47 -31.5s23.833 -29 31.5 -47s11.5 -37 11.5 -57z" />
    <glyph glyph-name="igrave" unicode="&#xec;" horiz-adv-x="623" 
d="M481 0h-339v1154h339v-1154zM419 1255h-200l-316 354h317z" />
    <glyph glyph-name="iacute" unicode="&#xed;" horiz-adv-x="622" 
d="M481 0h-339v1154h339v-1154zM723 1610l-317 -354h-199l198 354h318z" />
    <glyph glyph-name="icircumflex" unicode="&#xee;" horiz-adv-x="623" 
d="M481 0h-339v1154h339v-1154zM575 1258h-250l-65 138l-66 -138h-146l193 355h135z" />
    <glyph glyph-name="idieresis" unicode="&#xef;" horiz-adv-x="622" 
d="M481 0h-339v1154h339v-1154zM648 1403c0 -20 -3.83301 -39 -11.5 -57s-18.167 -33.667 -31.5 -47s-29 -23.833 -47 -31.5s-37.333 -11.5 -58 -11.5c-20 0 -39 3.83301 -57 11.5s-33.667 18.167 -47 31.5s-23.833 29 -31.5 47s-11.5 37 -11.5 57s3.83301 39 11.5 57
s18.167 33.667 31.5 47s29 23.833 47 31.5s37 11.5 57 11.5c20.667 0 40 -3.83301 58 -11.5s33.667 -18.167 47 -31.5s23.833 -29 31.5 -47s11.5 -37 11.5 -57zM271 1403c0 -20 -3.83301 -39 -11.5 -57s-18.167 -33.667 -31.5 -47s-29 -23.833 -47 -31.5
s-37.333 -11.5 -58 -11.5c-20 0 -39 3.83301 -57 11.5s-33.667 18.167 -47 31.5s-23.833 29 -31.5 47s-11.5 37 -11.5 57s3.83301 39 11.5 57s18.167 33.667 31.5 47s29 23.833 47 31.5s37 11.5 57 11.5c20.667 0 40 -3.83301 58 -11.5s33.667 -18.167 47 -31.5
s23.833 -29 31.5 -47s11.5 -37 11.5 -57z" />
    <glyph glyph-name="eth" unicode="&#xf0;" horiz-adv-x="1466" 
d="M1017 580c0 32 -1.83105 65.833 -5.49805 101.5s-9.83398 70.667 -18.501 105s-20.5 67.333 -35.5 99s-33.5 59.334 -55.5 83.001s-48.333 42.667 -79 57s-66.334 21.5 -107.001 21.5c-38.667 0 -73 -7.33301 -103 -22s-56.167 -34.167 -78.5 -58.5s-41 -52.5 -56 -84.5
s-27.167 -65.167 -36.5 -99.5s-16 -69 -20 -104s-6 -67.833 -6 -98.5s2 -63.5 6 -98.5s10.667 -69.833 20 -104.5s21.5 -67.834 36.5 -99.501s33.667 -59.667 56 -84s48.5 -43.833 78.5 -58.5s64.333 -22 103 -22c40 0 75.333 7.16699 106 21.5s57.167 33.5 79.5 57.5
s40.833 51.667 55.5 83s26.5 64.333 35.5 99s15.333 69.667 19 105s5.5 69 5.5 101zM1315 1498l-169 -53.0029c40 -74 73.833 -149.333 101.5 -226s49.834 -151.834 66.501 -225.501s28.667 -144.334 36 -212.001s11 -129.834 11 -186.501
c0 -96 -17.667 -182.167 -53 -258.5s-82.833 -141.166 -142.5 -194.499s-128.334 -94.166 -206.001 -122.499s-158.834 -42.5 -243.501 -42.5c-57.333 0 -113 6.66699 -167 20s-104.833 32.333 -152.5 57s-91.5 54.834 -131.5 90.501s-74.167 75.834 -102.5 120.501
s-50.5 93.5 -66.5 146.5s-24 109.167 -24 168.5s8 115.5 24 168.5s38.167 101.833 66.5 146.5s62.5 84.834 102.5 120.501s83.833 65.834 131.5 90.501s98.5 43.667 152.5 57s109.667 20 167 20c52 0 103.333 -9.16699 154 -27.5s96.667 -46.833 138 -85.5
c-6.66699 46.667 -16.667 96.667 -30 150s-28.666 106 -45.999 158l-253 -80v184l190 60l-25.5 55c-8.33301 17.333 -16.833 33.333 -25.5 48l132 80l52.5 -62.5c17 -21 33.167 -42.167 48.5 -63.5l264 83v-184z" />
    <glyph glyph-name="ntilde" unicode="&#xf1;" 
d="M1322 662c0 -78 -9.49707 -159.333 -28.4971 -244s-45.5 -167.667 -79.5 -249s-74.667 -157.833 -122 -229.5s-99.333 -133.5 -156 -185.5l-127 69c18 33.333 35 70.666 51 111.999s30.5 85.166 43.5 131.499s24.667 94.166 35 143.499s19 98.166 26 146.499
s12.333 95.333 16 141s5.5 88.167 5.5 127.5c0 26 -1 53.833 -3 83.5s-6.16699 59.334 -12.5 89.001s-14.833 58.167 -25.5 85.5s-24.834 51.333 -42.501 72s-39 37.334 -64 50.001s-54.5 19 -88.5 19c-33.333 0 -63 -7.5 -89 -22.5s-49 -34.667 -69 -59
s-37.167 -52.166 -51.5 -83.499s-26 -63.5 -35 -96.5s-15.5 -65.5 -19.5 -97.5s-6 -60.667 -6 -86v-579h-339v1155h130l155 -269c18.667 44.667 42 85.334 70 122.001s59.667 68 95 94s74.5 46 117.5 60s89.5 21 139.5 21c80 0 149.667 -13 209 -39
s108.666 -62.167 147.999 -108.5s68.666 -101.333 87.999 -165s29 -133.167 29 -208.5zM1121 1591c-2.66699 -33.333 -8.99805 -68.3311 -18.998 -104.998s-24.5 -70.5 -43.5 -101.5s-42.833 -56.667 -71.5 -77s-62.667 -30.5 -102 -30.5s-74.833 5 -106.5 15
s-60.334 21.167 -86.001 33.5l-70 33.5c-21 10 -40.833 15 -59.5 15c-12 0 -22 -3.16699 -30 -9.5s-14.667 -14.333 -20 -24s-9.16602 -20.167 -11.499 -31.5s-3.5 -22 -3.5 -32h-155c1.33301 34.667 7 70.5 17 107.5s24.667 70.833 44 101.5s43.666 55.834 72.999 75.501
s64.333 29.5 105 29.5c36 0 69.833 -5 101.5 -15s60.667 -20.833 87 -32.5l71 -32.5c21 -10 39.167 -15 54.5 -15c11.333 0 21.166 3.16699 29.499 9.5s15 14.166 20 23.499s8.83301 19.666 11.5 30.999s4 21.666 4 30.999h160z" />
    <glyph glyph-name="ograve" unicode="&#xf2;" horiz-adv-x="1433" 
d="M1361 580c0 -60 -8 -116.332 -24 -168.999s-38.167 -101.334 -66.5 -146.001s-62.5 -84.834 -102.5 -120.501s-83.833 -65.834 -131.5 -90.501s-98.667 -43.667 -153 -57s-110.166 -20 -167.499 -20s-113 6.66699 -167 20s-104.833 32.333 -152.5 57
s-91.5 54.834 -131.5 90.501s-74.167 75.834 -102.5 120.501s-50.5 93.5 -66.5 146.5s-24 109.167 -24 168.5s8 115.5 24 168.5s38.167 101.833 66.5 146.5s62.5 84.834 102.5 120.501s83.833 65.834 131.5 90.501s98.5 43.667 152.5 57s109.667 20 167 20
s113.166 -6.66699 167.499 -20s105.333 -32.333 153 -57s91.5 -54.834 131.5 -90.501s74.167 -75.834 102.5 -120.501s50.5 -93.5 66.5 -146.5s24 -109.167 24 -168.5zM1017 580.001c0 32 -1.83105 65.833 -5.49805 101.5s-9.83398 70.667 -18.501 105
s-20.5 67.333 -35.5 99s-33.5 59.334 -55.5 83.001s-48.333 42.667 -79 57s-66.334 21.5 -107.001 21.5c-38.667 0 -73 -7.33301 -103 -22s-56.167 -34.167 -78.5 -58.5s-41 -52.5 -56 -84.5s-27.167 -65.167 -36.5 -99.5s-16 -69 -20 -104s-6 -67.833 -6 -98.5
s2 -63.5 6 -98.5s10.667 -69.833 20 -104.5s21.5 -67.834 36.5 -99.501s33.667 -59.667 56 -84s48.5 -43.833 78.5 -58.5s64.333 -22 103 -22c40 0 75.333 7.16699 106 21.5s57.167 33.5 79.5 57.5s40.833 51.667 55.5 83s26.5 64.333 35.5 99s15.333 69.667 19 105
s5.5 69 5.5 101zM832.002 1274h-200l-316 354h317z" />
    <glyph glyph-name="oacute" unicode="&#xf3;" horiz-adv-x="1433" 
d="M1361 580c0 -60 -8 -116.332 -24 -168.999s-38.167 -101.334 -66.5 -146.001s-62.5 -84.834 -102.5 -120.501s-83.833 -65.834 -131.5 -90.501s-98.667 -43.667 -153 -57s-110.166 -20 -167.499 -20s-113 6.66699 -167 20s-104.833 32.333 -152.5 57
s-91.5 54.834 -131.5 90.501s-74.167 75.834 -102.5 120.501s-50.5 93.5 -66.5 146.5s-24 109.167 -24 168.5s8 115.5 24 168.5s38.167 101.833 66.5 146.5s62.5 84.834 102.5 120.501s83.833 65.834 131.5 90.501s98.5 43.667 152.5 57s109.667 20 167 20
s113.166 -6.66699 167.499 -20s105.333 -32.333 153 -57s91.5 -54.834 131.5 -90.501s74.167 -75.834 102.5 -120.501s50.5 -93.5 66.5 -146.5s24 -109.167 24 -168.5zM1017 580.001c0 32 -1.83105 65.833 -5.49805 101.5s-9.83398 70.667 -18.501 105
s-20.5 67.333 -35.5 99s-33.5 59.334 -55.5 83.001s-48.333 42.667 -79 57s-66.334 21.5 -107.001 21.5c-38.667 0 -73 -7.33301 -103 -22s-56.167 -34.167 -78.5 -58.5s-41 -52.5 -56 -84.5s-27.167 -65.167 -36.5 -99.5s-16 -69 -20 -104s-6 -67.833 -6 -98.5
s2 -63.5 6 -98.5s10.667 -69.833 20 -104.5s21.5 -67.834 36.5 -99.501s33.667 -59.667 56 -84s48.5 -43.833 78.5 -58.5s64.333 -22 103 -22c40 0 75.333 7.16699 106 21.5s57.167 33.5 79.5 57.5s40.833 51.667 55.5 83s26.5 64.333 35.5 99s15.333 69.667 19 105
s5.5 69 5.5 101zM1150 1627l-317 -354h-199l198 354h318z" />
    <glyph glyph-name="ocircumflex" unicode="&#xf4;" horiz-adv-x="1433" 
d="M1361 580c0 -60 -8 -116.332 -24 -168.999s-38.167 -101.334 -66.5 -146.001s-62.5 -84.834 -102.5 -120.501s-83.833 -65.834 -131.5 -90.501s-98.667 -43.667 -153 -57s-110.166 -20 -167.499 -20s-113 6.66699 -167 20s-104.833 32.333 -152.5 57
s-91.5 54.834 -131.5 90.501s-74.167 75.834 -102.5 120.501s-50.5 93.5 -66.5 146.5s-24 109.167 -24 168.5s8 115.5 24 168.5s38.167 101.833 66.5 146.5s62.5 84.834 102.5 120.501s83.833 65.834 131.5 90.501s98.5 43.667 152.5 57s109.667 20 167 20
s113.166 -6.66699 167.499 -20s105.333 -32.333 153 -57s91.5 -54.834 131.5 -90.501s74.167 -75.834 102.5 -120.501s50.5 -93.5 66.5 -146.5s24 -109.167 24 -168.5zM1017 580.001c0 32 -1.83105 65.833 -5.49805 101.5s-9.83398 70.667 -18.501 105
s-20.5 67.333 -35.5 99s-33.5 59.334 -55.5 83.001s-48.333 42.667 -79 57s-66.334 21.5 -107.001 21.5c-38.667 0 -73 -7.33301 -103 -22s-56.167 -34.167 -78.5 -58.5s-41 -52.5 -56 -84.5s-27.167 -65.167 -36.5 -99.5s-16 -69 -20 -104s-6 -67.833 -6 -98.5
s2 -63.5 6 -98.5s10.667 -69.833 20 -104.5s21.5 -67.834 36.5 -99.501s33.667 -59.667 56 -84s48.5 -43.833 78.5 -58.5s64.333 -22 103 -22c40 0 75.333 7.16699 106 21.5s57.167 33.5 79.5 57.5s40.833 51.667 55.5 83s26.5 64.333 35.5 99s15.333 69.667 19 105
s5.5 69 5.5 101zM980.002 1277h-250l-65 138l-66 -138h-146l193 355h135z" />
    <glyph glyph-name="otilde" unicode="&#xf5;" horiz-adv-x="1433" 
d="M1361 580c0 -60 -8 -116.332 -24 -168.999s-38.167 -101.334 -66.5 -146.001s-62.5 -84.834 -102.5 -120.501s-83.833 -65.834 -131.5 -90.501s-98.667 -43.667 -153 -57s-110.166 -20 -167.499 -20s-113 6.66699 -167 20s-104.833 32.333 -152.5 57
s-91.5 54.834 -131.5 90.501s-74.167 75.834 -102.5 120.501s-50.5 93.5 -66.5 146.5s-24 109.167 -24 168.5s8 115.5 24 168.5s38.167 101.833 66.5 146.5s62.5 84.834 102.5 120.501s83.833 65.834 131.5 90.501s98.5 43.667 152.5 57s109.667 20 167 20
s113.166 -6.66699 167.499 -20s105.333 -32.333 153 -57s91.5 -54.834 131.5 -90.501s74.167 -75.834 102.5 -120.501s50.5 -93.5 66.5 -146.5s24 -109.167 24 -168.5zM1017 580.001c0 32 -1.83105 65.833 -5.49805 101.5s-9.83398 70.667 -18.501 105
s-20.5 67.333 -35.5 99s-33.5 59.334 -55.5 83.001s-48.333 42.667 -79 57s-66.334 21.5 -107.001 21.5c-38.667 0 -73 -7.33301 -103 -22s-56.167 -34.167 -78.5 -58.5s-41 -52.5 -56 -84.5s-27.167 -65.167 -36.5 -99.5s-16 -69 -20 -104s-6 -67.833 -6 -98.5
s2 -63.5 6 -98.5s10.667 -69.833 20 -104.5s21.5 -67.834 36.5 -99.501s33.667 -59.667 56 -84s48.5 -43.833 78.5 -58.5s64.333 -22 103 -22c40 0 75.333 7.16699 106 21.5s57.167 33.5 79.5 57.5s40.833 51.667 55.5 83s26.5 64.333 35.5 99s15.333 69.667 19 105
s5.5 69 5.5 101zM1106 1583c-2.66699 -33.333 -8.99805 -68.3311 -18.998 -104.998s-24.5 -70.5 -43.5 -101.5s-42.833 -56.667 -71.5 -77s-62.667 -30.5 -102 -30.5s-74.833 5 -106.5 15s-60.334 21.167 -86.001 33.5l-70 33.5c-21 10 -40.833 15 -59.5 15
c-12 0 -22 -3.16699 -30 -9.5s-14.667 -14.333 -20 -24s-9.16602 -20.167 -11.499 -31.5s-3.5 -22 -3.5 -32h-155c1.33301 34.667 7 70.5 17 107.5s24.667 70.833 44 101.5s43.666 55.834 72.999 75.501s64.333 29.5 105 29.5c36 0 69.833 -5 101.5 -15
s60.667 -20.833 87 -32.5l71 -32.5c21 -10 39.167 -15 54.5 -15c11.333 0 21.166 3.16699 29.499 9.5s15 14.166 20 23.499s8.83301 19.666 11.5 30.999s4 21.666 4 30.999h160z" />
    <glyph glyph-name="odieresis" unicode="&#xf6;" horiz-adv-x="1433" 
d="M1361 580c0 -60 -8 -116.332 -24 -168.999s-38.167 -101.334 -66.5 -146.001s-62.5 -84.834 -102.5 -120.501s-83.833 -65.834 -131.5 -90.501s-98.667 -43.667 -153 -57s-110.166 -20 -167.499 -20s-113 6.66699 -167 20s-104.833 32.333 -152.5 57
s-91.5 54.834 -131.5 90.501s-74.167 75.834 -102.5 120.501s-50.5 93.5 -66.5 146.5s-24 109.167 -24 168.5s8 115.5 24 168.5s38.167 101.833 66.5 146.5s62.5 84.834 102.5 120.501s83.833 65.834 131.5 90.501s98.5 43.667 152.5 57s109.667 20 167 20
s113.166 -6.66699 167.499 -20s105.333 -32.333 153 -57s91.5 -54.834 131.5 -90.501s74.167 -75.834 102.5 -120.501s50.5 -93.5 66.5 -146.5s24 -109.167 24 -168.5zM1017 580.001c0 32 -1.83105 65.833 -5.49805 101.5s-9.83398 70.667 -18.501 105
s-20.5 67.333 -35.5 99s-33.5 59.334 -55.5 83.001s-48.333 42.667 -79 57s-66.334 21.5 -107.001 21.5c-38.667 0 -73 -7.33301 -103 -22s-56.167 -34.167 -78.5 -58.5s-41 -52.5 -56 -84.5s-27.167 -65.167 -36.5 -99.5s-16 -69 -20 -104s-6 -67.833 -6 -98.5
s2 -63.5 6 -98.5s10.667 -69.833 20 -104.5s21.5 -67.834 36.5 -99.501s33.667 -59.667 56 -84s48.5 -43.833 78.5 -58.5s64.333 -22 103 -22c40 0 75.333 7.16699 106 21.5s57.167 33.5 79.5 57.5s40.833 51.667 55.5 83s26.5 64.333 35.5 99s15.333 69.667 19 105
s5.5 69 5.5 101zM1053 1404c0 -20 -3.83301 -39 -11.5 -57s-18.167 -33.667 -31.5 -47s-29 -23.833 -47 -31.5s-37.333 -11.5 -58 -11.5c-20 0 -39 3.83301 -57 11.5s-33.667 18.167 -47 31.5s-23.833 29 -31.5 47s-11.5 37 -11.5 57s3.83301 39 11.5 57
s18.167 33.667 31.5 47s29 23.833 47 31.5s37 11.5 57 11.5c20.667 0 40 -3.83301 58 -11.5s33.667 -18.167 47 -31.5s23.833 -29 31.5 -47s11.5 -37 11.5 -57zM676.002 1404c0 -20 -3.83301 -39 -11.5 -57s-18.167 -33.667 -31.5 -47s-29 -23.833 -47 -31.5
s-37.333 -11.5 -58 -11.5c-20 0 -39 3.83301 -57 11.5s-33.667 18.167 -47 31.5s-23.833 29 -31.5 47s-11.5 37 -11.5 57s3.83301 39 11.5 57s18.167 33.667 31.5 47s29 23.833 47 31.5s37 11.5 57 11.5c20.667 0 40 -3.83301 58 -11.5s33.667 -18.167 47 -31.5
s23.833 -29 31.5 -47s11.5 -37 11.5 -57z" />
    <glyph glyph-name="divide" unicode="&#xf7;" horiz-adv-x="1017" 
d="M926 629h-835v184h835v-184zM654 410c0 -20 -3.83301 -39 -11.5 -57s-18 -33.5 -31 -46.5s-28.333 -23.333 -46 -31s-36.5 -11.5 -56.5 -11.5s-39 3.83301 -57 11.5s-33.5 18 -46.5 31s-23.333 28.5 -31 46.5s-11.5 37 -11.5 57s3.83301 38.833 11.5 56.5s18 33 31 46
s28.5 23.333 46.5 31s37 11.5 57 11.5s38.833 -3.83301 56.5 -11.5s33 -18 46 -31s23.333 -28.333 31 -46s11.5 -36.5 11.5 -56.5zM654 1040c0 -20 -3.83301 -39 -11.5 -57s-18 -33.5 -31 -46.5s-28.333 -23.333 -46 -31s-36.5 -11.5 -56.5 -11.5s-39 3.83301 -57 11.5
s-33.5 18 -46.5 31s-23.333 28.5 -31 46.5s-11.5 37 -11.5 57s3.83301 38.833 11.5 56.5s18 33 31 46s28.5 23.333 46.5 31s37 11.5 57 11.5s38.833 -3.83301 56.5 -11.5s33 -18 46 -31s23.333 -28.333 31 -46s11.5 -36.5 11.5 -56.5z" />
    <glyph glyph-name="oslash" unicode="&#xf8;" horiz-adv-x="1433" 
d="M438 393l477.002 560c-22.667 28.667 -50.334 51.5 -83.001 68.5s-71.334 25.5 -116.001 25.5c-38.667 0 -73 -7.33301 -103 -22s-56.167 -34.167 -78.5 -58.5s-41 -52.5 -56 -84.5s-27.167 -65.167 -36.5 -99.5s-16 -69 -20 -104s-6 -67.833 -6 -98.5
c0 -28.667 1.83301 -59 5.5 -91s9.16699 -64 16.5 -96zM997.002 770l-477 -559c23.333 -30 51 -53.833 83 -71.5s69.667 -26.5 113 -26.5c40 0 75.333 7.16699 106 21.5s57.167 33.5 79.5 57.5s40.833 51.667 55.5 83s26.5 64.333 35.5 99s15.333 69.667 19 105
s5.5 69 5.5 101c0 30 -1.5 61 -4.5 93s-8.16699 64.333 -15.5 97zM1329 1160l-140 -164.999c53.333 -52 95.333 -113 126 -183s46 -147.333 46 -232c0 -60 -8 -116.333 -24 -169s-38.167 -101.334 -66.5 -146.001s-62.5 -84.834 -102.5 -120.501
s-83.833 -65.834 -131.5 -90.501s-98.667 -43.667 -153 -57s-110.166 -20 -167.499 -20c-58.667 0 -115.667 6.83301 -171 20.5s-107.333 33.5 -156 59.5l-48 -57h-238l140 165c-52.667 52 -94.334 113 -125.001 183s-46 147.333 -46 232c0 59.333 8 115.5 24 168.5
s38.167 101.833 66.5 146.5s62.5 84.834 102.5 120.501s83.833 65.834 131.5 90.501s98.5 43.667 152.5 57s109.667 20 167 20c59.333 0 116.5 -7 171.5 -21s106.833 -33.667 155.5 -59l48 57h238z" />
    <glyph glyph-name="ugrave" unicode="&#xf9;" 
d="M82 494c0 52.667 4.49902 107.333 13.499 164s22 113.334 39 170.001s37.5 112.667 61.5 168s51 108.333 81 159h247c-16.667 -50 -31.5 -102.167 -44.5 -156.5s-24 -108.666 -33 -162.999s-16 -107.5 -21 -159.5s-7.5 -100.333 -7.5 -145
c0 -26 1.16699 -53.833 3.5 -83.5s6.5 -59.334 12.5 -89.001s14.5 -58.167 25.5 -85.5s25.167 -51.5 42.5 -72.5s38.5 -37.667 63.5 -50s54.5 -18.5 88.5 -18.5c33.333 0 63.166 7.5 89.499 22.5s49.5 34.667 69.5 59s37 52.166 51 83.499s25.5 63.5 34.5 96.5
s15.667 65.333 20 97s6.5 60.167 6.5 85.5v579h338v-1155h-130l-155 269c-19.333 -44.667 -42.833 -85.167 -70.5 -121.5s-59.167 -67.5 -94.5 -93.5s-74.5 -46 -117.5 -60s-89.5 -21 -139.5 -21c-80 0 -149.667 13 -209 39s-108.666 62 -147.999 108
s-68.666 100.833 -87.999 164.5s-29 133.5 -29 209.5zM819.999 1255h-200l-316 354h317z" />
    <glyph glyph-name="uacute" unicode="&#xfa;" 
d="M82 494c0 52.667 4.49902 107.333 13.499 164s22 113.334 39 170.001s37.5 112.667 61.5 168s51 108.333 81 159h247c-16.667 -50 -31.5 -102.167 -44.5 -156.5s-24 -108.666 -33 -162.999s-16 -107.5 -21 -159.5s-7.5 -100.333 -7.5 -145
c0 -26 1.16699 -53.833 3.5 -83.5s6.5 -59.334 12.5 -89.001s14.5 -58.167 25.5 -85.5s25.167 -51.5 42.5 -72.5s38.5 -37.667 63.5 -50s54.5 -18.5 88.5 -18.5c33.333 0 63.166 7.5 89.499 22.5s49.5 34.667 69.5 59s37 52.166 51 83.499s25.5 63.5 34.5 96.5
s15.667 65.333 20 97s6.5 60.167 6.5 85.5v579h338v-1155h-130l-155 269c-19.333 -44.667 -42.833 -85.167 -70.5 -121.5s-59.167 -67.5 -94.5 -93.5s-74.5 -46 -117.5 -60s-89.5 -21 -139.5 -21c-80 0 -149.667 13 -209 39s-108.666 62 -147.999 108
s-68.666 100.833 -87.999 164.5s-29 133.5 -29 209.5zM1139 1609l-317 -354h-199l198 354h318z" />
    <glyph glyph-name="ucircumflex" unicode="&#xfb;" 
d="M82 494c0 52.667 4.49902 107.333 13.499 164s22 113.334 39 170.001s37.5 112.667 61.5 168s51 108.333 81 159h247c-16.667 -50 -31.5 -102.167 -44.5 -156.5s-24 -108.666 -33 -162.999s-16 -107.5 -21 -159.5s-7.5 -100.333 -7.5 -145
c0 -26 1.16699 -53.833 3.5 -83.5s6.5 -59.334 12.5 -89.001s14.5 -58.167 25.5 -85.5s25.167 -51.5 42.5 -72.5s38.5 -37.667 63.5 -50s54.5 -18.5 88.5 -18.5c33.333 0 63.166 7.5 89.499 22.5s49.5 34.667 69.5 59s37 52.166 51 83.499s25.5 63.5 34.5 96.5
s15.667 65.333 20 97s6.5 60.167 6.5 85.5v579h338v-1155h-130l-155 269c-19.333 -44.667 -42.833 -85.167 -70.5 -121.5s-59.167 -67.5 -94.5 -93.5s-74.5 -46 -117.5 -60s-89.5 -21 -139.5 -21c-80 0 -149.667 13 -209 39s-108.666 62 -147.999 108
s-68.666 100.833 -87.999 164.5s-29 133.5 -29 209.5zM999.999 1257h-250l-65 138l-66 -138h-146l193 355h135z" />
    <glyph glyph-name="udieresis" unicode="&#xfc;" 
d="M82 494c0 52.667 4.49902 107.333 13.499 164s22 113.334 39 170.001s37.5 112.667 61.5 168s51 108.333 81 159h247c-16.667 -50 -31.5 -102.167 -44.5 -156.5s-24 -108.666 -33 -162.999s-16 -107.5 -21 -159.5s-7.5 -100.333 -7.5 -145
c0 -26 1.16699 -53.833 3.5 -83.5s6.5 -59.334 12.5 -89.001s14.5 -58.167 25.5 -85.5s25.167 -51.5 42.5 -72.5s38.5 -37.667 63.5 -50s54.5 -18.5 88.5 -18.5c33.333 0 63.166 7.5 89.499 22.5s49.5 34.667 69.5 59s37 52.166 51 83.499s25.5 63.5 34.5 96.5
s15.667 65.333 20 97s6.5 60.167 6.5 85.5v579h338v-1155h-130l-155 269c-19.333 -44.667 -42.833 -85.167 -70.5 -121.5s-59.167 -67.5 -94.5 -93.5s-74.5 -46 -117.5 -60s-89.5 -21 -139.5 -21c-80 0 -149.667 13 -209 39s-108.666 62 -147.999 108
s-68.666 100.833 -87.999 164.5s-29 133.5 -29 209.5zM1073 1403c0 -20 -3.83301 -39 -11.5 -57s-18.167 -33.667 -31.5 -47s-29 -23.833 -47 -31.5s-37.333 -11.5 -58 -11.5c-20 0 -39 3.83301 -57 11.5s-33.667 18.167 -47 31.5s-23.833 29 -31.5 47s-11.5 37 -11.5 57
s3.83301 39 11.5 57s18.167 33.667 31.5 47s29 23.833 47 31.5s37 11.5 57 11.5c20.667 0 40 -3.83301 58 -11.5s33.667 -18.167 47 -31.5s23.833 -29 31.5 -47s11.5 -37 11.5 -57zM695.999 1403c0 -20 -3.83301 -39 -11.5 -57s-18.167 -33.667 -31.5 -47
s-29 -23.833 -47 -31.5s-37.333 -11.5 -58 -11.5c-20 0 -39 3.83301 -57 11.5s-33.667 18.167 -47 31.5s-23.833 29 -31.5 47s-11.5 37 -11.5 57s3.83301 39 11.5 57s18.167 33.667 31.5 47s29 23.833 47 31.5s37 11.5 57 11.5c20.667 0 40 -3.83301 58 -11.5
s33.667 -18.167 47 -31.5s23.833 -29 31.5 -47s11.5 -37 11.5 -57z" />
    <glyph glyph-name="yacute" unicode="&#xfd;" horiz-adv-x="1175" 
d="M1175 1155l-420 -1016c-48 -116 -101.5 -230.833 -160.5 -344.5s-122.833 -222.834 -191.5 -327.501l-132 80l59 104l67 122c22 42 42.333 83.5 61 124.5s33 78.5 43 112.5l-505 1145h338l343 -781l264 781h234zM1057 1459l-317 -354h-199l198 354h318z" />
    <glyph glyph-name="thorn" unicode="&#xfe;" horiz-adv-x="1445" 
d="M1026 580c0 29.333 -1.50195 60.5029 -4.50195 93.5029s-8.16699 65.833 -15.5 98.5s-17.5 64 -30.5 94s-29.5 56.5 -49.5 79.5s-44.167 41.333 -72.5 55s-61.166 20.5 -98.499 20.5c-38.667 0 -72.167 -6.66699 -100.5 -20s-52.666 -31.5 -72.999 -54.5
s-37 -49.333 -50 -79s-23.167 -60.834 -30.5 -93.501s-12.5 -65.667 -15.5 -99s-4.5 -65 -4.5 -95c0 -26.667 2 -56.167 6 -88.5s10.333 -64.833 19 -97.5s20 -64.334 34 -95.001s31.167 -58 51.5 -82s44 -43.167 71 -57.5s57.833 -21.5 92.5 -21.5c38 0 71 6.83301 99 20.5
s52 32 72 55s36.5 49.5 49.5 79.5s23.167 61.333 30.5 94s12.5 65.667 15.5 99s4.5 64.666 4.5 93.999zM140.998 1640l337.999 -0.00390625v-625c38 52 85.5 93 142.5 123s119.5 45 187.5 45c88 0 166.667 -15.667 236 -47s128 -74.166 176 -128.499
s84.667 -118.166 110 -191.499s38 -152 38 -236s-12.667 -162.667 -38 -236s-62 -137.166 -110 -191.499s-106.667 -97.166 -176 -128.499s-148 -47 -236 -47c-67.333 0 -129.166 13.167 -185.499 39.5s-104.5 66.833 -144.5 121.5v-671h-338v2173z" />
    <glyph glyph-name="ydieresis" unicode="&#xff;" horiz-adv-x="1175" 
d="M1175 1155l-420 -1016c-48 -116 -101.5 -230.833 -160.5 -344.5s-122.833 -222.834 -191.5 -327.501l-132 80l59 104l67 122c22 42 42.333 83.5 61 124.5s33 78.5 43 112.5l-505 1145h338l343 -781l264 781h234zM973 1351c0 -20 -3.83301 -39 -11.5 -57
s-18.167 -33.667 -31.5 -47s-29 -23.833 -47 -31.5s-37.333 -11.5 -58 -11.5c-20 0 -39 3.83301 -57 11.5s-33.667 18.167 -47 31.5s-23.833 29 -31.5 47s-11.5 37 -11.5 57s3.83301 39 11.5 57s18.167 33.667 31.5 47s29 23.833 47 31.5s37 11.5 57 11.5
c20.667 0 40 -3.83301 58 -11.5s33.667 -18.167 47 -31.5s23.833 -29 31.5 -47s11.5 -37 11.5 -57zM596 1351c0 -20 -3.83301 -39 -11.5 -57s-18.167 -33.667 -31.5 -47s-29 -23.833 -47 -31.5s-37.333 -11.5 -58 -11.5c-20 0 -39 3.83301 -57 11.5s-33.667 18.167 -47 31.5
s-23.833 29 -31.5 47s-11.5 37 -11.5 57s3.83301 39 11.5 57s18.167 33.667 31.5 47s29 23.833 47 31.5s37 11.5 57 11.5c20.667 0 40 -3.83301 58 -11.5s33.667 -18.167 47 -31.5s23.833 -29 31.5 -47s11.5 -37 11.5 -57z" />
    <glyph glyph-name="Amacron" unicode="&#x100;" horiz-adv-x="1629" 
d="M1534 689v-18.9971c-1.33301 -56 -7.16602 -114 -17.499 -174s-24.833 -120 -43.5 -180s-41 -119.333 -67 -178s-55.167 -114.834 -87.5 -168.501s-67.166 -104 -104.499 -151s-76.666 -88.5 -117.999 -124.5l-149 86c23.333 39.333 44.5 82.166 63.5 128.499
s36.167 94.833 51.5 145.5s28.5 102.667 39.5 156s20.167 106.333 27.5 159s12.833 104.5 16.5 155.5s5.5 99.5 5.5 145.5c0 36 -0.166992 76.833 -0.5 122.5s-3 92.167 -8 139.5s-13.167 93.5 -24.5 138.5s-28.166 85.167 -50.499 120.5s-51 63.666 -86 84.999
s-78.5 32 -130.5 32c-46 0 -85.5 -7.83301 -118.5 -23.5s-61 -36.667 -84 -63s-41.333 -56.833 -55 -91.5s-24.334 -71.167 -32.001 -109.5s-12.667 -77 -15 -116s-3.5 -75.833 -3.5 -110.5v-279h431v-165h-431v-350h-397v732c0 104.667 16.667 202 50 292
s80.5 168.167 141.5 234.5s134.333 118.333 220 156s181.167 56.5 286.5 56.5c71.333 0 138.166 -10.167 200.499 -30.5s119.166 -48.333 170.499 -84s97.166 -78 137.499 -127s74 -102.5 101 -160.5s47.5 -119.333 61.5 -184s20.333 -130 19 -196zM1120 1569h-545v198h545
v-198z" />
    <glyph glyph-name="amacron" unicode="&#x101;" horiz-adv-x="1445" 
d="M1304 0l-338.003 0.00195312v138c-40 -54.667 -88.167 -95.167 -144.5 -121.5s-118.166 -39.5 -185.499 -39.5c-88 0 -166.667 15.667 -236 47s-128 74.166 -176 128.499s-84.667 118.166 -110 191.499s-38 152 -38 236s12.667 162.667 38 236s62 137.166 110 191.499
s106.667 97.166 176 128.499s148 47 236 47c44.667 0 87.167 -6.66699 127.5 -20s77.333 -32.166 111 -56.499s63.334 -53.666 89.001 -87.999s45.834 -72.5 60.501 -114.5l150 251h130v-1155zM963.997 580.002c0 30 -1.5 61.6641 -4.5 94.9971s-8.16699 66.333 -15.5 99
s-17.5 63.834 -30.5 93.501s-29.667 56 -50 79s-44.833 41.167 -73.5 54.5s-62 20 -100 20s-71 -6.83301 -99 -20.5s-52 -32 -72 -55s-36.5 -49.5 -49.5 -79.5s-23.167 -61.333 -30.5 -94s-12.5 -65.5 -15.5 -98.5s-4.5 -64.167 -4.5 -93.5s1.5 -60.666 4.5 -93.999
s8.16699 -66.333 15.5 -99s17.5 -64 30.5 -94s29.5 -56.5 49.5 -79.5s44 -41.333 72 -55s61 -20.5 99 -20.5c34.667 0 65.5 7.16699 92.5 21.5s50.667 33.5 71 57.5s37.5 51.333 51.5 82s25.333 62.334 34 95.001s15 65.167 19 97.5s6 61.833 6 88.5zM994.997 1284h-545v198
h545v-198z" />
    <glyph glyph-name="Abreve" unicode="&#x102;" horiz-adv-x="1629" 
d="M1534 689v-18.9971c-1.33301 -56 -7.16602 -114 -17.499 -174s-24.833 -120 -43.5 -180s-41 -119.333 -67 -178s-55.167 -114.834 -87.5 -168.501s-67.166 -104 -104.499 -151s-76.666 -88.5 -117.999 -124.5l-149 86c23.333 39.333 44.5 82.166 63.5 128.499
s36.167 94.833 51.5 145.5s28.5 102.667 39.5 156s20.167 106.333 27.5 159s12.833 104.5 16.5 155.5s5.5 99.5 5.5 145.5c0 36 -0.166992 76.833 -0.5 122.5s-3 92.167 -8 139.5s-13.167 93.5 -24.5 138.5s-28.166 85.167 -50.499 120.5s-51 63.666 -86 84.999
s-78.5 32 -130.5 32c-46 0 -85.5 -7.83301 -118.5 -23.5s-61 -36.667 -84 -63s-41.333 -56.833 -55 -91.5s-24.334 -71.167 -32.001 -109.5s-12.667 -77 -15 -116s-3.5 -75.833 -3.5 -110.5v-279h431v-165h-431v-350h-397v732c0 104.667 16.667 202 50 292
s80.5 168.167 141.5 234.5s134.333 118.333 220 156s181.167 56.5 286.5 56.5c71.333 0 138.166 -10.167 200.499 -30.5s119.166 -48.333 170.499 -84s97.166 -78 137.499 -127s74 -102.5 101 -160.5s47.5 -119.333 61.5 -184s20.333 -130 19 -196zM1091 1822
c-2.66699 -35.333 -10.6709 -68.167 -24.0039 -98.5s-31 -56.833 -53 -79.5s-48 -40.5 -78 -53.5s-63 -19.5 -99 -19.5s-68.667 6.66699 -98 20s-54.666 31.5 -75.999 54.5s-38.333 49.667 -51 80s-20.334 62.5 -23.001 96.5h145c0 -7.33301 1.83301 -17.333 5.5 -30
s9.5 -25 17.5 -37s18.5 -22.5 31.5 -31.5s29.167 -13.5 48.5 -13.5c20.667 0 37.834 4.5 51.501 13.5s24.834 19.5 33.501 31.5s14.834 24.333 18.501 37s5.83398 22.667 6.50098 30h144z" />
    <glyph glyph-name="abreve" unicode="&#x103;" horiz-adv-x="1445" 
d="M1304 0l-338.003 0.00195312v138c-40 -54.667 -88.167 -95.167 -144.5 -121.5s-118.166 -39.5 -185.499 -39.5c-88 0 -166.667 15.667 -236 47s-128 74.166 -176 128.499s-84.667 118.166 -110 191.499s-38 152 -38 236s12.667 162.667 38 236s62 137.166 110 191.499
s106.667 97.166 176 128.499s148 47 236 47c44.667 0 87.167 -6.66699 127.5 -20s77.333 -32.166 111 -56.499s63.334 -53.666 89.001 -87.999s45.834 -72.5 60.501 -114.5l150 251h130v-1155zM963.997 580.002c0 30 -1.5 61.6641 -4.5 94.9971s-8.16699 66.333 -15.5 99
s-17.5 63.834 -30.5 93.501s-29.667 56 -50 79s-44.833 41.167 -73.5 54.5s-62 20 -100 20s-71 -6.83301 -99 -20.5s-52 -32 -72 -55s-36.5 -49.5 -49.5 -79.5s-23.167 -61.333 -30.5 -94s-12.5 -65.5 -15.5 -98.5s-4.5 -64.167 -4.5 -93.5s1.5 -60.666 4.5 -93.999
s8.16699 -66.333 15.5 -99s17.5 -64 30.5 -94s29.5 -56.5 49.5 -79.5s44 -41.333 72 -55s61 -20.5 99 -20.5c34.667 0 65.5 7.16699 92.5 21.5s50.667 33.5 71 57.5s37.5 51.333 51.5 82s25.333 62.334 34 95.001s15 65.167 19 97.5s6 61.833 6 88.5zM910.997 1536
c-2.66699 -35.333 -10.6709 -68.167 -24.0039 -98.5s-31 -56.833 -53 -79.5s-48 -40.5 -78 -53.5s-63 -19.5 -99 -19.5s-68.667 6.66699 -98 20s-54.666 31.5 -75.999 54.5s-38.333 49.667 -51 80s-20.334 62.5 -23.001 96.5h145c0 -7.33301 1.83301 -17.333 5.5 -30
s9.5 -25 17.5 -37s18.5 -22.5 31.5 -31.5s29.167 -13.5 48.5 -13.5c20.667 0 37.834 4.5 51.501 13.5s24.834 19.5 33.501 31.5s14.834 24.333 18.501 37s5.83398 22.667 6.50098 30h144z" />
    <glyph glyph-name="Aogonek" unicode="&#x104;" horiz-adv-x="1629" 
d="M1324 -413c0 -26.667 -5.00098 -51.666 -15.001 -74.999s-23.667 -43.833 -41 -61.5s-37.666 -31.667 -60.999 -42s-48.333 -15.5 -75 -15.5c-34 0 -65.167 5.16699 -93.5 15.5s-53 25.333 -74 45s-37.333 43.334 -49 71.001s-17.5 58.834 -17.5 93.501
c0 28 6.83301 54.5 20.5 79.5s31.167 48.167 52.5 69.5l-24 13c23.333 39.333 44.5 82.166 63.5 128.499s36.167 94.833 51.5 145.5s28.5 102.667 39.5 156s20.167 106.333 27.5 159s12.833 104.5 16.5 155.5s5.5 99.5 5.5 145.5c0 36 -0.166992 76.833 -0.5 122.5
s-3 92.167 -8 139.5s-13.167 93.5 -24.5 138.5s-28.166 85.167 -50.499 120.5s-51 63.666 -86 84.999s-78.5 32 -130.5 32c-46 0 -85.5 -7.83301 -118.5 -23.5s-61 -36.667 -84 -63s-41.333 -56.833 -55 -91.5s-24.334 -71.167 -32.001 -109.5s-12.667 -77 -15 -116
s-3.5 -75.833 -3.5 -110.5v-279h431v-165h-431v-350h-397v732c0 104.667 16.667 202 50 292s80.5 168.167 141.5 234.5s134.333 118.333 220 156s181.167 56.5 286.5 56.5c71.333 0 138.166 -10.167 200.499 -30.5s119.166 -48.333 170.499 -84s97.166 -78 137.499 -127
s74 -102.5 101 -160.5s47.5 -119.333 61.5 -184s20.333 -130 19 -196v-19c-1.33301 -56 -7.16602 -114 -17.499 -174s-24.833 -120 -43.5 -180s-41 -119.333 -67 -178s-55.167 -114.834 -87.5 -168.501s-67.166 -104 -104.499 -151s-76.666 -88.5 -117.999 -124.5l-17 10
c-14.667 -29.333 -22 -58 -22 -86c0 -26 6.16699 -47.333 18.5 -64s32.5 -25 60.5 -25c16.667 0 33.167 4.83301 49.5 14.5s24.833 24.167 25.5 43.5h113z" />
    <glyph glyph-name="aogonek" unicode="&#x105;" horiz-adv-x="1445" 
d="M1355 -223c0 -26.667 -5.00586 -51.666 -15.0059 -74.999s-23.667 -43.833 -41 -61.5s-37.666 -31.667 -60.999 -42s-48.333 -15.5 -75 -15.5c-34 0 -65.167 5.16699 -93.5 15.5s-53 25.333 -74 45s-37.333 43.334 -49 71.001s-17.5 58.834 -17.5 93.501
c0 18.667 3.33301 37 10 55s15.667 35.167 27 51.5s24.5 31.666 39.5 45.999s30.833 27.5 47.5 39.5h-87v138c-40 -54.667 -88.167 -95.167 -144.5 -121.5s-118.166 -39.5 -185.499 -39.5c-88 0 -166.667 15.667 -236 47s-128 74.166 -176 128.499
s-84.667 118.166 -110 191.499s-38 152 -38 236s12.667 162.667 38 236s62 137.166 110 191.499s106.667 97.166 176 128.499s148 47 236 47c44.667 0 87.167 -6.66699 127.5 -20s77.333 -32.166 111 -56.499s63.334 -53.666 89.001 -87.999s45.834 -72.5 60.501 -114.5
l150 251h130v-1155h-114c-13.333 -13.333 -26.166 -27.5 -38.499 -42.5s-23.166 -30.833 -32.499 -47.5s-16.833 -33.667 -22.5 -51s-8.5 -34.333 -8.5 -51c0 -26 6.16699 -47.333 18.5 -64s32.5 -25 60.5 -25c16.667 0 33.167 4.83301 49.5 14.5s24.833 24.167 25.5 43.5
h113zM963.994 580.001c0 30 -1.5 61.6641 -4.5 94.9971s-8.16699 66.333 -15.5 99s-17.5 63.834 -30.5 93.501s-29.667 56 -50 79s-44.833 41.167 -73.5 54.5s-62 20 -100 20s-71 -6.83301 -99 -20.5s-52 -32 -72 -55s-36.5 -49.5 -49.5 -79.5s-23.167 -61.333 -30.5 -94
s-12.5 -65.5 -15.5 -98.5s-4.5 -64.167 -4.5 -93.5s1.5 -60.666 4.5 -93.999s8.16699 -66.333 15.5 -99s17.5 -64 30.5 -94s29.5 -56.5 49.5 -79.5s44 -41.333 72 -55s61 -20.5 99 -20.5c34.667 0 65.5 7.16699 92.5 21.5s50.667 33.5 71 57.5s37.5 51.333 51.5 82
s25.333 62.334 34 95.001s15 65.167 19 97.5s6 61.833 6 88.5z" />
    <glyph glyph-name="Cacute" unicode="&#x106;" horiz-adv-x="1540" 
d="M1471 1083l-171.004 -72.001c-13.333 43.333 -31.166 83 -53.499 119s-49 66.833 -80 92.5s-66.167 45.667 -105.5 60s-82.333 21.5 -129 21.5c-50 0 -95.833 -8.16699 -137.5 -24.5s-79 -38.833 -112 -67.5s-61.833 -62 -86.5 -100s-45.334 -78.5 -62.001 -121.5
s-29 -87.5 -37 -133.5s-12 -91 -12 -135c0 -70 8.16699 -139.667 24.5 -209s42.333 -131.666 78 -186.999s81.834 -100.166 138.501 -134.499s125.334 -51.5 206.001 -51.5c42.667 0 83 7.16699 121 21.5s72.5 34 103.5 59s58.167 54.5 81.5 88.5s42 70.667 56 110l173 -69
c-25.333 -63.333 -60 -118.833 -104 -166.5s-94.167 -87.167 -150.5 -118.5s-116.666 -54.833 -180.999 -70.5s-129.166 -23.5 -194.499 -23.5c-70.667 0 -138.5 8.66699 -203.5 26s-125.5 42 -181.5 74s-106.833 70.667 -152.5 116s-84.667 95.666 -117 150.999
s-57.333 115.5 -75 180.5s-26.5 132.833 -26.5 203.5s8.83301 138.5 26.5 203.5s42.667 125.333 75 181s71.333 106.167 117 151.5s96.5 84 152.5 116s116.5 56.667 181.5 74s132.833 26 203.5 26c68 0 134.5 -8 199.5 -24s125.5 -40.167 181.5 -72.5
s105.833 -73 149.5 -122s78.167 -106.5 103.5 -172.5zM1265 1931l-317 -354h-199l198 354h318z" />
    <glyph glyph-name="cacute" unicode="&#x107;" horiz-adv-x="1266" 
d="M1207 869l-146.002 -58.002c-23.333 73.333 -62.333 129.666 -117 168.999s-120.334 59 -197.001 59c-41.333 0 -78.166 -6.5 -110.499 -19.5s-60.666 -30.833 -84.999 -53.5s-45 -49 -62 -79s-30.833 -62 -41.5 -96s-18.334 -69.167 -23.001 -105.5s-7 -71.5 -7 -105.5
c0 -36.667 2 -73.667 6 -111s10.833 -73.166 20.5 -107.499s22.5 -66.333 38.5 -96s36.167 -55.5 60.5 -77.5s53.333 -39.333 87 -52s72.5 -19 116.5 -19c35.333 0 69 5.33301 101 16s61.333 25.667 88 45s50.334 42.333 71.001 69s37 56.334 49 89.001l147 -54
c-22 -52.667 -51.167 -98.167 -87.5 -136.5s-77.5 -70 -123.5 -95s-95.333 -43.5 -148 -55.5s-106 -18 -160 -18c-87.333 0 -168.333 14.833 -243 44.5s-139.167 71.334 -193.5 125.001s-96.833 117.334 -127.5 191.001s-46 154.5 -46 242.5c0 88.667 15.167 170 45.5 244
s72.5 137.667 126.5 191s118.333 94.666 193 123.999s156.334 44 245.001 44c56 0 110.667 -6.16699 164 -18.5s102.833 -31.333 148.5 -57s86.667 -58.167 123 -97.5s65.5 -86.333 87.5 -141zM1095 1637l-317 -354h-199l198 354h318z" />
    <glyph glyph-name="Ccircumflex" unicode="&#x108;" horiz-adv-x="1540" 
d="M1471 1083l-171.004 -72.001c-13.333 43.333 -31.166 83 -53.499 119s-49 66.833 -80 92.5s-66.167 45.667 -105.5 60s-82.333 21.5 -129 21.5c-50 0 -95.833 -8.16699 -137.5 -24.5s-79 -38.833 -112 -67.5s-61.833 -62 -86.5 -100s-45.334 -78.5 -62.001 -121.5
s-29 -87.5 -37 -133.5s-12 -91 -12 -135c0 -70 8.16699 -139.667 24.5 -209s42.333 -131.666 78 -186.999s81.834 -100.166 138.501 -134.499s125.334 -51.5 206.001 -51.5c42.667 0 83 7.16699 121 21.5s72.5 34 103.5 59s58.167 54.5 81.5 88.5s42 70.667 56 110l173 -69
c-25.333 -63.333 -60 -118.833 -104 -166.5s-94.167 -87.167 -150.5 -118.5s-116.666 -54.833 -180.999 -70.5s-129.166 -23.5 -194.499 -23.5c-70.667 0 -138.5 8.66699 -203.5 26s-125.5 42 -181.5 74s-106.833 70.667 -152.5 116s-84.667 95.666 -117 150.999
s-57.333 115.5 -75 180.5s-26.5 132.833 -26.5 203.5s8.83301 138.5 26.5 203.5s42.667 125.333 75 181s71.333 106.167 117 151.5s96.5 84 152.5 116s116.5 56.667 181.5 74s132.833 26 203.5 26c68 0 134.5 -8 199.5 -24s125.5 -40.167 181.5 -72.5
s105.833 -73 149.5 -122s78.167 -106.5 103.5 -172.5zM1130 1573h-250l-65 138l-66 -138h-146l193 355h135z" />
    <glyph glyph-name="ccircumflex" unicode="&#x109;" horiz-adv-x="1266" 
d="M1207 869l-146.002 -58.002c-23.333 73.333 -62.333 129.666 -117 168.999s-120.334 59 -197.001 59c-41.333 0 -78.166 -6.5 -110.499 -19.5s-60.666 -30.833 -84.999 -53.5s-45 -49 -62 -79s-30.833 -62 -41.5 -96s-18.334 -69.167 -23.001 -105.5s-7 -71.5 -7 -105.5
c0 -36.667 2 -73.667 6 -111s10.833 -73.166 20.5 -107.499s22.5 -66.333 38.5 -96s36.167 -55.5 60.5 -77.5s53.333 -39.333 87 -52s72.5 -19 116.5 -19c35.333 0 69 5.33301 101 16s61.333 25.667 88 45s50.334 42.333 71.001 69s37 56.334 49 89.001l147 -54
c-22 -52.667 -51.167 -98.167 -87.5 -136.5s-77.5 -70 -123.5 -95s-95.333 -43.5 -148 -55.5s-106 -18 -160 -18c-87.333 0 -168.333 14.833 -243 44.5s-139.167 71.334 -193.5 125.001s-96.833 117.334 -127.5 191.001s-46 154.5 -46 242.5c0 88.667 15.167 170 45.5 244
s72.5 137.667 126.5 191s118.333 94.666 193 123.999s156.334 44 245.001 44c56 0 110.667 -6.16699 164 -18.5s102.833 -31.333 148.5 -57s86.667 -58.167 123 -97.5s65.5 -86.333 87.5 -141zM951.998 1286h-250l-65 138l-66 -138h-146l193 355h135z" />
    <glyph glyph-name="Cdotaccent" unicode="&#x10a;" horiz-adv-x="1540" 
d="M1471 1083l-171.004 -72.001c-13.333 43.333 -31.166 83 -53.499 119s-49 66.833 -80 92.5s-66.167 45.667 -105.5 60s-82.333 21.5 -129 21.5c-50 0 -95.833 -8.16699 -137.5 -24.5s-79 -38.833 -112 -67.5s-61.833 -62 -86.5 -100s-45.334 -78.5 -62.001 -121.5
s-29 -87.5 -37 -133.5s-12 -91 -12 -135c0 -70 8.16699 -139.667 24.5 -209s42.333 -131.666 78 -186.999s81.834 -100.166 138.501 -134.499s125.334 -51.5 206.001 -51.5c42.667 0 83 7.16699 121 21.5s72.5 34 103.5 59s58.167 54.5 81.5 88.5s42 70.667 56 110l173 -69
c-25.333 -63.333 -60 -118.833 -104 -166.5s-94.167 -87.167 -150.5 -118.5s-116.666 -54.833 -180.999 -70.5s-129.166 -23.5 -194.499 -23.5c-70.667 0 -138.5 8.66699 -203.5 26s-125.5 42 -181.5 74s-106.833 70.667 -152.5 116s-84.667 95.666 -117 150.999
s-57.333 115.5 -75 180.5s-26.5 132.833 -26.5 203.5s8.83301 138.5 26.5 203.5s42.667 125.333 75 181s71.333 106.167 117 151.5s96.5 84 152.5 116s116.5 56.667 181.5 74s132.833 26 203.5 26c68 0 134.5 -8 199.5 -24s125.5 -40.167 181.5 -72.5
s105.833 -73 149.5 -122s78.167 -106.5 103.5 -172.5zM1019 1721c0 -20 -3.83301 -39 -11.5 -57s-18.167 -33.667 -31.5 -47s-29 -23.833 -47 -31.5s-37 -11.5 -57 -11.5c-20.667 0 -40 3.83301 -58 11.5s-33.667 18.167 -47 31.5s-23.833 29 -31.5 47s-11.5 37 -11.5 57
s3.83301 39 11.5 57s18.167 33.667 31.5 47s29 23.833 47 31.5s37.333 11.5 58 11.5c20 0 39 -3.83301 57 -11.5s33.667 -18.167 47 -31.5s23.833 -29 31.5 -47s11.5 -37 11.5 -57z" />
    <glyph glyph-name="cdotaccent" unicode="&#x10b;" horiz-adv-x="1266" 
d="M1207 869l-146.002 -58.002c-23.333 73.333 -62.333 129.666 -117 168.999s-120.334 59 -197.001 59c-41.333 0 -78.166 -6.5 -110.499 -19.5s-60.666 -30.833 -84.999 -53.5s-45 -49 -62 -79s-30.833 -62 -41.5 -96s-18.334 -69.167 -23.001 -105.5s-7 -71.5 -7 -105.5
c0 -36.667 2 -73.667 6 -111s10.833 -73.166 20.5 -107.499s22.5 -66.333 38.5 -96s36.167 -55.5 60.5 -77.5s53.333 -39.333 87 -52s72.5 -19 116.5 -19c35.333 0 69 5.33301 101 16s61.333 25.667 88 45s50.334 42.333 71.001 69s37 56.334 49 89.001l147 -54
c-22 -52.667 -51.167 -98.167 -87.5 -136.5s-77.5 -70 -123.5 -95s-95.333 -43.5 -148 -55.5s-106 -18 -160 -18c-87.333 0 -168.333 14.833 -243 44.5s-139.167 71.334 -193.5 125.001s-96.833 117.334 -127.5 191.001s-46 154.5 -46 242.5c0 88.667 15.167 170 45.5 244
s72.5 137.667 126.5 191s118.333 94.666 193 123.999s156.334 44 245.001 44c56 0 110.667 -6.16699 164 -18.5s102.833 -31.333 148.5 -57s86.667 -58.167 123 -97.5s65.5 -86.333 87.5 -141zM853.998 1431c0 -20 -3.83301 -39 -11.5 -57s-18.167 -33.667 -31.5 -47
s-29 -23.833 -47 -31.5s-37 -11.5 -57 -11.5c-20.667 0 -40 3.83301 -58 11.5s-33.667 18.167 -47 31.5s-23.833 29 -31.5 47s-11.5 37 -11.5 57s3.83301 39 11.5 57s18.167 33.667 31.5 47s29 23.833 47 31.5s37.333 11.5 58 11.5c20 0 39 -3.83301 57 -11.5
s33.667 -18.167 47 -31.5s23.833 -29 31.5 -47s11.5 -37 11.5 -57z" />
    <glyph glyph-name="Ccaron" unicode="&#x10c;" horiz-adv-x="1540" 
d="M1471 1083l-171.004 -72.001c-13.333 43.333 -31.166 83 -53.499 119s-49 66.833 -80 92.5s-66.167 45.667 -105.5 60s-82.333 21.5 -129 21.5c-50 0 -95.833 -8.16699 -137.5 -24.5s-79 -38.833 -112 -67.5s-61.833 -62 -86.5 -100s-45.334 -78.5 -62.001 -121.5
s-29 -87.5 -37 -133.5s-12 -91 -12 -135c0 -70 8.16699 -139.667 24.5 -209s42.333 -131.666 78 -186.999s81.834 -100.166 138.501 -134.499s125.334 -51.5 206.001 -51.5c42.667 0 83 7.16699 121 21.5s72.5 34 103.5 59s58.167 54.5 81.5 88.5s42 70.667 56 110l173 -69
c-25.333 -63.333 -60 -118.833 -104 -166.5s-94.167 -87.167 -150.5 -118.5s-116.666 -54.833 -180.999 -70.5s-129.166 -23.5 -194.499 -23.5c-70.667 0 -138.5 8.66699 -203.5 26s-125.5 42 -181.5 74s-106.833 70.667 -152.5 116s-84.667 95.666 -117 150.999
s-57.333 115.5 -75 180.5s-26.5 132.833 -26.5 203.5s8.83301 138.5 26.5 203.5s42.667 125.333 75 181s71.333 106.167 117 151.5s96.5 84 152.5 116s116.5 56.667 181.5 74s132.833 26 203.5 26c68 0 134.5 -8 199.5 -24s125.5 -40.167 181.5 -72.5
s105.833 -73 149.5 -122s78.167 -106.5 103.5 -172.5zM1141 1927l-199 -354h-165l-193 354h246l66 -137l65 137h180z" />
    <glyph glyph-name="ccaron" unicode="&#x10d;" horiz-adv-x="1266" 
d="M1207 869l-146.002 -58.002c-23.333 73.333 -62.333 129.666 -117 168.999s-120.334 59 -197.001 59c-41.333 0 -78.166 -6.5 -110.499 -19.5s-60.666 -30.833 -84.999 -53.5s-45 -49 -62 -79s-30.833 -62 -41.5 -96s-18.334 -69.167 -23.001 -105.5s-7 -71.5 -7 -105.5
c0 -36.667 2 -73.667 6 -111s10.833 -73.166 20.5 -107.499s22.5 -66.333 38.5 -96s36.167 -55.5 60.5 -77.5s53.333 -39.333 87 -52s72.5 -19 116.5 -19c35.333 0 69 5.33301 101 16s61.333 25.667 88 45s50.334 42.333 71.001 69s37 56.334 49 89.001l147 -54
c-22 -52.667 -51.167 -98.167 -87.5 -136.5s-77.5 -70 -123.5 -95s-95.333 -43.5 -148 -55.5s-106 -18 -160 -18c-87.333 0 -168.333 14.833 -243 44.5s-139.167 71.334 -193.5 125.001s-96.833 117.334 -127.5 191.001s-46 154.5 -46 242.5c0 88.667 15.167 170 45.5 244
s72.5 137.667 126.5 191s118.333 94.666 193 123.999s156.334 44 245.001 44c56 0 110.667 -6.16699 164 -18.5s102.833 -31.333 148.5 -57s86.667 -58.167 123 -97.5s65.5 -86.333 87.5 -141zM980.998 1637l-199 -354h-165l-193 354h246l66 -137l65 137h180z" />
    <glyph glyph-name="Dcaron" unicode="&#x10e;" horiz-adv-x="1640" 
d="M1559 722c0 -70 -9.33301 -136.499 -28 -199.499s-44.834 -121.167 -78.501 -174.5s-73.834 -101.5 -120.501 -144.5s-98.167 -79.5 -154.5 -109.5s-116.666 -53.167 -180.999 -69.5s-130.5 -24.5 -198.5 -24.5h-635v1440h635c68 0 134 -8 198 -24
s124.167 -38.833 180.5 -68.5s108 -65.834 155 -108.501s87.333 -90.5 121 -143.5s59.834 -111 78.501 -174s28 -129.5 28 -199.5zM1156 722.001c0 78 -9.5 152.168 -28.5 222.501s-48.5 132.166 -88.5 185.499s-90.833 95.666 -152.5 126.999s-135.5 47 -221.5 47h-105
v-1164h105c84.667 0 157.834 15.833 219.501 47.5s112.667 74.334 153 128.001s70.166 115.5 89.499 185.5s29 143.667 29 221zM1043 1894l-199 -354h-165l-193 354h246l66 -137l65 137h180z" />
    <glyph glyph-name="dcaron" unicode="&#x10f;" horiz-adv-x="1994" 
d="M1305 0l-129.997 0.000976562l-150 251c-14.667 -42 -34.834 -80 -60.501 -114s-55.334 -63.167 -89.001 -87.5s-70.667 -43.166 -111 -56.499s-82.833 -20 -127.5 -20c-88 0 -166.667 15.667 -236 47s-128 74.166 -176 128.499s-84.667 118.166 -110 191.499
s-38 152 -38 236s12.667 162.667 38 236s62 137 110 191s106.667 96.667 176 128s148 47 236 47c67.333 0 129.166 -13 185.499 -39s104.5 -66.667 144.5 -122v563h338v-1580zM965.003 576.001c0 26.667 -2 55.999 -6 87.999s-10.333 64.333 -19 97s-20 64.334 -34 95.001
s-31.167 58 -51.5 82s-44 43.167 -71 57.5s-57.833 21.5 -92.5 21.5c-38 0 -71 -6.83301 -99 -20.5s-52 -32 -72 -55s-36.5 -49.5 -49.5 -79.5s-23.167 -61.333 -30.5 -94s-12.5 -65.5 -15.5 -98.5s-4.5 -64.167 -4.5 -93.5s1.5 -60.5 4.5 -93.5s8.16699 -65.833 15.5 -98.5
s17.5 -64.167 30.5 -94.5s29.5 -57 49.5 -80s44 -41.333 72 -55s61 -20.5 99 -20.5s71.333 6.66699 100 20s53.167 31.5 73.5 54.5s37 49.333 50 79s23.167 61 30.5 94s12.5 66.167 15.5 99.5s4.5 65 4.5 95zM1901 1284c0 -30.667 -4.00195 -61.9961 -12.002 -93.9961
s-19.167 -63 -33.5 -93s-31.166 -58.5 -50.499 -85.5s-40.333 -50.833 -63 -71.5l-144 76c14 10.667 28.167 24.667 42.5 42s22.833 34.666 25.5 51.999c-19.333 6 -36.833 14.667 -52.5 26s-29.167 24.666 -40.5 39.999s-20.166 32.166 -26.499 50.499s-9.5 37.5 -9.5 57.5
c0 24.667 4.83301 48.167 14.5 70.5s22.667 41.666 39 57.999s35.5 29.333 57.5 39s45.667 14.5 71 14.5s49 -4.66699 71 -14s41.333 -22.333 58 -39s29.667 -36 39 -58s14 -45.667 14 -71z" />
    <glyph glyph-name="Dcroat" unicode="&#x110;" horiz-adv-x="1706" 
d="M229 629l-199 0.000976562v184h199v627h635c68 0 134 -8 198 -24s124.167 -38.833 180.5 -68.5s108 -65.834 155 -108.501s87.333 -90.5 121 -143.5s59.834 -111 78.501 -174s28 -129.5 28 -199.5s-9.33301 -136.5 -28 -199.5s-44.834 -121.167 -78.501 -174.5
s-73.834 -101.5 -120.501 -144.5s-98.167 -79.5 -154.5 -109.5s-116.666 -53.167 -180.999 -69.5s-130.5 -24.5 -198.5 -24.5h-635v629zM866 629.001l-240.001 0.000976562v-489h105c84.667 0 157.834 15.833 219.501 47.5s112.667 74.334 153 128.001
s70.333 115.5 90 185.5s29.5 143.667 29.5 221c0 78 -9.5 152.167 -28.5 222.5s-48.5 132.166 -88.5 185.499s-91 95.666 -153 126.999s-136 47 -222 47h-105v-491h240v-184z" />
    <glyph glyph-name="dcroat" unicode="&#x111;" horiz-adv-x="1446" 
d="M1305 0l-129.997 0.000976562l-150 251c-14.667 -42 -34.834 -80 -60.501 -114s-55.334 -63.167 -89.001 -87.5s-70.667 -43.166 -111 -56.499s-82.833 -20 -127.5 -20c-88 0 -166.667 15.667 -236 47s-128 74.166 -176 128.499s-84.667 118.166 -110 191.499
s-38 152 -38 236s12.667 162.667 38 236s62 137 110 191s106.667 96.667 176 128s148 47 236 47c67.333 0 129.166 -13 185.499 -39s104.5 -66.667 144.5 -122v251h-142v184h142v128h338v-128h142v-184h-142v-1268zM965.003 576.001c0 26.667 -2 55.999 -6 87.999
s-10.333 64.333 -19 97s-20 64.334 -34 95.001s-31.167 58 -51.5 82s-44 43.167 -71 57.5s-57.833 21.5 -92.5 21.5c-38 0 -71 -6.83301 -99 -20.5s-52 -32 -72 -55s-36.5 -49.5 -49.5 -79.5s-23.167 -61.333 -30.5 -94s-12.5 -65.5 -15.5 -98.5s-4.5 -64.167 -4.5 -93.5
s1.5 -60.5 4.5 -93.5s8.16699 -65.833 15.5 -98.5s17.5 -64.167 30.5 -94.5s29.5 -57 49.5 -80s44 -41.333 72 -55s61 -20.5 99 -20.5s71.333 6.66699 100 20s53.167 31.5 73.5 54.5s37 49.333 50 79s23.167 61 30.5 94s12.5 66.167 15.5 99.5s4.5 65 4.5 95z" />
    <glyph glyph-name="Emacron" unicode="&#x112;" horiz-adv-x="1280" 
d="M1197 0h-1034v1440h1034v-184h-637v-445h492v-183h-492v-444h637v-184zM912 1537h-545v198h545v-198z" />
    <glyph glyph-name="emacron" unicode="&#x113;" horiz-adv-x="1322" 
d="M419 548c41.333 -9.33301 82.668 -16.6689 124.001 -22.002s83 -8 125 -8c44 0 84.833 4.16699 122.5 12.5s70.334 22.333 98.001 42s49.5 45.834 65.5 78.501s24 73.334 24 122.001c0 39.333 -5.33301 75.333 -16 108s-26.5 60.667 -47.5 84s-46.833 41.5 -77.5 54.5
s-66.334 19.5 -107.001 19.5c-38 0 -72.167 -7 -102.5 -21s-57 -32.833 -80 -56.5s-42.667 -51.167 -59 -82.5s-29.833 -64 -40.5 -98s-18.334 -68.333 -23.001 -103s-7 -67.334 -7 -98.001v-16c0 -5.33301 0.333008 -10.666 1 -15.999zM1252 775.997
c0 -47.333 -7.67188 -89.502 -23.0049 -126.502s-36.166 -69.5 -62.499 -97.5s-56.833 -51.667 -91.5 -71s-71.667 -35.166 -111 -47.499s-79.833 -21.166 -121.5 -26.499s-82.167 -8 -121.5 -8c-50 0 -99.333 3.5 -148 10.5s-96.667 18.167 -144 33.5
c7.33301 -44 19 -85.833 35 -125.5s37.333 -74.334 64 -104.001s59.5 -53.167 98.5 -70.5s85.167 -26 138.5 -26c35.333 0 69 5.33301 101 16s61.333 25.667 88 45s50.167 42.333 70.5 69s36.833 56.334 49.5 89.001l146 -54c-22 -52.667 -52.167 -98.167 -90.5 -136.5
s-81.666 -70 -129.999 -95s-99.666 -43.5 -153.999 -55.5s-108.166 -18 -161.499 -18c-88 0 -169.333 14.833 -244 44.5s-139 71.167 -193 124.5s-96.333 117 -127 191s-46 155 -46 243s15.333 169 46 243s73 137.667 127 191s118.333 94.833 193 124.5s156 44.5 244 44.5
c42.667 0 86.334 -3 131.001 -9s88 -15.5 130 -28.5s81.667 -29.833 119 -50.5s69.833 -46.167 97.5 -76.5s49.667 -65.5 66 -105.5s24.5 -85.667 24.5 -137zM932.997 1284h-545v198h545v-198z" />
    <glyph glyph-name="Ebreve" unicode="&#x114;" horiz-adv-x="1280" 
d="M1197 0h-1034v1440h1034v-184h-637v-445h492v-183h-492v-444h637v-184zM906 1788c-2.66699 -35.333 -10.6709 -68.167 -24.0039 -98.5s-31 -56.833 -53 -79.5s-48 -40.5 -78 -53.5s-63 -19.5 -99 -19.5s-68.667 6.66699 -98 20s-54.666 31.5 -75.999 54.5
s-38.333 49.667 -51 80s-20.334 62.5 -23.001 96.5h145c0 -7.33301 1.83301 -17.333 5.5 -30s9.5 -25 17.5 -37s18.5 -22.5 31.5 -31.5s29.167 -13.5 48.5 -13.5c20.667 0 37.834 4.5 51.501 13.5s24.834 19.5 33.501 31.5s14.834 24.333 18.501 37
s5.83398 22.667 6.50098 30h144z" />
    <glyph glyph-name="ebreve" unicode="&#x115;" horiz-adv-x="1322" 
d="M419 548c41.333 -9.33301 82.668 -16.6689 124.001 -22.002s83 -8 125 -8c44 0 84.833 4.16699 122.5 12.5s70.334 22.333 98.001 42s49.5 45.834 65.5 78.501s24 73.334 24 122.001c0 39.333 -5.33301 75.333 -16 108s-26.5 60.667 -47.5 84s-46.833 41.5 -77.5 54.5
s-66.334 19.5 -107.001 19.5c-38 0 -72.167 -7 -102.5 -21s-57 -32.833 -80 -56.5s-42.667 -51.167 -59 -82.5s-29.833 -64 -40.5 -98s-18.334 -68.333 -23.001 -103s-7 -67.334 -7 -98.001v-16c0 -5.33301 0.333008 -10.666 1 -15.999zM1252 775.997
c0 -47.333 -7.67188 -89.502 -23.0049 -126.502s-36.166 -69.5 -62.499 -97.5s-56.833 -51.667 -91.5 -71s-71.667 -35.166 -111 -47.499s-79.833 -21.166 -121.5 -26.499s-82.167 -8 -121.5 -8c-50 0 -99.333 3.5 -148 10.5s-96.667 18.167 -144 33.5
c7.33301 -44 19 -85.833 35 -125.5s37.333 -74.334 64 -104.001s59.5 -53.167 98.5 -70.5s85.167 -26 138.5 -26c35.333 0 69 5.33301 101 16s61.333 25.667 88 45s50.167 42.333 70.5 69s36.833 56.334 49.5 89.001l146 -54c-22 -52.667 -52.167 -98.167 -90.5 -136.5
s-81.666 -70 -129.999 -95s-99.666 -43.5 -153.999 -55.5s-108.166 -18 -161.499 -18c-88 0 -169.333 14.833 -244 44.5s-139 71.167 -193 124.5s-96.333 117 -127 191s-46 155 -46 243s15.333 169 46 243s73 137.667 127 191s118.333 94.833 193 124.5s156 44.5 244 44.5
c42.667 0 86.334 -3 131.001 -9s88 -15.5 130 -28.5s81.667 -29.833 119 -50.5s69.833 -46.167 97.5 -76.5s49.667 -65.5 66 -105.5s24.5 -85.667 24.5 -137zM941.997 1533c-2.66699 -35.333 -10.6709 -68.167 -24.0039 -98.5s-31 -56.833 -53 -79.5s-48 -40.5 -78 -53.5
s-63 -19.5 -99 -19.5s-68.667 6.66699 -98 20s-54.666 31.5 -75.999 54.5s-38.333 49.667 -51 80s-20.334 62.5 -23.001 96.5h145c0 -7.33301 1.83301 -17.333 5.5 -30s9.5 -25 17.5 -37s18.5 -22.5 31.5 -31.5s29.167 -13.5 48.5 -13.5c20.667 0 37.834 4.5 51.501 13.5
s24.834 19.5 33.501 31.5s14.834 24.333 18.501 37s5.83398 22.667 6.50098 30h144z" />
    <glyph glyph-name="Edotaccent" unicode="&#x116;" horiz-adv-x="1280" 
d="M1197 0h-1034v1440h1034v-184h-637v-445h492v-183h-492v-444h637v-184zM807 1683c0 -20 -3.83301 -39 -11.5 -57s-18.167 -33.667 -31.5 -47s-29 -23.833 -47 -31.5s-37 -11.5 -57 -11.5c-20.667 0 -40 3.83301 -58 11.5s-33.667 18.167 -47 31.5s-23.833 29 -31.5 47
s-11.5 37 -11.5 57s3.83301 39 11.5 57s18.167 33.667 31.5 47s29 23.833 47 31.5s37.333 11.5 58 11.5c20 0 39 -3.83301 57 -11.5s33.667 -18.167 47 -31.5s23.833 -29 31.5 -47s11.5 -37 11.5 -57z" />
    <glyph glyph-name="edotaccent" unicode="&#x117;" horiz-adv-x="1322" 
d="M419 548c41.333 -9.33301 82.668 -16.6689 124.001 -22.002s83 -8 125 -8c44 0 84.833 4.16699 122.5 12.5s70.334 22.333 98.001 42s49.5 45.834 65.5 78.501s24 73.334 24 122.001c0 39.333 -5.33301 75.333 -16 108s-26.5 60.667 -47.5 84s-46.833 41.5 -77.5 54.5
s-66.334 19.5 -107.001 19.5c-38 0 -72.167 -7 -102.5 -21s-57 -32.833 -80 -56.5s-42.667 -51.167 -59 -82.5s-29.833 -64 -40.5 -98s-18.334 -68.333 -23.001 -103s-7 -67.334 -7 -98.001v-16c0 -5.33301 0.333008 -10.666 1 -15.999zM1252 775.997
c0 -47.333 -7.67188 -89.502 -23.0049 -126.502s-36.166 -69.5 -62.499 -97.5s-56.833 -51.667 -91.5 -71s-71.667 -35.166 -111 -47.499s-79.833 -21.166 -121.5 -26.499s-82.167 -8 -121.5 -8c-50 0 -99.333 3.5 -148 10.5s-96.667 18.167 -144 33.5
c7.33301 -44 19 -85.833 35 -125.5s37.333 -74.334 64 -104.001s59.5 -53.167 98.5 -70.5s85.167 -26 138.5 -26c35.333 0 69 5.33301 101 16s61.333 25.667 88 45s50.167 42.333 70.5 69s36.833 56.334 49.5 89.001l146 -54c-22 -52.667 -52.167 -98.167 -90.5 -136.5
s-81.666 -70 -129.999 -95s-99.666 -43.5 -153.999 -55.5s-108.166 -18 -161.499 -18c-88 0 -169.333 14.833 -244 44.5s-139 71.167 -193 124.5s-96.333 117 -127 191s-46 155 -46 243s15.333 169 46 243s73 137.667 127 191s118.333 94.833 193 124.5s156 44.5 244 44.5
c42.667 0 86.334 -3 131.001 -9s88 -15.5 130 -28.5s81.667 -29.833 119 -50.5s69.833 -46.167 97.5 -76.5s49.667 -65.5 66 -105.5s24.5 -85.667 24.5 -137zM839.997 1431c0 -20 -3.83301 -39 -11.5 -57s-18.167 -33.667 -31.5 -47s-29 -23.833 -47 -31.5
s-37 -11.5 -57 -11.5c-20.667 0 -40 3.83301 -58 11.5s-33.667 18.167 -47 31.5s-23.833 29 -31.5 47s-11.5 37 -11.5 57s3.83301 39 11.5 57s18.167 33.667 31.5 47s29 23.833 47 31.5s37.333 11.5 58 11.5c20 0 39 -3.83301 57 -11.5s33.667 -18.167 47 -31.5
s23.833 -29 31.5 -47s11.5 -37 11.5 -57z" />
    <glyph glyph-name="Eogonek" unicode="&#x118;" horiz-adv-x="1280" 
d="M1197 -223c0 -26.667 -5.00293 -51.668 -15.0029 -75.001s-23.667 -43.833 -41 -61.5s-37.666 -31.667 -60.999 -42s-48.333 -15.5 -75 -15.5c-34 0 -65.167 5.16699 -93.5 15.5s-53 25.333 -74 45s-37.333 43.334 -49 71.001s-17.5 58.834 -17.5 93.501
c0 18.667 3.33301 37 10 55s15.667 35.167 27 51.5s24.5 31.666 39.5 45.999s30.833 27.5 47.5 39.5h-732v1440h1034v-184h-637v-445h492v-183h-492v-444h637v-184h-165c-13.333 -13.333 -26.166 -27.5 -38.499 -42.5s-23.166 -30.833 -32.499 -47.5
s-16.833 -33.667 -22.5 -51s-8.5 -34.333 -8.5 -51c0 -26 6.16699 -47.333 18.5 -64s32.5 -25 60.5 -25c16.667 0 33.167 4.83301 49.5 14.5s24.833 24.167 25.5 43.5h113z" />
    <glyph glyph-name="eogonek" unicode="&#x119;" horiz-adv-x="1322" 
d="M928 -223c0 -26.667 -5.00098 -51.6699 -15.001 -75.0029s-23.667 -43.833 -41 -61.5s-37.666 -31.667 -60.999 -42s-48.333 -15.5 -75 -15.5c-34 0 -65.167 5.16699 -93.5 15.5s-53 25.333 -74 45s-37.333 43.334 -49 71.001s-17.5 58.834 -17.5 93.501
c0 34 9.66699 65.667 29 95s43 55.666 71 78.999c-77.333 8.66699 -148.333 29.5 -213 62.5s-120.334 75.667 -167.001 128s-83 113 -109 182s-39 144.167 -39 225.5c0 88 15.333 169 46 243s73 137.667 127 191s118.333 94.833 193 124.5s156 44.5 244 44.5
c42.667 0 86.334 -3 131.001 -9s88 -15.5 130 -28.5s81.667 -29.833 119 -50.5s69.833 -46.167 97.5 -76.5s49.667 -65.5 66 -105.5s24.5 -85.667 24.5 -137c0 -47.333 -7.66699 -89.5 -23 -126.5s-36.166 -69.5 -62.499 -97.5s-56.833 -51.667 -91.5 -71
s-71.667 -35.166 -111 -47.499s-79.833 -21.166 -121.5 -26.499s-82.167 -8 -121.5 -8c-50 0 -99.333 3.5 -148 10.5s-96.667 18.167 -144 33.5c7.33301 -44 19 -85.833 35 -125.5s37.333 -74.334 64 -104.001s59.5 -53.167 98.5 -70.5s85.167 -26 138.5 -26
c35.333 0 69 5.33301 101 16s61.333 25.667 88 45s50.167 42.333 70.5 69s36.833 56.334 49.5 89.001l146 -54c-20 -48 -46.833 -89.833 -80.5 -125.5s-71.667 -66 -114 -91s-87.833 -44.5 -136.5 -58.5s-97.334 -23 -146.001 -27c-22.667 -25.333 -42 -52.833 -58 -82.5
s-24 -59.5 -24 -89.5c0 -26 6.16699 -47.333 18.5 -64s32.5 -25 60.5 -25c16.667 0 33.167 4.83301 49.5 14.5s24.833 24.167 25.5 43.5h113zM418.999 547.997c41.333 -9.33301 82.668 -16.6689 124.001 -22.002s83 -8 125 -8c44 0 84.833 4.16699 122.5 12.5
s70.334 22.333 98.001 42s49.5 45.834 65.5 78.501s24 73.334 24 122.001c0 39.333 -5.33301 75.333 -16 108s-26.5 60.667 -47.5 84s-46.833 41.5 -77.5 54.5s-66.334 19.5 -107.001 19.5c-38 0 -72.167 -7 -102.5 -21s-57 -32.833 -80 -56.5s-42.667 -51.167 -59 -82.5
s-29.833 -64 -40.5 -98s-18.334 -68.333 -23.001 -103s-7 -67.334 -7 -98.001v-16c0 -5.33301 0.333008 -10.666 1 -15.999z" />
    <glyph glyph-name="Ecaron" unicode="&#x11a;" horiz-adv-x="1280" 
d="M1197 0h-1034v1440h1034v-184h-637v-445h492v-183h-492v-444h637v-184zM964 1894l-199 -354h-165l-193 354h246l66 -137l65 137h180z" />
    <glyph glyph-name="ecaron" unicode="&#x11b;" horiz-adv-x="1322" 
d="M419 548c41.333 -9.33301 82.668 -16.6689 124.001 -22.002s83 -8 125 -8c44 0 84.833 4.16699 122.5 12.5s70.334 22.333 98.001 42s49.5 45.834 65.5 78.501s24 73.334 24 122.001c0 39.333 -5.33301 75.333 -16 108s-26.5 60.667 -47.5 84s-46.833 41.5 -77.5 54.5
s-66.334 19.5 -107.001 19.5c-38 0 -72.167 -7 -102.5 -21s-57 -32.833 -80 -56.5s-42.667 -51.167 -59 -82.5s-29.833 -64 -40.5 -98s-18.334 -68.333 -23.001 -103s-7 -67.334 -7 -98.001v-16c0 -5.33301 0.333008 -10.666 1 -15.999zM1252 775.997
c0 -47.333 -7.67188 -89.502 -23.0049 -126.502s-36.166 -69.5 -62.499 -97.5s-56.833 -51.667 -91.5 -71s-71.667 -35.166 -111 -47.499s-79.833 -21.166 -121.5 -26.499s-82.167 -8 -121.5 -8c-50 0 -99.333 3.5 -148 10.5s-96.667 18.167 -144 33.5
c7.33301 -44 19 -85.833 35 -125.5s37.333 -74.334 64 -104.001s59.5 -53.167 98.5 -70.5s85.167 -26 138.5 -26c35.333 0 69 5.33301 101 16s61.333 25.667 88 45s50.167 42.333 70.5 69s36.833 56.334 49.5 89.001l146 -54c-22 -52.667 -52.167 -98.167 -90.5 -136.5
s-81.666 -70 -129.999 -95s-99.666 -43.5 -153.999 -55.5s-108.166 -18 -161.499 -18c-88 0 -169.333 14.833 -244 44.5s-139 71.167 -193 124.5s-96.333 117 -127 191s-46 155 -46 243s15.333 169 46 243s73 137.667 127 191s118.333 94.833 193 124.5s156 44.5 244 44.5
c42.667 0 86.334 -3 131.001 -9s88 -15.5 130 -28.5s81.667 -29.833 119 -50.5s69.833 -46.167 97.5 -76.5s49.667 -65.5 66 -105.5s24.5 -85.667 24.5 -137zM971.997 1637l-199 -354h-165l-193 354h246l66 -137l65 137h180z" />
    <glyph glyph-name="Gcircumflex" unicode="&#x11c;" horiz-adv-x="1587" 
d="M1471 1083l-171.004 -72.001c-13.333 43.333 -31.166 83 -53.499 119s-49 66.833 -80 92.5s-66.167 45.667 -105.5 60s-82.333 21.5 -129 21.5c-50 0 -95.833 -8.33301 -137.5 -25s-79 -39.167 -112 -67.5s-61.833 -61.5 -86.5 -99.5s-45.167 -78.5 -61.5 -121.5
s-28.666 -87.5 -36.999 -133.5s-12.5 -91 -12.5 -135c0 -70 8.16699 -139.667 24.5 -209s42.333 -131.666 78 -186.999s81.834 -100.166 138.501 -134.499s125.334 -51.5 206.001 -51.5c44 0 78.333 9.83301 103 29.5s37 54.167 37 103.5v442h397v-715h-115l-70 113
c-64 -48.667 -134.5 -84.5 -211.5 -107.5s-155.5 -34.5 -235.5 -34.5c-70.667 0 -138.5 8.66699 -203.5 26s-125.5 42 -181.5 74s-106.833 70.667 -152.5 116s-84.667 95.666 -117 150.999s-57.333 115.5 -75 180.5s-26.5 132.833 -26.5 203.5s8.83301 138.5 26.5 203.5
s42.667 125.333 75 181s71.333 106.167 117 151.5s96.5 84 152.5 116s116.5 56.667 181.5 74s132.833 26 203.5 26c68 0 134.5 -8 199.5 -24s125.5 -40.167 181.5 -72.5s105.833 -73 149.5 -122s78.167 -106.5 103.5 -172.5zM1057 1575h-250l-65 138l-66 -138h-146l193 355
h135z" />
    <glyph glyph-name="gcircumflex" unicode="&#x11d;" horiz-adv-x="1445" 
d="M1304 139c0 -92 -13.6719 -178.665 -41.0049 -259.998s-67 -152.5 -119 -213.5s-115.833 -109.333 -191.5 -145s-161.834 -53.5 -258.501 -53.5c-53.333 0 -107.166 6 -161.499 18s-105.666 30.5 -153.999 55.5s-91.666 56.667 -129.999 95s-68.5 83.5 -90.5 135.5
l146 55c12.667 -32.667 29.167 -62.667 49.5 -90s43.833 -50.833 70.5 -70.5s56 -35 88 -46s65.667 -16.5 101 -16.5c66.667 0 122.5 13.667 167.5 41s81.167 63 108.5 107s47 93.833 59 149.5s18 112.167 18 169.5v68c-40 -54.667 -88.167 -95.167 -144.5 -121.5
s-118.166 -39.5 -185.499 -39.5c-88 0 -166.667 15.667 -236 47s-128 74.166 -176 128.499s-84.667 118.166 -110 191.499s-38 152 -38 236s12.667 162.667 38 236s62 137.166 110 191.499s106.667 97.166 176 128.499s148 47 236 47c44.667 0 87.167 -6.66699 127.5 -20
s77.333 -32.166 111 -56.499s63.334 -53.666 89.001 -87.999s45.834 -72.5 60.501 -114.5l150 251h130v-1016zM963.995 580.002c0 30 -1.5 61.6641 -4.5 94.9971s-8.16699 66.333 -15.5 99s-17.5 63.834 -30.5 93.501s-29.667 56 -50 79s-44.833 41.167 -73.5 54.5
s-62 20 -100 20s-71 -6.83301 -99 -20.5s-52 -32 -72 -55s-36.5 -49.5 -49.5 -79.5s-23.167 -61.333 -30.5 -94s-12.5 -65.5 -15.5 -98.5s-4.5 -64.167 -4.5 -93.5s1.5 -60.666 4.5 -93.999s8.16699 -66.333 15.5 -99s17.5 -64 30.5 -94s29.5 -56.5 49.5 -79.5
s44 -41.333 72 -55s61 -20.5 99 -20.5c34.667 0 65.5 7.16699 92.5 21.5s50.667 33.5 71 57.5s37.5 51.333 51.5 82s25.333 62.334 34 95.001s15 65.167 19 97.5s6 61.833 6 88.5zM985.995 1285h-250l-65 138l-66 -138h-146l193 355h135z" />
    <glyph glyph-name="Gbreve" unicode="&#x11e;" horiz-adv-x="1587" 
d="M1471 1083l-171.004 -72.001c-13.333 43.333 -31.166 83 -53.499 119s-49 66.833 -80 92.5s-66.167 45.667 -105.5 60s-82.333 21.5 -129 21.5c-50 0 -95.833 -8.33301 -137.5 -25s-79 -39.167 -112 -67.5s-61.833 -61.5 -86.5 -99.5s-45.167 -78.5 -61.5 -121.5
s-28.666 -87.5 -36.999 -133.5s-12.5 -91 -12.5 -135c0 -70 8.16699 -139.667 24.5 -209s42.333 -131.666 78 -186.999s81.834 -100.166 138.501 -134.499s125.334 -51.5 206.001 -51.5c44 0 78.333 9.83301 103 29.5s37 54.167 37 103.5v442h397v-715h-115l-70 113
c-64 -48.667 -134.5 -84.5 -211.5 -107.5s-155.5 -34.5 -235.5 -34.5c-70.667 0 -138.5 8.66699 -203.5 26s-125.5 42 -181.5 74s-106.833 70.667 -152.5 116s-84.667 95.666 -117 150.999s-57.333 115.5 -75 180.5s-26.5 132.833 -26.5 203.5s8.83301 138.5 26.5 203.5
s42.667 125.333 75 181s71.333 106.167 117 151.5s96.5 84 152.5 116s116.5 56.667 181.5 74s132.833 26 203.5 26c68 0 134.5 -8 199.5 -24s125.5 -40.167 181.5 -72.5s105.833 -73 149.5 -122s78.167 -106.5 103.5 -172.5zM1044 1828
c-2.66699 -35.333 -10.6709 -68.167 -24.0039 -98.5s-31 -56.833 -53 -79.5s-48 -40.5 -78 -53.5s-63 -19.5 -99 -19.5s-68.667 6.66699 -98 20s-54.666 31.5 -75.999 54.5s-38.333 49.667 -51 80s-20.334 62.5 -23.001 96.5h145c0 -7.33301 1.83301 -17.333 5.5 -30
s9.5 -25 17.5 -37s18.5 -22.5 31.5 -31.5s29.167 -13.5 48.5 -13.5c20.667 0 37.834 4.5 51.501 13.5s24.834 19.5 33.501 31.5s14.834 24.333 18.501 37s5.83398 22.667 6.50098 30h144z" />
    <glyph glyph-name="gbreve" unicode="&#x11f;" horiz-adv-x="1445" 
d="M1304 139c0 -92 -13.6719 -178.665 -41.0049 -259.998s-67 -152.5 -119 -213.5s-115.833 -109.333 -191.5 -145s-161.834 -53.5 -258.501 -53.5c-53.333 0 -107.166 6 -161.499 18s-105.666 30.5 -153.999 55.5s-91.666 56.667 -129.999 95s-68.5 83.5 -90.5 135.5
l146 55c12.667 -32.667 29.167 -62.667 49.5 -90s43.833 -50.833 70.5 -70.5s56 -35 88 -46s65.667 -16.5 101 -16.5c66.667 0 122.5 13.667 167.5 41s81.167 63 108.5 107s47 93.833 59 149.5s18 112.167 18 169.5v68c-40 -54.667 -88.167 -95.167 -144.5 -121.5
s-118.166 -39.5 -185.499 -39.5c-88 0 -166.667 15.667 -236 47s-128 74.166 -176 128.499s-84.667 118.166 -110 191.499s-38 152 -38 236s12.667 162.667 38 236s62 137.166 110 191.499s106.667 97.166 176 128.499s148 47 236 47c44.667 0 87.167 -6.66699 127.5 -20
s77.333 -32.166 111 -56.499s63.334 -53.666 89.001 -87.999s45.834 -72.5 60.501 -114.5l150 251h130v-1016zM963.995 580.002c0 30 -1.5 61.6641 -4.5 94.9971s-8.16699 66.333 -15.5 99s-17.5 63.834 -30.5 93.501s-29.667 56 -50 79s-44.833 41.167 -73.5 54.5
s-62 20 -100 20s-71 -6.83301 -99 -20.5s-52 -32 -72 -55s-36.5 -49.5 -49.5 -79.5s-23.167 -61.333 -30.5 -94s-12.5 -65.5 -15.5 -98.5s-4.5 -64.167 -4.5 -93.5s1.5 -60.666 4.5 -93.999s8.16699 -66.333 15.5 -99s17.5 -64 30.5 -94s29.5 -56.5 49.5 -79.5
s44 -41.333 72 -55s61 -20.5 99 -20.5c34.667 0 65.5 7.16699 92.5 21.5s50.667 33.5 71 57.5s37.5 51.333 51.5 82s25.333 62.334 34 95.001s15 65.167 19 97.5s6 61.833 6 88.5zM972.995 1535c-2.66699 -35.333 -10.6709 -68.167 -24.0039 -98.5s-31 -56.833 -53 -79.5
s-48 -40.5 -78 -53.5s-63 -19.5 -99 -19.5s-68.667 6.66699 -98 20s-54.666 31.5 -75.999 54.5s-38.333 49.667 -51 80s-20.334 62.5 -23.001 96.5h145c0 -7.33301 1.83301 -17.333 5.5 -30s9.5 -25 17.5 -37s18.5 -22.5 31.5 -31.5s29.167 -13.5 48.5 -13.5
c20.667 0 37.834 4.5 51.501 13.5s24.834 19.5 33.501 31.5s14.834 24.333 18.501 37s5.83398 22.667 6.50098 30h144z" />
    <glyph glyph-name="Gdotaccent" unicode="&#x120;" horiz-adv-x="1587" 
d="M1471 1083l-171.004 -72.001c-13.333 43.333 -31.166 83 -53.499 119s-49 66.833 -80 92.5s-66.167 45.667 -105.5 60s-82.333 21.5 -129 21.5c-50 0 -95.833 -8.33301 -137.5 -25s-79 -39.167 -112 -67.5s-61.833 -61.5 -86.5 -99.5s-45.167 -78.5 -61.5 -121.5
s-28.666 -87.5 -36.999 -133.5s-12.5 -91 -12.5 -135c0 -70 8.16699 -139.667 24.5 -209s42.333 -131.666 78 -186.999s81.834 -100.166 138.501 -134.499s125.334 -51.5 206.001 -51.5c44 0 78.333 9.83301 103 29.5s37 54.167 37 103.5v442h397v-715h-115l-70 113
c-64 -48.667 -134.5 -84.5 -211.5 -107.5s-155.5 -34.5 -235.5 -34.5c-70.667 0 -138.5 8.66699 -203.5 26s-125.5 42 -181.5 74s-106.833 70.667 -152.5 116s-84.667 95.666 -117 150.999s-57.333 115.5 -75 180.5s-26.5 132.833 -26.5 203.5s8.83301 138.5 26.5 203.5
s42.667 125.333 75 181s71.333 106.167 117 151.5s96.5 84 152.5 116s116.5 56.667 181.5 74s132.833 26 203.5 26c68 0 134.5 -8 199.5 -24s125.5 -40.167 181.5 -72.5s105.833 -73 149.5 -122s78.167 -106.5 103.5 -172.5zM940.996 1717c0 -20 -3.83301 -39 -11.5 -57
s-18.167 -33.667 -31.5 -47s-29 -23.833 -47 -31.5s-37 -11.5 -57 -11.5c-20.667 0 -40 3.83301 -58 11.5s-33.667 18.167 -47 31.5s-23.833 29 -31.5 47s-11.5 37 -11.5 57s3.83301 39 11.5 57s18.167 33.667 31.5 47s29 23.833 47 31.5s37.333 11.5 58 11.5
c20 0 39 -3.83301 57 -11.5s33.667 -18.167 47 -31.5s23.833 -29 31.5 -47s11.5 -37 11.5 -57z" />
    <glyph glyph-name="gdotaccent" unicode="&#x121;" horiz-adv-x="1445" 
d="M1304 139c0 -92 -13.6719 -178.665 -41.0049 -259.998s-67 -152.5 -119 -213.5s-115.833 -109.333 -191.5 -145s-161.834 -53.5 -258.501 -53.5c-53.333 0 -107.166 6 -161.499 18s-105.666 30.5 -153.999 55.5s-91.666 56.667 -129.999 95s-68.5 83.5 -90.5 135.5
l146 55c12.667 -32.667 29.167 -62.667 49.5 -90s43.833 -50.833 70.5 -70.5s56 -35 88 -46s65.667 -16.5 101 -16.5c66.667 0 122.5 13.667 167.5 41s81.167 63 108.5 107s47 93.833 59 149.5s18 112.167 18 169.5v68c-40 -54.667 -88.167 -95.167 -144.5 -121.5
s-118.166 -39.5 -185.499 -39.5c-88 0 -166.667 15.667 -236 47s-128 74.166 -176 128.499s-84.667 118.166 -110 191.499s-38 152 -38 236s12.667 162.667 38 236s62 137.166 110 191.499s106.667 97.166 176 128.499s148 47 236 47c44.667 0 87.167 -6.66699 127.5 -20
s77.333 -32.166 111 -56.499s63.334 -53.666 89.001 -87.999s45.834 -72.5 60.501 -114.5l150 251h130v-1016zM963.995 580.002c0 30 -1.5 61.6641 -4.5 94.9971s-8.16699 66.333 -15.5 99s-17.5 63.834 -30.5 93.501s-29.667 56 -50 79s-44.833 41.167 -73.5 54.5
s-62 20 -100 20s-71 -6.83301 -99 -20.5s-52 -32 -72 -55s-36.5 -49.5 -49.5 -79.5s-23.167 -61.333 -30.5 -94s-12.5 -65.5 -15.5 -98.5s-4.5 -64.167 -4.5 -93.5s1.5 -60.666 4.5 -93.999s8.16699 -66.333 15.5 -99s17.5 -64 30.5 -94s29.5 -56.5 49.5 -79.5
s44 -41.333 72 -55s61 -20.5 99 -20.5c34.667 0 65.5 7.16699 92.5 21.5s50.667 33.5 71 57.5s37.5 51.333 51.5 82s25.333 62.334 34 95.001s15 65.167 19 97.5s6 61.833 6 88.5zM869.995 1431c0 -20 -3.83301 -39 -11.5 -57s-18.167 -33.667 -31.5 -47
s-29 -23.833 -47 -31.5s-37 -11.5 -57 -11.5c-20.667 0 -40 3.83301 -58 11.5s-33.667 18.167 -47 31.5s-23.833 29 -31.5 47s-11.5 37 -11.5 57s3.83301 39 11.5 57s18.167 33.667 31.5 47s29 23.833 47 31.5s37.333 11.5 58 11.5c20 0 39 -3.83301 57 -11.5
s33.667 -18.167 47 -31.5s23.833 -29 31.5 -47s11.5 -37 11.5 -57z" />
    <glyph glyph-name="Gcommaaccent" unicode="&#x122;" horiz-adv-x="1587" 
d="M1471 1083l-171.004 -72.001c-13.333 43.333 -31.166 83 -53.499 119s-49 66.833 -80 92.5s-66.167 45.667 -105.5 60s-82.333 21.5 -129 21.5c-50 0 -95.833 -8.33301 -137.5 -25s-79 -39.167 -112 -67.5s-61.833 -61.5 -86.5 -99.5s-45.167 -78.5 -61.5 -121.5
s-28.666 -87.5 -36.999 -133.5s-12.5 -91 -12.5 -135c0 -70 8.16699 -139.667 24.5 -209s42.333 -131.666 78 -186.999s81.834 -100.166 138.501 -134.499s125.334 -51.5 206.001 -51.5c44 0 78.333 9.83301 103 29.5s37 54.167 37 103.5v442h397v-715h-115l-70 113
c-64 -48.667 -134.5 -84.5 -211.5 -107.5s-155.5 -34.5 -235.5 -34.5c-70.667 0 -138.5 8.66699 -203.5 26s-125.5 42 -181.5 74s-106.833 70.667 -152.5 116s-84.667 95.666 -117 150.999s-57.333 115.5 -75 180.5s-26.5 132.833 -26.5 203.5s8.83301 138.5 26.5 203.5
s42.667 125.333 75 181s71.333 106.167 117 151.5s96.5 84 152.5 116s116.5 56.667 181.5 74s132.833 26 203.5 26c68 0 134.5 -8 199.5 -24s125.5 -40.167 181.5 -72.5s105.833 -73 149.5 -122s78.167 -106.5 103.5 -172.5zM939.996 -258.001
c0 -24.667 -3.16602 -49.833 -9.49902 -75.5s-15.333 -50.5 -27 -74.5s-25.167 -46.833 -40.5 -68.5s-32 -40.834 -50 -57.501l-115 61c11.333 8.66699 22.666 19.834 33.999 33.501s18 27.5 20 41.5c-30.667 9.33301 -55.5 27 -74.5 53s-28.5 55 -28.5 87
c0 20 3.83301 38.833 11.5 56.5s18.167 33.167 31.5 46.5s28.833 23.833 46.5 31.5s36.5 11.5 56.5 11.5s38.833 -3.83301 56.5 -11.5s33 -18.167 46 -31.5s23.333 -28.833 31 -46.5s11.5 -36.5 11.5 -56.5z" />
    </font>
</defs>
</svg>
